<?xml version="1.0" standalone="no"?>
<!DOCTYPE svg PUBLIC "-//W3C//DTD SVG 1.1//EN" "http://www.w3.org/Graphics/SVG/1.1/DTD/svg11.dtd" >
<svg xmlns="http://www.w3.org/2000/svg" xmlns:xlink="http://www.w3.org/1999/xlink" version="1.1">
<metadata>
Created by FontForge 20190801 at Mon Jun 10 17:50:19 2019
 By Jimmy Wärting
Copyright (c) 2019 . All Rights Reserved.
</metadata>
<defs>
<font id="RecipekoreaM" horiz-adv-x="920" >
  <font-face 
    font-family="Recipekorea Medium"
    font-weight="400"
    font-stretch="normal"
    units-per-em="1000"
    panose-1="2 2 6 3 2 1 1 2 1 1"
    ascent="800"
    descent="-200"
    x-height="489"
    cap-height="681"
    bbox="-38.9 -494.1 1154 800"
    underline-thickness="25"
    underline-position="-157"
    unicode-range="U+001D-FFE6"
  />
<missing-glyph horiz-adv-x="900" 
d="M50 -150v900h800v-900h-800zM115 -114h670l-335 385zM424 301l-334 384v-768zM783 714h-667l333 -384zM476 300l334 -384v770z" />
    <glyph glyph-name=".notdef" horiz-adv-x="900" 
d="M50 -150v900h800v-900h-800zM115 -114h670l-335 385zM424 301l-334 384v-768zM783 714h-667l333 -384zM476 300l334 -384v770z" />
    <glyph glyph-name=".notdef" horiz-adv-x="900" 
d="M50 -150v900h800v-900h-800zM115 -114h670l-335 385zM424 301l-334 384v-768zM783 714h-667l333 -384zM476 300l334 -384v770z" />
    <glyph glyph-name="glyph1" horiz-adv-x="0" 
 />
    <glyph glyph-name="glyph2" horiz-adv-x="1024" 
 />
    <glyph glyph-name="space" unicode=" " horiz-adv-x="280" 
 />
    <glyph glyph-name="exclam" unicode="!" horiz-adv-x="400" 
d="M132 -175q-14 0 -20 5t-6 20v126q0 15 6 20t20 5h135q14 0 20 -5t6 -20v-126q0 -15 -6 -20t-20 -5h-135zM132 66q-14 0 -20 5t-6 20v659q0 15 6 20t20 5h135q14 0 20 -5t6 -20v-659q0 -15 -6 -20t-20 -5h-135z" />
    <glyph glyph-name="quotedbl" unicode="&#x22;" horiz-adv-x="470" 
d="M78 450q-14 0 -19.5 5t-6.5 20l-10 275q-1 15 5.5 20t20.5 5h117q14 0 20.5 -5t5.5 -20l-10 -275q-1 -15 -6.5 -20t-19.5 -5h-97zM294 450q-14 0 -19.5 5t-6.5 20l-10 275q-1 15 5.5 20t20.5 5h117q14 0 20.5 -5t5.5 -20l-10 -275q-1 -15 -6.5 -20t-19.5 -5h-97z" />
    <glyph glyph-name="numbersign" unicode="#" horiz-adv-x="800" 
d="M500 -160q-14 0 -20 5t-6 20v180h-133v-180q0 -15 -6 -20t-20 -5h-130q-14 0 -20 5t-6 20v180h-98q-14 0 -20 5t-6 20v117q0 15 6 20t20 5h98v154h-98q-14 0 -20 5t-6 20v117q0 15 6 20t20 5h98v180q0 15 6 20t20 5h130q14 0 20 -5t6 -20v-180h133v180q0 15 6 20t20 5
h130q14 0 20 -5t6 -20v-180h82q14 0 20 -5t6 -20v-117q0 -15 -6 -20t-20 -5h-82v-154h82q14 0 20 -5t6 -20v-117q0 -15 -6 -20t-20 -5h-82v-180q0 -15 -6 -20t-20 -5h-130zM341 212h133v154h-133v-154z" />
    <glyph glyph-name="dollar" unicode="$" horiz-adv-x="680" 
d="M462 689q32 -5 61 -10t49 -8q14 -3 20.5 -8.5t4.5 -20.5l-9 -94q-2 -17 -8 -21.5t-24 -2.5q-20 1 -51 4t-64 6l-25 -184q57 -20 95 -40t61 -47t33 -62.5t10 -85.5q0 -120 -67.5 -180.5t-197.5 -65.5l-4 -32q-2 -15 -7 -20t-19 -5h-92q-14 0 -18.5 5t-2.5 20l6 43
q-34 5 -62.5 10.5t-42.5 7.5t-18.5 7t-2.5 19l13 105q2 10 5.5 13.5t16.5 1.5q17 -2 47 -5.5t65 -6.5l27 200q-53 18 -90.5 38t-61 46.5t-34.5 61.5t-11 82q0 110 69 170.5t192 66.5l6 46q2 15 7 20t19 5h92q14 0 18.5 -5t2.5 -20zM450 112q0 24 -11.5 41.5t-44.5 33.5
l-22 -158q42 6 60 26t18 57zM229 471q0 -28 11 -44t44 -31l19 140q-39 -7 -56.5 -24t-17.5 -41z" />
    <glyph glyph-name="percent" unicode="%" horiz-adv-x="880" 
d="M209 615q-19 0 -27 -17t-8 -47t8 -48t27 -18t27 18t8 48t-8 47t-27 17zM46 551q0 85 39 136.5t124 51.5t123.5 -51.5t38.5 -136.5q0 -42 -9.5 -77t-29 -60t-50.5 -39t-73 -14t-73 14t-51 39t-29.5 60t-9.5 77zM671 95q-19 0 -27 -17t-8 -47t8 -48t27 -18t27 18t8 48
t-8 47t-27 17zM508 31q0 85 39 136.5t124 51.5t123.5 -51.5t38.5 -136.5q0 -42 -9.5 -77t-29 -60t-50.5 -39t-73 -14t-73 14t-51 39t-29.5 60t-9.5 77zM219 -159q-14 0 -17.5 5.5t1.5 19.5l300 847q5 14 13.5 19.5t22.5 5.5h127q14 0 17.5 -5.5t-1.5 -19.5l-300 -847
q-5 -14 -13.5 -19.5t-22.5 -5.5h-127z" />
    <glyph glyph-name="ampersand" unicode="&#x26;" horiz-adv-x="870" 
d="M403 748q123 0 187.5 -58t64.5 -159q0 -42 -9 -75t-29 -62.5t-51 -58t-75 -60.5l97 -99q7 29 12.5 57t11.5 59q4 19 11.5 23t25.5 3l102 -2q17 0 21 -6.5t2 -23.5q-3 -26 -9.5 -56t-14.5 -59t-16.5 -55t-15.5 -44l118 -109q13 -13 12 -22t-9 -18l-67 -74q-14 -19 -33 -2
l-110 95q-34 -26 -65.5 -47t-65 -35t-72.5 -21.5t-88 -7.5q-67 0 -121.5 18t-93.5 53.5t-60 87t-21 118.5q0 46 13.5 83.5t36.5 69t54.5 56.5t67.5 46q-36 49 -50 90t-14 92q0 45 18 82.5t51 64t80 41.5t104 15zM342 -12q25 0 45 3t38.5 10t37.5 18t41 27l-189 201
q-50 -20 -74 -58t-25 -79q0 -23 7.5 -45t23.5 -39t39.5 -27.5t55.5 -10.5zM317 520q0 -39 14 -66t42 -57l17 -19q24 18 42 33t30 30.5t18 32.5t6 39q0 36 -21 62t-62 26q-40 0 -63 -24.5t-23 -56.5z" />
    <glyph glyph-name="quotesingle" unicode="'" horiz-adv-x="320" 
d="M111 450q-14 0 -19.5 5t-6.5 20l-10 275q-1 15 5.5 20t20.5 5h117q14 0 20.5 -5t5.5 -20l-10 -275q-1 -15 -6.5 -20t-19.5 -5h-97z" />
    <glyph glyph-name="parenleft" unicode="(" horiz-adv-x="420" 
d="M260 299q0 -72 12 -142t29 -130.5t35.5 -107t30.5 -70.5q14 -29 -22 -29h-113q-18 0 -30 2t-22 21q-12 23 -31.5 68t-37.5 105.5t-31 133t-13 149.5t13 149.5t31 133t37.5 105.5t31.5 68q10 19 22 21t30 2h113q36 0 22 -29q-12 -24 -30.5 -70.5t-35.5 -107t-29 -130.5
t-12 -142z" />
    <glyph glyph-name="parenright" unicode=")" horiz-adv-x="420" 
d="M160 299q0 72 -12 142t-29 130.5t-35.5 107t-30.5 70.5q-15 29 22 29h113q18 0 30 -2t22 -21q12 -23 31.5 -68t37.5 -105.5t31 -133t13 -149.5t-13 -149.5t-31 -133t-37.5 -105.5t-31.5 -68q-10 -19 -22 -21t-30 -2h-113q-37 0 -22 29q12 24 30.5 70.5t35.5 107t29 130.5
t12 142z" />
    <glyph glyph-name="asterisk" unicode="*" horiz-adv-x="600" 
d="M299 414l-77 -109q-8 -12 -16.5 -12.5t-19.5 7.5l-60 44q-11 8 -13.5 15t6.5 19l78 104l-126 44q-14 5 -17 12t2 20l24 70q5 13 11.5 17t20.5 -1l125 -40v109q0 15 6 20t20 5h73q14 0 20 -5t6 -20v-109l125 40q14 5 20.5 1t11.5 -17l24 -70q5 -13 2 -20t-17 -12l-126 -44
l78 -104q9 -12 6.5 -19t-13.5 -15l-60 -44q-11 -8 -19.5 -7.5t-16.5 12.5z" />
    <glyph glyph-name="plus" unicode="+" horiz-adv-x="640" 
d="M255 -98q-14 0 -20 5t-6 20v175h-163q-14 0 -20 5t-6 20v117q0 15 6 20t20 5h163v175q0 15 6 20t20 5h130q14 0 20 -5t6 -20v-175h162q14 0 20 -5t6 -20v-117q0 -15 -6 -20t-20 -5h-162v-175q0 -15 -6 -20t-20 -5h-130z" />
    <glyph glyph-name="comma" unicode="," horiz-adv-x="330" 
d="M259 -148q0 -36 -9.5 -67t-31.5 -55t-58 -40.5t-89 -22.5v37q10 2 21.5 9.5t21.5 22.5t16.5 38.5t7.5 58.5h-39q-14 0 -20 5t-6 20v125q0 15 6 20t20 5h134q14 0 20 -5t6 -20v-131z" />
    <glyph glyph-name="hyphen" unicode="-" horiz-adv-x="600" 
d="M40 344q0 15 6 20t20 5h467q14 0 20 -5t6 -20v-117q0 -15 -6 -20t-20 -5h-467q-14 0 -20 5t-6 20v117z" />
    <glyph glyph-name="period" unicode="." horiz-adv-x="330" 
d="M99 -168q-14 0 -20 5t-6 20v126q0 15 6 20t20 5h134q14 0 20 -5t6 -20v-126q0 -15 -6 -20t-20 -5h-134z" />
    <glyph glyph-name="slash" unicode="/" horiz-adv-x="600" 
d="M106 -159q-14 0 -20 5.5t-1 19.5l250 847q5 14 11 19.5t20 5.5h127q14 0 20 -5.5t1 -19.5l-250 -847q-5 -14 -11 -19.5t-20 -5.5h-127z" />
    <glyph glyph-name="zero" unicode="0" horiz-adv-x="780" 
d="M391 -167q-80 0 -142.5 25t-105 79t-65 140t-22.5 208t22.5 209.5t65 143.5t105 82.5t142.5 26.5t142.5 -26.5t105 -82.5t65 -143.5t22.5 -209.5t-22.5 -208t-65 -140t-105 -79t-142.5 -25zM391 -1q35 0 62 15t45 49t27 88.5t9 133.5q0 157 -36.5 226.5t-106.5 69.5
q-71 0 -107 -69.5t-36 -226.5q0 -79 9 -133.5t27 -88.5t45 -49t62 -15z" />
    <glyph glyph-name="one" unicode="1" horiz-adv-x="610" 
d="M331 -159q-14 0 -20 5t-6 20v663l-164 -107q-22 -14 -34 7l-57 97q-8 14 -7.5 22.5t13.5 16.5l249 165q8 5 13 6.5t15 1.5h138q14 0 20 -5t6 -20v-847q0 -15 -6 -20t-20 -5h-140z" />
    <glyph glyph-name="two" unicode="2" horiz-adv-x="689" 
d="M623 -134q0 -15 -6 -20t-20 -5h-510q-14 0 -17.5 4t-3.5 18v116q0 9 1 15t3.5 11t6.5 10t11 12l156 157q85 85 132.5 156.5t47.5 134.5q0 32 -8 53t-25 33t-44 16.5t-64 3.5q-23 -1 -46.5 -4t-46.5 -6.5t-43 -7.5l-35 -7q-17 -4 -24 1.5t-8 21.5l-8 107q-1 15 4.5 22.5
t23.5 10.5q17 3 42 7.5t55.5 9t64 8t67.5 3.5q147 0 213 -63t66 -183q0 -50 -9.5 -94.5t-31 -88.5t-56 -89t-83.5 -95l-123 -127h292q14 0 20 -5t6 -20v-116z" />
    <glyph glyph-name="three" unicode="3" horiz-adv-x="689" 
d="M157 346q0 15 6 20t20 5h147q22 0 42 7t35 20.5t23.5 32.5t8.5 43q0 51 -35.5 79.5t-92.5 28.5q-49 0 -96.5 -6t-76.5 -13q-35 -8 -39 27l-10 98q-3 31 25 35q17 3 43 7.5t57 8t66 6.5t70 3q69 0 120.5 -15.5t86 -43.5t51.5 -66t17 -84q0 -28 -2.5 -57t-12.5 -57.5
t-30 -56.5t-56 -55q34 -23 56.5 -47t35.5 -51t18.5 -59t5.5 -70q0 -57 -19.5 -103.5t-57 -80t-92 -52t-124.5 -18.5q-35 0 -71.5 3t-70.5 7t-63.5 8.5t-49.5 7.5t-25.5 11t-3.5 25l11 105q2 16 10 20.5t26 -0.5t43.5 -8.5t54 -6.5t58 -4.5t55.5 -1.5q134 0 134 113
q0 48 -34.5 71t-90.5 23h-147q-14 0 -20 5t-6 20v116z" />
    <glyph glyph-name="four" unicode="4" horiz-adv-x="730" 
d="M710 10q0 -15 -6 -20t-20 -5h-68v-119q0 -15 -6 -20t-20 -5h-130q-14 0 -20 5t-6 20v119h-354q-16 0 -23.5 5.5t-7.5 22.5v96q0 10 1 18.5t5 19.5l199 569q5 13 10 17.5t16 4.5h138q17 0 22 -6t0 -23l-184 -558h178v259q0 15 6 20t20 5h130q14 0 20 -5t6 -20v-259h68
q14 0 20 -5t6 -20v-116z" />
    <glyph glyph-name="five" unicode="5" horiz-adv-x="689" 
d="M597 598q0 -15 -6 -20t-20 -5h-311l-9 -169q29 7 49 10t49 3q140 0 212 -63.5t72 -204.5q0 -74 -21 -131.5t-60.5 -96.5t-95.5 -59.5t-126 -20.5q-37 0 -73 3t-69 8t-61.5 10t-49.5 10q-18 4 -24 12t-4 25l13 104q2 17 10.5 20.5t22.5 1.5q20 -4 45 -8.5t53.5 -8.5
t59 -6.5t60.5 -2.5q32 0 57 6t42.5 21t27 40t9.5 63q0 56 -32 83.5t-88 27.5q-30 0 -54.5 -3t-52.5 -11q-21 -5 -36 -2l-85 18q-23 5 -29 21t-4 37l22 363q2 39 15 52.5t51 13.5h415q14 0 20 -5t6 -20v-116z" />
    <glyph glyph-name="six" unicode="6" horiz-adv-x="690" 
d="M593 586q-2 -14 -7.5 -16.5t-19.5 -0.5q-27 3 -78.5 8.5t-109.5 5.5q-42 0 -72 -17.5t-49.5 -47.5t-28.5 -69.5t-9 -84.5q43 17 78.5 25t72.5 8q139 0 210.5 -66.5t71.5 -211.5q0 -73 -21 -127t-60 -90t-95 -53.5t-125 -17.5q-82 0 -141 29t-97.5 85t-57 138t-18.5 189
q0 128 23.5 218.5t68 148t107.5 84t142 26.5q27 0 55 -2t54.5 -5t49 -6.5t39.5 -6.5q19 -4 23.5 -10.5t2.5 -25.5zM355 243q-30 0 -63.5 -7t-72.5 -16q0 -42 6 -83t21 -73.5t40.5 -52t64.5 -19.5q71 0 102.5 32t31.5 95q0 60 -36 92t-94 32z" />
    <glyph glyph-name="seven" unicode="7" horiz-adv-x="689" 
d="M64 713q0 15 6 20t20 5h491q18 0 24.5 -5.5t6.5 -24.5v-139q0 -18 -3.5 -34t-10.5 -32l-282 -644q-10 -22 -18.5 -28t-28.5 1l-101 35q-16 6 -21 14t4 29l272 624v37h-333q-14 0 -20 5t-6 20v117z" />
    <glyph glyph-name="eight" unicode="8" horiz-adv-x="763" 
d="M694 503q0 -74 -29.5 -120.5t-85.5 -82.5q23 -10 46 -28t41 -43.5t29.5 -59t11.5 -75.5q0 -68 -26 -117.5t-70.5 -82t-104.5 -48t-128 -15.5t-127 13.5t-103 43t-69.5 76.5t-25.5 115q0 43 11.5 77t31.5 60t47 44.5t58 30.5q-30 16 -55 36t-42 45.5t-26.5 58t-9.5 74.5
q0 55 22 100t62.5 77t98 49t127.5 17q69 0 127 -17t100 -49t65.5 -77t23.5 -102zM527 107q0 25 -15 47t-39 38.5t-55 27t-62 12.5q-60 -20 -91 -52t-31 -78q0 -54 36 -84t108 -30q73 0 111 32.5t38 86.5zM253 485q0 -23 11.5 -43t30.5 -36t43 -27t50 -17q55 17 88 47t33 76
q0 51 -32.5 82t-95.5 31q-62 0 -95 -31t-33 -82z" />
    <glyph glyph-name="nine" unicode="9" horiz-adv-x="690" 
d="M96 -6q2 14 7.5 16.5t19.5 0.5q27 -3 78.5 -8.5t109.5 -5.5q42 0 72 17.5t49.5 47.5t28.5 69.5t9 84.5q-43 -17 -78.5 -25t-72.5 -8q-139 0 -210.5 66.5t-71.5 211.5q0 73 21 127t60 90t95 53.5t125 17.5q163 0 238.5 -113.5t75.5 -327.5q0 -128 -24 -218.5t-68 -148
t-107 -84t-142 -26.5q-27 0 -55 2t-54.5 5t-49.5 6.5t-39 6.5q-19 4 -23.5 10.5t-2.5 25.5zM334 337q30 0 63.5 7t72.5 16q0 42 -6 83t-21 73.5t-40.5 52t-64.5 19.5q-71 0 -102.5 -32t-31.5 -95q0 -60 36 -92t94 -32z" />
    <glyph glyph-name="colon" unicode=":" horiz-adv-x="350" 
d="M108 402q-14 0 -20 5t-6 20v126q0 15 6 20t20 5h134q14 0 20 -5t6 -20v-126q0 -15 -6 -20t-20 -5h-134zM108 2q-14 0 -20 5t-6 20v126q0 15 6 20t20 5h134q14 0 20 -5t6 -20v-126q0 -15 -6 -20t-20 -5h-134z" />
    <glyph glyph-name="semicolon" unicode=";" horiz-adv-x="350" 
d="M108 402q-14 0 -20 5t-6 20v126q0 15 6 20t20 5h134q14 0 20 -5t6 -20v-126q0 -15 -6 -20t-20 -5h-134zM268 22q0 -36 -9.5 -67t-31.5 -55t-58 -40.5t-89 -22.5v37q10 2 21.5 9.5t21.5 22.5t16.5 38.5t7.5 58.5h-39q-14 0 -20 5t-6 20v125q0 15 6 20t20 5h134q14 0 20 -5
t6 -20v-131z" />
    <glyph glyph-name="less" unicode="&#x3c;" horiz-adv-x="630" 
d="M270 309l266 -224q11 -9 12.5 -14t1.5 -15v-184q0 -14 -7 -17t-16 5l-406 339q-13 11 -17.5 20t-4.5 26v127q0 17 4.5 26t17.5 20l406 339q9 8 16 5t7 -17v-184q0 -10 -1.5 -15t-12.5 -14z" />
    <glyph glyph-name="equal" unicode="=" horiz-adv-x="600" 
d="M40 484q0 15 6 20t20 5h467q14 0 20 -5t6 -20v-117q0 -15 -6 -20t-20 -5h-467q-14 0 -20 5t-6 20v117zM40 194q0 15 6 20t20 5h467q14 0 20 -5t6 -20v-117q0 -15 -6 -20t-20 -5h-467q-14 0 -20 5t-6 20v117z" />
    <glyph glyph-name="greater" unicode="&#x3e;" horiz-adv-x="630" 
d="M93 532q-11 9 -12.5 14t-1.5 15v184q0 14 7 17t16 -5l406 -339q13 -11 17.5 -20t4.5 -26v-127q0 -17 -4.5 -26t-17.5 -20l-406 -339q-9 -8 -16 -5t-7 17v184q0 10 1.5 15t12.5 14l266 224z" />
    <glyph glyph-name="question" unicode="?" horiz-adv-x="642" 
d="M180 -175q-14 0 -20 5t-6 20v126q0 15 6 20t20 5h135q14 0 20 -5t6 -20v-126q0 -15 -6 -20t-20 -5h-135zM154 176q0 44 16.5 75.5t41.5 55t54.5 43t54.5 40.5t41.5 46t16.5 61q0 24 -3 42t-13.5 30.5t-32.5 18.5t-59 6q-16 0 -36.5 -1.5t-41.5 -4t-41 -5.5t-36 -6
q-17 -3 -29 0.5t-15 29.5l-12 101q-2 12 1 20t8 12.5t11 6.5t10 3q54 12 111 19.5t110.5 5.5t100.5 -15.5t82.5 -43.5t56 -77.5t20.5 -117.5q0 -59 -17 -101.5t-42.5 -74t-55.5 -54t-55.5 -41.5t-42.5 -37t-17 -41v-81q0 -15 -6 -20t-20 -5h-135q-14 0 -20 5t-6 20v85z" />
    <glyph glyph-name="at" unicode="@" horiz-adv-x="950" 
d="M911 317q0 -81 -11 -137t-33 -91t-56 -50.5t-80 -15.5q-86 0 -128 43q-29 -18 -70.5 -30t-79.5 -12q-90 0 -137 56.5t-47 191.5q0 60 8 108.5t29 83t57.5 53t93.5 18.5q24 0 42 -4t40 -17v10q0 13 13 13h114q9 0 12.5 -3t3.5 -13v-192q0 -60 2 -95.5t7 -53.5t14 -23.5
t23 -5.5q13 0 21.5 6.5t14 25t7.5 51t2 83.5q0 86 -15.5 143t-49.5 91t-89 48t-133 14q-80 0 -137 -20t-93 -60t-53 -101t-17 -142q0 -89 13.5 -151t47 -100.5t91.5 -55.5t148 -17q19 0 52.5 2t58.5 4q17 2 23.5 -3.5t7.5 -19.5l3 -80q1 -16 -5 -22.5t-23 -8.5
q-12 -2 -27.5 -3.5t-31.5 -2t-31 -1t-27 -0.5q-110 0 -192 21.5t-137 74.5t-82 141t-27 222q0 118 30 204.5t86.5 142.5t138 83.5t183.5 27.5q219 0 322 -107.5t103 -323.5zM474 155q23 0 37 4l35 10q-4 23 -5.5 48t-1.5 53v131q-27 9 -52 9q-21 0 -35 -6t-23 -21.5
t-12.5 -42t-3.5 -68.5q0 -66 18.5 -91.5t42.5 -25.5z" />
    <glyph glyph-name="A" unicode="A" horiz-adv-x="786" 
d="M537 -3h-289l-26 -125q-5 -20 -12 -25.5t-29 -5.5h-119q-21 0 -27.5 7.5t-1.5 28.5l177 813q2 9 5 17.5t9 15.5t17.5 11t29.5 4h243q18 0 29.5 -4t17.5 -11t9 -15.5t5 -17.5l177 -813q5 -21 -1.5 -28.5t-27.5 -7.5h-119q-22 0 -29 5.5t-12 25.5zM283 164h219l-85 409h-49
z" />
    <glyph glyph-name="B" unicode="B" horiz-adv-x="786" 
d="M273 213v-215h154q111 0 111 109q0 54 -28.5 80t-82.5 26h-154zM273 581v-214h140q53 0 76.5 30t23.5 83q0 101 -102 101h-138zM213 -159q-42 0 -66 9t-36.5 25.5t-16 40t-3.5 51.5v646q0 34 6 58t20 39t37 21.5t58 6.5h213q61 0 112 -12.5t87.5 -40t56.5 -71t20 -104.5
q0 -44 -5.5 -76t-16 -56.5t-27 -43t-38.5 -34.5q30 -13 51.5 -30.5t35.5 -42t20.5 -57t6.5 -76.5q0 -66 -20 -114t-57.5 -78.5t-90.5 -45.5t-119 -15h-228z" />
    <glyph glyph-name="C" unicode="C" horiz-adv-x="694" 
d="M646 -104q1 -20 -3.5 -28t-23.5 -13q-18 -5 -45.5 -10t-59 -9t-64 -7t-60.5 -3q-102 0 -168 28.5t-103.5 85.5t-52 144t-14.5 204q0 127 17.5 214.5t57.5 142t104.5 79t158.5 24.5q31 0 64.5 -3.5t65 -8.5t58.5 -10.5t45 -9.5q12 -3 19 -8.5t6 -29.5l-4 -79
q-1 -20 -10 -27t-23 -5q-19 2 -43.5 4.5t-50.5 5t-50.5 4t-43.5 1.5q-51 0 -85.5 -13t-55.5 -46t-29.5 -90t-8.5 -145q0 -83 7 -139.5t27.5 -91t56.5 -49.5t93 -15q17 0 40.5 2t48.5 4.5t49 5t43 4.5q21 2 27.5 -2.5t7.5 -21.5z" />
    <glyph glyph-name="D" unicode="D" horiz-adv-x="814" 
d="M213 -159q-42 0 -66 9t-36.5 25.5t-16 40t-3.5 51.5v646q0 34 6 58t20 39t37 21.5t58 6.5h174q115 0 188.5 -25.5t115 -79t57 -135t15.5 -192.5q0 -114 -14 -201t-55 -145.5t-114.5 -88.5t-192.5 -30h-173zM572 306q0 68 -5.5 117.5t-25 81.5t-57.5 47.5t-103 15.5h-108
v-557h108q65 0 103 20t57.5 58.5t25 93t5.5 123.5z" />
    <glyph glyph-name="E" unicode="E" horiz-adv-x="719" 
d="M273 366h323q14 0 20 -5t6 -20v-120q0 -15 -6 -20t-20 -5h-323v-135q0 -29 10 -39.5t37 -10.5h314q14 0 20 -5t6 -20v-120q0 -15 -6 -20t-20 -5h-421q-42 0 -66 9t-36.5 25.5t-16 40t-3.5 51.5v645q0 28 3.5 51.5t16 40t36.5 25.5t66 9h421q14 0 20 -5t6 -20v-120
q0 -15 -6 -20t-20 -5h-314q-27 0 -37 -10.5t-10 -39.5v-152z" />
    <glyph glyph-name="F" unicode="F" horiz-adv-x="699" 
d="M283 366h313q14 0 20 -5t6 -20v-120q0 -15 -6 -20t-20 -5h-313v-330q0 -15 -6 -20t-20 -5h-140q-14 0 -20 5t-6 20v746q0 28 3.5 51.5t16 40t36.5 25.5t66 9h421q14 0 20 -5t6 -20v-120q0 -15 -6 -20t-20 -5h-304q-27 0 -37 -10.5t-10 -39.5v-152z" />
    <glyph glyph-name="G" unicode="G" horiz-adv-x="773" 
d="M715 -103q0 -32 -12 -42.5t-41 -13.5q-24 -3 -55.5 -6.5t-64.5 -7t-66.5 -6t-62.5 -2.5q-105 0 -174.5 26.5t-111 83.5t-58.5 145.5t-17 213.5q0 127 17.5 214.5t57.5 142t104.5 79t158.5 24.5q31 0 69 -4t75 -9.5t69 -11.5t50 -10q12 -3 19 -8.5t6 -29.5l-4 -79
q-1 -20 -10 -27t-23 -5q-19 2 -49.5 5t-63 6t-63 5t-49.5 2q-51 0 -85.5 -13t-55.5 -46t-29.5 -90t-8.5 -145q0 -84 7.5 -140.5t28.5 -90.5t59 -48.5t98 -14.5q20 0 39.5 0.5t34.5 1.5q18 1 34 3v152h-104q-14 0 -20 5t-6 20v110q0 15 6 20t20 5h255q14 0 20 -5t6 -20v-389z
" />
    <glyph glyph-name="H" unicode="H" horiz-adv-x="870" 
d="M612 -159q-14 0 -20 5t-6 20v348h-302v-348q0 -15 -6 -20t-20 -5h-141q-14 0 -20 5t-6 20v847q0 15 6 20t20 5h141q14 0 20 -5t6 -20v-333h302v333q0 15 6 20t20 5h141q14 0 20 -5t6 -20v-847q0 -15 -6 -20t-20 -5h-141z" />
    <glyph glyph-name="I" unicode="I" horiz-adv-x="370" 
d="M115 -159q-14 0 -20 5t-6 20v847q0 15 6 20t20 5h140q14 0 20 -5t6 -20v-847q0 -15 -6 -20t-20 -5h-140z" />
    <glyph glyph-name="J" unicode="J" horiz-adv-x="410" 
d="M327 -31q0 -69 -16.5 -114.5t-50 -73t-83.5 -39.5t-117 -13q-12 0 -16.5 3t-4.5 15v127q0 11 3 16t16 6q75 4 75 83v734q0 15 6 20t20 5h142q14 0 20 -5t6 -20v-744z" />
    <glyph glyph-name="K" unicode="K" horiz-adv-x="771" 
d="M117 -159q-14 0 -20 5t-6 20v847q0 15 6 20t20 5h141q14 0 20 -5t6 -20v-348h103l134 341q7 17 18.5 24t29.5 7h126q21 0 30 -7t-1 -29l-177 -410l180 -410q10 -23 1 -32t-33 -9h-122q-19 0 -29 5.5t-18 23.5l-136 323h-106v-326q0 -15 -6 -20t-20 -5h-141z" />
    <glyph glyph-name="L" unicode="L" horiz-adv-x="633" 
d="M284 61q0 -29 10 -39.5t37 -10.5h237q14 0 20 -5t6 -20v-120q0 -15 -6 -20t-20 -5h-355q-42 0 -66 9t-36.5 25.5t-16 40t-3.5 51.5v746q0 15 6 20t20 5h141q14 0 20 -5t6 -20v-652z" />
    <glyph glyph-name="M" unicode="M" horiz-adv-x="1102" 
d="M715 691q5 20 19 33t49 13h181q47 0 47 -50v-822q0 -15 -6 -20t-20 -5h-127q-14 0 -20 5t-6 20v626h-20l-161 -580q-5 -20 -15 -26t-30 -6h-107q-20 0 -30 6t-15 26l-164 580h-20v-626q0 -15 -6 -20t-20 -5h-127q-14 0 -20 5t-6 20v822q0 50 47 50h183q35 0 49 -13
t19 -33l163 -599z" />
    <glyph glyph-name="N" unicode="N" horiz-adv-x="911" 
d="M290 511h-15v-646q0 -15 -6 -20t-20 -5h-132q-14 0 -20 5t-6 20v826q0 26 6.5 36t32.5 10h196q29 0 42.5 -12t21.5 -33l231 -626h15v646q0 15 6 20t20 5h132q14 0 20 -5t6 -20v-826q0 -26 -6.5 -36t-32.5 -10h-187q-29 0 -42.5 12t-21.5 33z" />
    <glyph glyph-name="O" unicode="O" horiz-adv-x="837" 
d="M419 -3q54 0 89.5 17t56 52.5t28.5 89t8 126.5t-8 128.5t-28.5 93t-56 57t-89.5 19.5q-55 0 -90 -19.5t-55.5 -57t-28.5 -93t-8 -128.5t8 -126.5t28.5 -89t55.5 -52.5t90 -17zM419 -176q-105 0 -175 29t-113 86.5t-61 143.5t-18 199t18 201t61 148t113 91t175 31
q104 0 174.5 -31t113 -91t60.5 -148t18 -201t-18 -199t-60.5 -143.5t-113 -86.5t-174.5 -29z" />
    <glyph glyph-name="P" unicode="P" horiz-adv-x="770" 
d="M273 97v-231q0 -15 -6 -20t-20 -5h-130q-14 0 -20 5t-6 20v746q0 28 3.5 51.5t16 40t36.5 25.5t66 9h203q157 0 236 -78t79 -235t-79 -242.5t-236 -85.5h-143zM273 270h142q67 0 100.5 40.5t33.5 114.5q0 72 -33.5 106t-100.5 34h-95q-27 0 -37 -10.5t-10 -39.5v-245z
" />
    <glyph glyph-name="Q" unicode="Q" horiz-adv-x="837" 
d="M476 -173q-14 -1 -28.5 -2t-28.5 -1q-105 0 -175 29t-113 86.5t-61 143.5t-18 199t18 201t61 148t113 91t175 31q104 0 174.5 -31t113 -91t60.5 -148t18 -201q0 -145 -30 -244t-104 -153l86 -140q10 -16 7 -25.5t-17 -17.5l-103 -54q-18 -9 -27 -7.5t-18 16.5zM419 -3
q54 0 89.5 17t56 52.5t28.5 89t8 126.5t-8 128.5t-28.5 93t-56 57t-89.5 19.5q-55 0 -90 -19.5t-55.5 -57t-28.5 -93t-8 -128.5t8 -126.5t28.5 -89t55.5 -52.5t90 -17z" />
    <glyph glyph-name="R" unicode="R" horiz-adv-x="798" 
d="M442 131h-169v-265q0 -15 -6 -20t-20 -5h-130q-14 0 -20 5t-6 20v746q0 28 3.5 51.5t16 40t36.5 25.5t66 9h221q159 0 235.5 -69.5t76.5 -228.5q0 -99 -34.5 -158.5t-95.5 -97.5l112 -305q8 -21 -1 -29.5t-33 -8.5h-113q-23 0 -32.5 7.5t-16.5 30.5zM563 438
q0 130 -129 130h-114q-27 0 -37 -10.5t-10 -39.5v-217h164q67 0 96.5 38t29.5 99z" />
    <glyph glyph-name="S" unicode="S" horiz-adv-x="689" 
d="M620 582q-2 -18 -8.5 -23t-26.5 -3t-49.5 5t-62 5.5t-63 4.5t-51.5 2q-72 0 -104.5 -21t-32.5 -55q0 -24 7 -40t26.5 -28.5t54 -25t90.5 -30.5q72 -23 120 -46t77 -53.5t41 -72t12 -99.5q0 -138 -80.5 -205.5t-234.5 -67.5q-29 0 -65.5 4t-71.5 9t-65 10.5t-45 8.5t-20 8
t-3 21l14 116q2 11 6 15t18 2q17 -2 45 -5t60 -6t65.5 -5.5t60.5 -2.5q72 0 102.5 22t30.5 72q0 20 -6 35.5t-23 29t-47 26t-78 26.5q-75 22 -127 45t-84.5 53.5t-47.5 71.5t-15 99q0 64 22 113.5t63.5 83t101 50.5t133.5 17q28 0 61.5 -3.5t67 -8t63.5 -9.5t51 -9
q16 -3 23 -9t5 -23z" />
    <glyph glyph-name="T" unicode="T" horiz-adv-x="680" 
d="M15 713q0 15 6 20t20 5h598q14 0 20 -5t6 -20v-117q0 -15 -6 -20t-20 -5h-203v-705q0 -15 -6 -20t-20 -5h-140q-14 0 -20 5t-6 20v705h-203q-14 0 -20 5t-6 20v117z" />
    <glyph glyph-name="U" unicode="U" horiz-adv-x="829" 
d="M271 142q0 -39 9.5 -65t27.5 -41.5t45 -22t62 -6.5q69 0 106 28.5t37 106.5v571q0 15 6 20t20 5h141q14 0 20 -5t6 -20v-571q0 -83 -21.5 -142t-63.5 -96.5t-105 -55t-146 -17.5t-146 17.5t-105.5 55t-64 96.5t-21.5 142v571q0 15 6 20t20 5h141q14 0 20 -5t6 -20v-571v0
z" />
    <glyph glyph-name="V" unicode="V" horiz-adv-x="797" 
d="M368 6h49l146 701q5 20 12 25.5t29 5.5h119q21 0 27.5 -7.5t1.5 -28.5l-177 -813q-2 -9 -5 -17.5t-9 -15.5t-17.5 -11t-29.5 -4h-243q-18 0 -29.5 4t-17.5 11t-9 15.5t-5 17.5l-177 813q-5 21 1.5 28.5t27.5 7.5h119q22 0 29 -5.5t12 -25.5z" />
    <glyph glyph-name="W" unicode="W" horiz-adv-x="1100" 
d="M619 738q20 0 30 -7.5t13 -24.5l114 -680h19l113 685q3 17 9.5 22t28.5 5h108q19 0 24.5 -8.5t2.5 -26.5l-142 -824q-4 -23 -14 -30.5t-36 -7.5h-193q-26 0 -36 7.5t-14 30.5l-97 595l-96 -595q-4 -23 -14 -30.5t-36 -7.5h-193q-26 0 -36 7.5t-14 30.5l-142 824
q-3 18 2.5 26.5t24.5 8.5h108q22 0 28.5 -5t9.5 -22l113 -685h19l114 680q3 17 13 24.5t30 7.5h139z" />
    <glyph glyph-name="X" unicode="X" horiz-adv-x="755" 
d="M233 -128q-8 -15 -19 -23t-28 -8h-129q-18 0 -23.5 9.5t2.5 24.5l225 412l-224 417q-8 15 -2.5 24.5t23.5 9.5h129q17 0 28 -8t19 -23l144 -281l143 281q15 31 47 31h129q18 0 23.5 -9.5t-2.5 -24.5l-220 -417l221 -412q8 -15 2.5 -24.5t-23.5 -9.5h-129q-32 0 -47 31
l-144 278z" />
    <glyph glyph-name="Y" unicode="Y" horiz-adv-x="742" 
d="M515 708q6 12 16.5 21t30.5 9h129q16 0 23 -7.5t-3 -26.5l-248 -481v-357q0 -15 -6 -20t-20 -5h-128q-14 0 -20 5t-6 20v358l-252 480q-10 19 -3 26.5t23 7.5h129q20 0 30.5 -9t16.5 -21l145 -283z" />
    <glyph glyph-name="Z" unicode="Z" horiz-adv-x="741" 
d="M663 -134q0 -15 -6 -20t-20 -5h-521q-20 0 -29 7.5t-9 30.5v92q0 22 6 38.5t16 31.5l333 505v25h-329q-14 0 -20 5t-6 20v117q0 15 6 20t20 5h521q20 0 29 -8t9 -29v-95q0 -15 -3 -29.5t-13 -29.5l-339 -514v-25h329q14 0 20 -5t6 -20v-117z" />
    <glyph glyph-name="bracketleft" unicode="[" horiz-adv-x="480" 
d="M388 -8q14 0 20 -5t6 -20v-117q0 -15 -6 -20t-20 -5h-181q-35 0 -58 7t-37 22t-20 38.5t-6 56.5v702q0 33 6 56.5t20 38.5t37 22t58 7h181q14 0 20 -5t6 -20v-117q0 -15 -6 -20t-20 -5h-114v-616h114z" />
    <glyph glyph-name="backslash" unicode="\" horiz-adv-x="1200" 
d="M655 698q20 0 29 -6.5t12 -22.5l66 -345h117l60 349q3 16 9 20.5t27 4.5h102q17 0 22.5 -7.5t2.5 -24.5l-61 -342h87q14 0 20 -5t6 -20v-117q0 -15 -6 -20t-20 -5h-117l-43 -241q-4 -21 -13 -28t-34 -7h-183q-25 0 -34 7t-13 28l-41 241h-102l-40 -241q-4 -21 -13 -28
t-34 -7h-183q-25 0 -34 7t-13 28l-43 241h-117q-14 0 -20 5t-6 20v117q0 15 6 20t20 5h87l-61 342q-3 17 2.5 24.5t22.5 7.5h102q21 0 27 -4.5t9 -20.5l60 -349h117l66 345q3 16 12 22.5t29 6.5h111zM832 50l18 107h-57l21 -107h18zM385 50l20 107h-57l19 -107h18zM576 324
h45l-22 134z" />
    <glyph glyph-name="bracketright" unicode="]" horiz-adv-x="480" 
d="M206 -8v616h-114q-14 0 -20 5t-6 20v117q0 15 6 20t20 5h181q35 0 58 -7t37 -22t20 -38.5t6 -56.5v-702q0 -33 -6 -56.5t-20 -38.5t-37 -22t-58 -7h-181q-14 0 -20 5t-6 20v117q0 15 6 20t20 5h114z" />
    <glyph glyph-name="asciicircum" unicode="^" horiz-adv-x="620" 
d="M373 775q17 0 28 -7t19 -22l133 -234q10 -17 7 -22.5t-21 -5.5h-130q-14 0 -20.5 5.5t-11.5 14.5l-67 129l-68 -129q-5 -9 -11.5 -14.5t-20.5 -5.5h-130q-18 0 -21 5.5t7 22.5l133 234q8 15 19 22t28 7h127z" />
    <glyph glyph-name="underscore" unicode="_" horiz-adv-x="650" 
d="M45 -17q0 15 6 20t20 5h507q14 0 20 -5t6 -20v-117q0 -15 -6 -20t-20 -5h-507q-14 0 -20 5t-6 20v117z" />
    <glyph glyph-name="grave" unicode="`" horiz-adv-x="380" 
d="M246 449q-12 -8 -20 -7.5t-17 13.5l-162 222q-9 12 -6 19.5t14 15.5l97 66q11 8 19 7.5t16 -13.5l146 -234q8 -13 6 -20t-14 -15z" />
    <glyph glyph-name="a" unicode="a" horiz-adv-x="686" 
d="M593 40q0 -29 4 -42.5t18 -19.5q4 -2 11.5 -6.5t7.5 -21.5v-91q0 -11 -4 -17.5t-10 -10.5t-12.5 -5t-10.5 -1q-32 1 -54.5 4.5t-39.5 9t-31 13.5t-27 17q-32 -13 -66 -23q-29 -8 -64.5 -15t-68.5 -7q-97 0 -145.5 58t-48.5 156q0 55 15 91.5t44 59t71 34t96 15.5l141 9
v32q0 26 -18.5 42.5t-46.5 16.5q-25 0 -54.5 -1t-58.5 -2.5t-56 -3t-46 -2.5h-16t-12.5 4t-8.5 12.5t-3 25.5l-2 64q-1 26 8.5 35t25.5 11q21 3 50 7t61 7.5t64 6t58 2.5q55 0 97.5 -11.5t71.5 -38t44.5 -69t15.5 -104.5v-241zM300 109q-34 -2 -53.5 -16.5t-19.5 -49.5
q0 -69 54 -69q20 0 44 2.5t45 6.5q25 4 49 10v121z" />
    <glyph glyph-name="b" unicode="b" horiz-adv-x="720" 
d="M378 -3q26 0 47 9t35.5 29t22.5 53.5t8 82.5q0 52 -6 87.5t-20.5 58t-40 32.5t-64.5 10q-30 0 -55 -7t-40 -19v-322q29 -8 56.5 -11t56.5 -3zM265 -133q0 -15 -6 -20t-20 -5h-122q-14 0 -20 5t-6 20v872q0 15 6 20t20 5h122q14 0 20 -5t6 -20v-253q25 12 54.5 21.5
t77.5 9.5q64 0 114.5 -15t85 -54t53 -106t18.5 -171q0 -94 -16 -158t-47.5 -103t-80 -56t-112.5 -17q-38 0 -78 8.5t-69 26.5v-5z" />
    <glyph glyph-name="c" unicode="c" horiz-adv-x="567" 
d="M320 504q20 0 45 -2.5t50.5 -5.5t48 -7t38.5 -7q12 -2 19 -8t6 -26l-3 -92q-1 -29 -27 -26q-26 2 -63.5 5t-63.5 3q-47 0 -75.5 -8.5t-45 -28.5t-22 -52t-5.5 -78q0 -52 6 -86.5t22.5 -55.5t45.5 -29.5t76 -8.5q13 0 29.5 1t34 2t34.5 2.5t29 2.5q11 1 17.5 -2t7.5 -25
l3 -91q1 -19 -6 -25.5t-19 -8.5q-17 -3 -40.5 -7t-49 -7.5t-51 -6t-45.5 -2.5q-73 0 -124.5 20t-84 62t-47.5 107.5t-15 157.5q0 87 15.5 149.5t49 103.5t85.5 60.5t125 19.5z" />
    <glyph glyph-name="d" unicode="d" horiz-adv-x="720" 
d="M351 -3q29 0 56.5 3t56.5 11v322q-15 12 -40 19t-55 7q-39 0 -64.5 -10t-40 -32.5t-20.5 -58t-6 -87.5q0 -49 8 -82.5t22.5 -53.5t35.5 -29t47 -9zM464 -128q-29 -18 -69 -26.5t-78 -8.5q-65 0 -113 17t-79.5 56t-47.5 103t-16 158q0 104 18.5 171t53 106t85 54t114.5 15
q48 0 77.5 -9.5t54.5 -21.5v253q0 15 6 20t20 5h122q14 0 20 -5t6 -20v-872q0 -15 -6 -20t-20 -5h-122q-14 0 -20 5t-6 20v5z" />
    <glyph glyph-name="e" unicode="e" horiz-adv-x="659" 
d="M352 -16q29 0 60 1t60 2.5t53.5 3.5t41.5 3q12 1 18.5 -2.5t7.5 -26.5l1 -77q0 -20 -6.5 -25t-19.5 -8q-18 -4 -45.5 -9.5t-60 -10t-68 -8t-69.5 -3.5q-74 0 -126.5 19t-87 59.5t-50.5 103t-16 150.5q0 174 72.5 261t215.5 87q144 0 213.5 -72t69.5 -220v-82
q0 -23 -8 -31.5t-30 -8.5h-357q1 -57 31 -81.5t100 -24.5zM445 223q0 70 -25 98.5t-87 28.5q-63 0 -87.5 -31t-25.5 -96h225z" />
    <glyph glyph-name="f" unicode="f" horiz-adv-x="470" 
d="M22 449q0 15 6 20t20 5h64v30q0 70 9.5 117t32 75t59 40t89.5 12q12 0 28.5 -1.5t34.5 -3.5t35 -4.5t29 -4.5q15 -3 18 -8t3 -16l-2 -100q0 -11 -4.5 -15.5t-16.5 -4.5q-16 0 -37 1t-41 1q-38 0 -50.5 -20.5t-12.5 -69.5v-28h132q14 0 20 -5t6 -20v-117q0 -15 -6 -20
t-20 -5h-132v-441q0 -15 -6 -20t-20 -5h-122q-14 0 -20 5t-6 20v441h-64q-14 0 -20 5t-6 20v117z" />
    <glyph glyph-name="g" unicode="g" horiz-adv-x="699" 
d="M359 -472q-71 0 -129 8t-99 29.5t-63.5 59t-22.5 97.5q0 45 22 81.5t71 74.5q-22 14 -34.5 40.5t-12.5 56.5q0 12 7.5 29.5t17.5 34.5q11 19 26 40q-17 12 -33 28t-28.5 39t-20 54t-7.5 73q0 63 21.5 107t58 71t86.5 39.5t107 12.5q28 0 60 -3t72 -14l171 3q16 0 22.5 -7
t6.5 -24v-81q0 -15 -5.5 -20.5t-22.5 -5.5h-54q8 -14 15 -31.5t7 -46.5q0 -68 -18 -112.5t-52.5 -70.5t-85.5 -36t-118 -10q-11 0 -28 1.5t-26 3.5q-4 -10 -7 -19q-2 -8 -4 -16.5t-2 -14.5q0 -13 4 -21t17.5 -13t38.5 -7t66 -2q83 0 137.5 -10.5t87 -33.5t46 -60.5
t13.5 -92.5q0 -62 -24.5 -106t-66.5 -72t-98 -40.5t-119 -12.5zM369 -195q-14 0 -33.5 1t-38.5 3q-22 2 -45 5q-17 -17 -26 -33.5t-9 -40.5q0 -56 143 -56q64 0 97.5 15t33.5 50q0 18 -5.5 29t-19.5 17t-37.5 8t-59.5 2zM324 190q53 0 77.5 17.5t24.5 65.5q0 40 -24 61
t-77 21t-75.5 -23.5t-22.5 -58.5q0 -43 21.5 -63t75.5 -20z" />
    <glyph glyph-name="h" unicode="h" horiz-adv-x="729" 
d="M655 -134q0 -15 -6 -20t-20 -5h-122q-14 0 -20 5t-6 20v316q0 36 -3.5 66t-13 51t-27.5 32.5t-47 11.5q-30 0 -61.5 -4.5t-63.5 -11.5v-461q0 -15 -6 -20t-20 -5h-122q-14 0 -20 5t-6 20v847q0 15 6 20t20 5h122q14 0 20 -5t6 -20v-242q40 12 79.5 23t81.5 11
q68 0 112.5 -21t70.5 -62t36 -101.5t10 -138.5v-316z" />
    <glyph glyph-name="i" unicode="i" horiz-adv-x="348" 
d="M113 -160q-14 0 -20 5t-6 20v586q0 15 6 20t20 5h127q14 0 20 -5t6 -20v-586q0 -15 -6 -20t-20 -5h-127zM113 560q-14 0 -20 5t-6 20v128q0 15 6 20t20 5h127q14 0 20 -5t6 -20v-128q0 -15 -6 -20t-20 -5h-127z" />
    <glyph glyph-name="j" unicode="j" horiz-adv-x="352" 
d="M113 560q-14 0 -20 5t-6 20v128q0 15 6 20t20 5h127q14 0 20 -5t6 -20v-128q0 -15 -6 -20t-20 -5h-127zM266 -174q0 -63 -10 -107.5t-33.5 -78.5t-62 -63.5t-95.5 -62.5q-16 -9 -26 -8t-18 16l-55 102q-7 12 -4 17.5t11 10.5q37 20 59.5 36.5t34.5 35.5t16 43.5t4 60.5
v623q0 15 6 20t20 5h127q14 0 20 -5t6 -20v-625z" />
    <glyph glyph-name="k" unicode="k" horiz-adv-x="673" 
d="M265 -134q0 -15 -6 -20t-20 -5h-122q-14 0 -20 5t-6 20v847q0 15 6 20t20 5h122q14 0 20 -5t6 -20v-470l67 13l116 211q6 11 14.5 17t23.5 6h134q17 0 21.5 -8.5t-3.5 -23.5l-150 -275l157 -305q11 -20 6 -28.5t-26 -8.5h-122q-22 0 -32 6.5t-18 20.5l-118 217l-70 -13
v-206z" />
    <glyph glyph-name="l" unicode="l" horiz-adv-x="348" 
d="M113 -159q-14 0 -20 5t-6 20v847q0 15 6 20t20 5h127q14 0 20 -5t6 -20v-847q0 -15 -6 -20t-20 -5h-127z" />
    <glyph glyph-name="m" unicode="m" horiz-adv-x="1101" 
d="M468 174q0 44 -3 75.5t-12.5 52t-27.5 30.5t-48 10q-17 0 -36.5 -3.5t-37.5 -7.5q-21 -5 -42 -11v-455q0 -15 -6 -20t-20 -5h-122q-14 0 -20 5t-6 20v599q0 15 6 20t20 5h121q14 0 20 -5t6 -20v-7q13 6 27 12q12 5 28 11.5t33 12.5q17 5 34 8t31 3q55 0 94 -13.5
t65 -39.5q50 19 109.5 36t112.5 17q66 0 110.5 -19.5t70.5 -59.5t37 -101t11 -145v-314q0 -15 -6 -20t-20 -5h-122q-14 0 -20 5t-6 20v243q0 61 -1 105.5t-9.5 73t-27 42t-53.5 13.5q-20 0 -41 -4t-39 -9q-21 -5 -41 -12q1 -25 2 -51q1 -22 2 -46t1 -43v-312q0 -15 -6 -20
t-20 -5h-122q-14 0 -20 5t-6 20v309v0z" />
    <glyph glyph-name="n" unicode="n" horiz-adv-x="729" 
d="M477 179q0 37 -3.5 67t-13 51.5t-27.5 33t-47 11.5q-17 0 -38 -3.5t-41 -7.5q-23 -5 -46 -11v-455q0 -15 -6 -20t-20 -5h-122q-14 0 -20 5t-6 20v599q0 15 6 20t20 5h122q13 0 19.5 -4.5t6.5 -18.5v-6q6 3 23.5 10t40.5 14.5t48.5 13.5t48.5 6q68 0 112.5 -21t70.5 -62.5
t36 -102t10 -139.5v-314q0 -15 -6 -20t-20 -5h-122q-14 0 -20 5t-6 20v314z" />
    <glyph glyph-name="o" unicode="o" horiz-adv-x="689" 
d="M344 504q85 0 142.5 -25t92 -69.5t49.5 -107t15 -137.5t-15 -137.5t-49.5 -108t-92 -70.5t-142.5 -25t-142 25t-92 70.5t-50 108t-15 137.5t15 137.5t50 107t92 69.5t142 25zM344 -18q36 0 60 11.5t38 35t19.5 57.5t5.5 79t-5.5 79t-19.5 57t-38 34.5t-60 11.5
q-72 0 -97 -46t-25 -136t25 -136.5t97 -46.5z" />
    <glyph glyph-name="p" unicode="p" horiz-adv-x="710" 
d="M374 344q-17 0 -36.5 -3.5t-36.5 -8.5q-20 -5 -40 -12v-332q17 -2 34 -3q14 -2 30.5 -2.5t30.5 -0.5q39 0 64.5 10t40 32.5t20.5 58t6 87.5q0 49 -8 82.5t-22.5 53.5t-35.5 29t-47 9zM261 459q23 12 49 22q22 8 48 15.5t50 7.5q64 0 112.5 -17t80 -56t47.5 -103t16 -158
q0 -104 -18 -171t-55 -106t-92 -54t-130 -15q-18 0 -37 1.5t-35 3.5l-36 6v-243q0 -15 -6 -20t-20 -5h-122q-14 0 -20 5t-6 20v872q0 15 6 20t20 5h122q14 0 20 -5t6 -20v-5z" />
    <glyph glyph-name="q" unicode="q" horiz-adv-x="710" 
d="M351 344q-26 0 -47 -9t-35.5 -29t-22.5 -53.5t-8 -82.5q0 -52 6 -87.5t20.5 -58t40 -32.5t64.5 -10q14 0 30.5 0.5t30.5 2.5q17 1 34 3v332q-20 7 -40 12q-17 5 -36.5 8.5t-36.5 3.5zM464 464q0 15 6 20t20 5h122q14 0 20 -5t6 -20v-872q0 -15 -6 -20t-20 -5h-122
q-14 0 -20 5t-6 20v243l-36 -6q-16 -2 -35 -3.5t-37 -1.5q-75 0 -130 15t-92 54t-55 106t-18 171q0 94 16 158t47.5 103t79.5 56t113 17q24 0 49.5 -7.5t47.5 -15.5q26 -10 50 -22v5z" />
    <glyph glyph-name="r" unicode="r" horiz-adv-x="530" 
d="M113 -160q-14 0 -20 5t-6 20v599q0 15 6 20t20 5h127q14 0 20 -5t6 -20v-32q12 5 33 13t47 17t55.5 18.5t59.5 16.5q4 1 9.5 1.5t10 -2t8 -9.5t3.5 -20v-116q0 -13 -3.5 -20.5t-9 -12t-11 -6t-9.5 -2.5q-30 -6 -59.5 -13t-55 -13.5t-46 -12t-32.5 -8.5v-398q0 -15 -6 -20
t-20 -5h-127z" />
    <glyph glyph-name="s" unicode="s" horiz-adv-x="646" 
d="M564 360q0 -13 -2 -19.5t-6 -9.5t-9.5 -3t-11.5 1q-19 2 -46 5t-56.5 6t-57.5 5t-49 2q-56 0 -73.5 -12.5t-17.5 -38.5q0 -11 5.5 -18.5t19 -13t37.5 -10.5t60 -11q65 -10 108.5 -25.5t70 -39.5t38 -59t11.5 -84q0 -57 -18 -97t-52 -65.5t-83 -37t-110 -11.5
q-26 0 -56.5 3t-60.5 7t-56.5 8.5t-45.5 7.5q-14 3 -22 8.5t-7 29.5l3 83q1 31 26 28l45 -5t55.5 -5.5t55.5 -4.5t46 -2q63 0 84.5 11.5t21.5 37.5q0 11 -4 18.5t-15 13.5t-32 11.5t-55 11.5q-63 10 -109 24t-76 37t-44.5 58t-14.5 87q0 57 20 97t54.5 65.5t80.5 37.5t97 12
q26 0 57.5 -3t62.5 -7t59 -9t46 -8q13 -2 20.5 -8t6.5 -31z" />
    <glyph glyph-name="t" unicode="t" horiz-adv-x="505" 
d="M310 489h134q14 0 20 -5t6 -20v-117q0 -15 -6 -20t-20 -5h-134v-236q0 -24 1 -42t6 -30t16 -17.5t32 -5.5h37.5t37.5 1q11 0 17.5 -2.5t7.5 -21.5l6 -98q1 -20 -5.5 -24.5t-16.5 -6.5q-11 -2 -25 -5t-29 -5t-29.5 -3.5t-26.5 -1.5q-59 0 -98 12.5t-62.5 41t-33 76
t-9.5 117.5v251h-91q-14 0 -20 5t-6 20v117q0 15 6 20t20 5h91v157q0 15 6 20t20 5h122q14 0 20 -5t6 -20v-157z" />
    <glyph glyph-name="u" unicode="u" horiz-adv-x="729" 
d="M252 150q0 -37 3 -67t13 -51.5t28 -33t47 -11.5q16 0 37.5 3t41.5 8q23 4 46 11v455q0 15 6 20t20 5h122q14 0 20 -5t6 -20v-599q0 -15 -6 -20t-20 -5h-122q-14 0 -20 5t-6 20v4q-29 -12 -58 -22q-25 -8 -52.5 -15t-50.5 -7q-68 0 -112.5 21t-70.5 62.5t-36 102
t-10 139.5v314q0 15 6 20t20 5h122q14 0 20 -5t6 -20v-314v0z" />
    <glyph glyph-name="v" unicode="v" horiz-adv-x="629" 
d="M431 458q5 20 12 25.5t29 5.5h110q21 0 27.5 -7.5t1.5 -28.5l-132 -564q-2 -9 -5 -17.5t-9.5 -15.5t-17.5 -11t-29 -4h-207q-18 0 -29 4t-17.5 11t-9.5 15.5t-5 17.5l-132 564q-5 21 1.5 28.5t27.5 7.5h110q22 0 29 -5.5t12 -25.5l100 -473h33z" />
    <glyph glyph-name="w" unicode="w" horiz-adv-x="975" 
d="M526 478q32 1 43.5 -9.5t17.5 -38.5l88 -432h32l74 461q3 20 11 25.5t30 5.5h99q21 0 27 -7.5t2 -28.5l-104 -565q-5 -28 -17 -38t-44 -10h-172q-32 0 -44 10t-17 38l-65 350l-65 -350q-5 -28 -17 -38t-44 -10h-172q-32 0 -44 10t-17 38l-104 565q-4 21 2 28.5t27 7.5h99
q22 0 30 -5.5t11 -25.5l74 -461h32l88 432q6 28 17.5 38t43.5 10h78z" />
    <glyph glyph-name="x" unicode="x" horiz-adv-x="650" 
d="M211 165l-168 291q-8 14 -2.5 24t23.5 10h117q17 0 26.5 -6t17.5 -20l99 -175l100 175q8 14 17.5 20t26.5 6h117q18 0 23.5 -10t-2.5 -24l-169 -291l169 -290q8 -14 2.5 -24t-23.5 -10h-117q-17 0 -26.5 6t-17.5 20l-100 173l-99 -173q-8 -14 -17.5 -20t-26.5 -6h-117
q-18 0 -23.5 10t2.5 24z" />
    <glyph glyph-name="y" unicode="y" horiz-adv-x="630" 
d="M148 489q20 0 29 -8t13 -25l110 -446h30l109 444q9 35 50 35h95q21 0 26.5 -8t0.5 -27l-211 -858q-4 -16 -12.5 -22t-22.5 -6h-105q-17 0 -27 6.5t-5 24.5l59 241h-79q-18 0 -29.5 6.5t-16.5 26.5l-143 578q-5 19 1 28.5t29 9.5h99z" />
    <glyph glyph-name="z" unicode="z" horiz-adv-x="620" 
d="M101 -159q-20 0 -26 7t-6 25v96q0 29 16 49l257 316h-247q-14 0 -20 5t-6 20v107q0 15 6 20t20 5h424q18 0 25 -5t7 -26v-103q0 -17 -4.5 -25.5t-12.5 -18.5l-256 -315h247q14 0 20 -5t6 -20v-107q0 -15 -6 -20t-20 -5h-424z" />
    <glyph glyph-name="braceleft" unicode="{" horiz-adv-x="500" 
d="M61 341q0 12 5.5 18t17.5 9q58 13 78.5 38t20.5 62q0 25 -3 61t-3 68q0 55 17 88.5t49.5 52.5t80.5 26t111 9q14 0 18.5 -4.5t4.5 -16.5v-117q0 -11 -4 -14t-15 -3q-45 0 -59 -11.5t-14 -30.5q0 -29 3 -62t3 -59q0 -36 -7 -61t-22.5 -43t-40 -31t-60.5 -24
q36 -11 60.5 -24t40 -31t22.5 -43t7 -61q0 -26 -3 -59t-3 -62q0 -19 14 -30.5t59 -11.5q11 0 15 -3t4 -14v-117q0 -12 -4.5 -16.5t-18.5 -4.5q-63 1 -111 8.5t-80.5 26.5t-49.5 52.5t-17 88.5q0 32 3 68t3 61q0 37 -20.5 61.5t-78.5 38.5q-12 3 -17.5 9t-5.5 18v90z" />
    <glyph glyph-name="bar" unicode="|" horiz-adv-x="400" 
d="M136 -175q-14 0 -20 5t-6 20v900q0 15 6 20t20 5h127q14 0 20 -5t6 -20v-900q0 -15 -6 -20t-20 -5h-127z" />
    <glyph glyph-name="braceright" unicode="}" horiz-adv-x="500" 
d="M438 251q0 -12 -5.5 -18t-17.5 -9q-29 -7 -48.5 -16.5t-30.5 -22t-15.5 -28t-4.5 -33.5q0 -25 3 -61t3 -68q0 -55 -17 -88.5t-49.5 -52.5t-80.5 -26.5t-111 -8.5q-14 0 -18.5 4.5t-4.5 16.5v117q0 11 4 14t15 3q45 0 59 11.5t14 30.5q0 29 -3 62t-3 59q0 36 7 61t22.5 43
t40 31t60.5 24q-36 11 -60.5 24t-40 31t-22.5 43t-7 61q0 26 3 59t3 62q0 19 -14 30.5t-59 11.5q-11 0 -15 3t-4 14v117q0 12 4.5 16.5t18.5 4.5q63 -2 111 -9t80.5 -26t49.5 -52.5t17 -88.5q0 -32 -3 -68t-3 -61q0 -18 4.5 -33.5t15.5 -28t30.5 -22t48.5 -16.5
q12 -3 17.5 -9t5.5 -18v-90z" />
    <glyph glyph-name="asciitilde" unicode="~" horiz-adv-x="680" 
d="M626 257q2 -19 -1 -29.5t-14 -21.5q-10 -9 -27 -19.5t-38 -20.5t-44 -16.5t-45 -6.5q-26 0 -58.5 9t-65 19.5t-62 19.5t-47.5 9q-14 0 -31.5 -4.5t-35.5 -11t-34.5 -14.5t-26.5 -14q-17 -11 -25 -6t-10 28l-8 94q-1 13 2 25t16 21q10 7 28 18t40 21t46.5 17t48.5 7
q25 0 55.5 -9t61.5 -19.5t60.5 -19.5t53.5 -9q11 0 27.5 4t33.5 10t33 13.5t26 14.5q19 12 26 5.5t9 -27.5z" />
    <glyph glyph-name="uni3001" unicode="&#x3001;" horiz-adv-x="940" 
d="M53 16v126l256 -102v-188z" />
    <glyph glyph-name="uni3002" unicode="&#x3002;" horiz-adv-x="940" 
d="M320 0q0 -27 -9.5 -50t-26.5 -40t-40.5 -26.5t-50.5 -9.5q-26 0 -49 9.5t-40.5 26.5t-27.5 40t-10 50q0 28 10 51.5t27.5 40.5t40.5 26t49 9t49 -9.5t40.5 -26.5t27.5 -40t10 -51zM236 0q0 21 -12 34t-31 13t-31 -13t-12 -34t12 -33.5t31 -12.5t31 12.5t12 33.5z" />
    <glyph glyph-name="periodcentered" unicode="&#xb7;" horiz-adv-x="300" 
d="M230 221h-161v161h161v-161z" />
    <glyph glyph-name="twodotenleader" unicode="&#x2025;" horiz-adv-x="800" 
d="M309 221h-161v161h161v-161zM650 221h-161v161h161v-161z" />
    <glyph glyph-name="ellipsis" unicode="&#x2026;" horiz-adv-x="800" 
d="M212 221h-161v161h161v-161zM477 221h-161v161h161v-161zM747 221h-161v161h161v-161z" />
    <glyph glyph-name="dieresis" unicode="&#xa8;" horiz-adv-x="520" 
d="M227 531h-151v151h151v-151zM442 531h-152v151h152v-151z" />
    <glyph glyph-name="uni3003" unicode="&#x3003;" horiz-adv-x="940" 
d="M348 116h-92l95 349h155zM533 116h-92l95 349h155z" />
    <glyph glyph-name="uni00AD" unicode="&#xad;" horiz-adv-x="500" 
d="M82 365h337v-129h-337v129z" />
    <glyph glyph-name="uniFF3C" unicode="&#xff3c;" horiz-adv-x="940" 
d="M838 -98l-95 -69l-646 862l95 66z" />
    <glyph glyph-name="similar" unicode="&#x223c;" horiz-adv-x="940" 
d="M829 317q-62 -51 -116.5 -77.5t-118.5 -26.5q-37 0 -78.5 13.5t-80.5 36.5q-23 12 -48 21t-47 9q-42 0 -80 -18.5t-89 -56.5l-64 76q34 28 63 49t57 35t55.5 21t57.5 7q35 0 74.5 -11.5t75.5 -31.5q29 -16 56 -25.5t48 -9.5q48 0 89 12t90 42z" />
    <glyph glyph-name="quoteleft" unicode="&#x2018;" horiz-adv-x="320" 
d="M66 611q0 36 9.5 67t31.5 55t58 40.5t89 22.5v-37q-11 -2 -22 -9.5t-21 -22.5t-16.5 -39t-7.5 -58h39q14 0 20 -5t6 -20v-125q0 -15 -6 -20t-20 -5h-134q-14 0 -20 5t-6 20v131z" />
    <glyph glyph-name="quoteright" unicode="&#x2019;" horiz-adv-x="320" 
d="M254 639q0 -36 -9.5 -67t-31.5 -55t-58 -40.5t-89 -22.5v37q10 2 21.5 9.5t21.5 22.5t16.5 38.5t7.5 58.5h-39q-14 0 -20 5t-6 20v125q0 15 6 20t20 5h134q14 0 20 -5t6 -20v-131z" />
    <glyph glyph-name="quotedblleft" unicode="&#x201c;" horiz-adv-x="577" 
d="M71 611q0 36 9.5 67t31.5 55t58 40.5t89 22.5v-37q-11 -2 -22 -9.5t-21 -22.5t-16.5 -39t-7.5 -58h39q14 0 20 -5t6 -20v-125q0 -15 -6 -20t-20 -5h-134q-14 0 -20 5t-6 20v131zM320 611q0 36 9.5 67t31.5 55t58 40.5t89 22.5v-37q-11 -2 -22 -9.5t-21 -22.5t-16.5 -39
t-7.5 -58h39q14 0 20 -5t6 -20v-125q0 -15 -6 -20t-20 -5h-134q-14 0 -20 5t-6 20v131z" />
    <glyph glyph-name="quotedblright" unicode="&#x201d;" horiz-adv-x="577" 
d="M506 639q0 -36 -9.5 -67t-31.5 -55t-58 -40.5t-89 -22.5v37q10 2 21.5 9.5t21.5 22.5t16.5 38.5t7.5 58.5h-39q-14 0 -20 5t-6 20v125q0 15 6 20t20 5h134q14 0 20 -5t6 -20v-131zM257 639q0 -36 -9.5 -67t-31.5 -55t-58 -40.5t-89 -22.5v37q10 2 21.5 9.5t21.5 22.5
t16.5 38.5t7.5 58.5h-39q-14 0 -20 5t-6 20v125q0 15 6 20t20 5h134q14 0 20 -5t6 -20v-131z" />
    <glyph glyph-name="uni3014" unicode="&#x3014;" horiz-adv-x="500" 
d="M420 -70l-48 -109l-250 106v747l251 107l47 -107l-155 -70v-607z" />
    <glyph glyph-name="uni3015" unicode="&#x3015;" horiz-adv-x="500" 
d="M245 -3v607l-155 70l47 107l251 -107v-747l-250 -106l-48 109z" />
    <glyph glyph-name="uni3008" unicode="&#x3008;" horiz-adv-x="550" 
d="M236 300l294 -357l-98 -77l-356 434l357 434l97 -78z" />
    <glyph glyph-name="uni3009" unicode="&#x3009;" horiz-adv-x="550" 
d="M17 656l97 78l357 -434l-356 -434l-98 77l294 357z" />
    <glyph glyph-name="uni300A" unicode="&#x300a;" horiz-adv-x="600" 
d="M172 300l248 -378l-98 -56l-286 434l286 433l93 -53zM346 300l248 -378l-98 -56l-286 434l286 433l93 -53z" />
    <glyph glyph-name="uni300B" unicode="&#x300b;" horiz-adv-x="600" 
d="M195 680l93 53l286 -433l-286 -434l-98 56l248 378zM21 680l93 53l286 -433l-286 -434l-98 56l248 378z" />
    <glyph glyph-name="uni300C" unicode="&#x300c;" horiz-adv-x="450" 
d="M413 628h-172v-325h-155v449h327v-124z" />
    <glyph glyph-name="uni300D" unicode="&#x300d;" horiz-adv-x="450" 
d="M36 -28h172v335h155v-459h-327v124z" />
    <glyph glyph-name="uni300E" unicode="&#x300e;" horiz-adv-x="450" 
d="M413 599h-158v-296h-168v448h326v-152zM341 663v20h-183v-312h24v292h159z" />
    <glyph glyph-name="uni300F" unicode="&#x300f;" horiz-adv-x="450" 
d="M36 4h158v305h169v-460h-327v155zM108 -63v-20h183v324h-24v-304h-159z" />
    <glyph glyph-name="uni3010" unicode="&#x3010;" horiz-adv-x="460" 
d="M85 -136v873h387q-51 -42 -88.5 -93t-61.5 -107t-35.5 -115.5t-11.5 -119.5t11 -120t35 -116.5t62 -107.5t91 -94h-389z" />
    <glyph glyph-name="uni3011" unicode="&#x3011;" horiz-adv-x="460" 
d="M-15 -136q53 43 91 94t62 107.5t35 116.5t11 120t-11.5 119.5t-35.5 115.5t-61.5 107t-88.5 93h387v-873h-389z" />
    <glyph glyph-name="plusminus" unicode="&#xb1;" horiz-adv-x="660" 
d="M406 454h171v-129h-171v-181h-152v181h-169v129h169v180h152v-180zM85 -23v126h490v-126h-490z" />
    <glyph glyph-name="multiply" unicode="&#xd7;" horiz-adv-x="720" 
d="M464 283l198 -233q16 -19 11 -30.5t-26 -11.5h-137q-14 0 -23 5.5t-21 19.5l-107 126l-106 -126q-12 -14 -21 -19.5t-23 -5.5h-137q-21 0 -26 11.5t11 30.5l197 233l-197 233q-16 19 -11 30.5t26 11.5h137q14 0 23 -5.5t21 -19.5l106 -126l107 126q12 14 21 19.5t23 5.5
h137q21 0 26 -11.5t-11 -30.5z" />
    <glyph glyph-name="divide" unicode="&#xf7;" horiz-adv-x="700" 
d="M283 407q-14 0 -20 5t-6 20v126q0 15 6 20t20 5h134q14 0 20 -5t6 -20v-126q0 -15 -6 -20t-20 -5h-134zM283 -14q-14 0 -20 5t-6 20v126q0 15 6 20t20 5h134q14 0 20 -5t6 -20v-126q0 -15 -6 -20t-20 -5h-134zM65 339q0 15 6 20t20 5h517q14 0 20 -5t6 -20v-107
q0 -15 -6 -20t-20 -5h-517q-14 0 -20 5t-6 20v107z" />
    <glyph glyph-name="notequal" unicode="&#x2260;" horiz-adv-x="740" 
d="M470 458h200v-122h-232l-18 -72h250v-121h-282l-32 -126h-150l32 126h-169v121h200l18 72h-218v122h250l29 114h152z" />
    <glyph glyph-name="lessequal" unicode="&#x2264;" horiz-adv-x="700" 
d="M78 349v88l546 210v-140l-311 -114l311 -116v-137zM75 -4v126h549v-126h-549z" />
    <glyph glyph-name="greaterequal" unicode="&#x2265;" horiz-adv-x="700" 
d="M75 140v137l311 116l-311 114v140l546 -210v-88zM75 -4v126h549v-126h-549z" />
    <glyph glyph-name="infinity" unicode="&#x221e;" horiz-adv-x="800" 
d="M744 327q0 -39 -12.5 -72t-36 -57t-56.5 -38t-73 -14q-45 0 -90 24t-75 62q-29 -36 -71 -59t-98 -23q-41 0 -74 13.5t-56.5 37.5t-36 57t-12.5 72t13.5 72t38 57t58.5 37t75 13q47 0 87.5 -24t72.5 -62q29 38 74 62t93 24q42 0 75 -13.5t56 -37.5t35.5 -57.5t12.5 -73.5z
M623 328q0 14 -4.5 27.5t-12.5 24t-18 17t-22 6.5q-26 0 -52 -23t-45 -55q18 -32 43 -52t53 -20q27 0 42.5 22.5t15.5 52.5zM233 255q27 0 52 19t45 52q-18 31 -42.5 54t-51.5 23q-25 0 -42.5 -21.5t-17.5 -50.5q0 -30 15.5 -53t41.5 -23z" />
    <glyph glyph-name="therefore" unicode="&#x2234;" horiz-adv-x="940" 
d="M560 516q0 -20 -7 -36.5t-19.5 -29.5t-29.5 -20t-36 -7t-36 7t-29.5 20t-19.5 29.5t-7 36.5q0 19 7 36t19.5 29.5t29.5 19.5t36 7t36 -7t29.5 -19.5t19.5 -29.5t7 -36zM328 116q0 -20 -7 -36.5t-19.5 -29.5t-29.5 -20t-36 -7t-36 7t-29.5 20t-19.5 29.5t-7 36.5
q0 19 7 36t19.5 29.5t29.5 19.5t36 7t36 -7t29.5 -19.5t19.5 -29.5t7 -36zM793 116q0 -20 -7 -36.5t-19.5 -29.5t-29.5 -20t-36 -7t-36 7t-29.5 20t-19.5 29.5t-7 36.5q0 19 7 36t19.5 29.5t29.5 19.5t36 7t36 -7t29.5 -19.5t19.5 -29.5t7 -36z" />
    <glyph glyph-name="degree" unicode="&#xb0;" horiz-adv-x="420" 
d="M341 621q0 -28 -10.5 -52t-28.5 -41.5t-42 -27.5t-50 -10t-50 10t-42 27.5t-29 41.5t-11 52t11 52t29 41.5t42 27.5t50 10t50 -10t42 -27.5t28.5 -41.5t10.5 -52zM245 621q0 18 -10.5 28.5t-24.5 10.5q-15 0 -25.5 -10.5t-10.5 -28.5q0 -19 10.5 -29.5t25.5 -10.5
q14 0 24.5 10.5t10.5 29.5z" />
    <glyph glyph-name="minute" unicode="&#x2032;" horiz-adv-x="340" 
d="M158 453h-109l102 268h163z" />
    <glyph glyph-name="second" unicode="&#x2033;" horiz-adv-x="540" 
d="M153 454h-105l103 267h159zM333 454h-106l108 267h158z" />
    <glyph glyph-name="uni2103" unicode="&#x2103;" horiz-adv-x="990" 
d="M916 -104q1 -20 -3.5 -28t-23.5 -13q-18 -5 -45.5 -10t-59 -9t-64 -7t-60.5 -3q-102 0 -168 28t-103.5 83.5t-52 138t-14.5 192.5q0 119 17.5 203t57.5 136.5t104.5 76.5t158.5 24q31 0 64.5 -3.5t65 -8.5t58.5 -10.5t45 -9.5q12 -3 19 -8.5t6 -29.5l-4 -79
q-1 -20 -10 -27t-23 -5q-19 2 -43.5 4.5t-50.5 5t-50.5 4t-43.5 1.5q-51 0 -85.5 -12.5t-55.5 -43.5t-29.5 -84t-8.5 -134q0 -76 7 -128.5t27.5 -85t56.5 -47t93 -14.5q17 0 40.5 2t48.5 4.5t49 5t43 4.5q21 2 27.5 -2.5t7.5 -21.5zM191 785q31 0 55 -10t41 -27t26 -40
t9 -49q0 -27 -9 -50.5t-25.5 -41t-41 -27.5t-55.5 -10t-55.5 10t-41 27.5t-25.5 41t-9 50.5q0 26 9 49t26 40t41 27t55 10zM191 628q14 0 23 8.5t9 22.5q0 15 -9 22.5t-23 7.5t-23 -7.5t-9 -22.5q0 -14 9 -22.5t23 -8.5z" />
    <glyph glyph-name="uni212B" unicode="&#x212b;" horiz-adv-x="600" 
d="M390 87h-179l-49 -138h-161l225 612h147l226 -611h-160zM400 684q0 -23 -8.5 -41t-23 -30t-32.5 -18.5t-37 -6.5t-37.5 6.5t-32.5 18.5t-23 30t-9 41t9 41t23 30t32.5 18.5t37.5 6.5t37 -6.5t32.5 -18.5t23 -30t8.5 -41zM255 212h90l-45 127zM318 684q0 8 -5.5 13
t-12.5 5q-9 0 -14 -5t-5 -13q0 -18 19 -18q7 0 12.5 5t5.5 13z" />
    <glyph glyph-name="uniFFE0" unicode="&#xffe0;" horiz-adv-x="480" 
d="M232 33q-45 9 -82 29.5t-63.5 54t-41 80.5t-14.5 109q0 60 14.5 106t41 79t63.5 54t82 30v94h124v-89q21 -3 43.5 -10t51.5 -21l-35 -123q-17 7 -31.5 12.5t-28.5 9.5v-282q15 3 32.5 8t38.5 12l25 -122q-28 -12 -50.5 -20t-45.5 -13v-86h-124v88zM186 311
q0 -50 12.5 -80.5t33.5 -47.5v247q-21 -17 -33.5 -45.5t-12.5 -73.5z" />
    <glyph glyph-name="uniFFE1" unicode="&#xffe1;" horiz-adv-x="540" 
d="M286 365h150v-132h-150q-2 -42 -9.5 -80.5t-27.5 -72.5h258v-132h-474v108q30 15 48 34.5t28.5 42t14.5 48t5 52.5h-91v132h91v78q0 121 58 179t171 58q28 0 47.5 -3t35 -8t28 -12.5t26.5 -16.5l-36 -127q-29 19 -50.5 29t-50.5 10q-23 0 -37 -6t-21.5 -18.5t-10.5 -32
t-3 -45.5v-85z" />
    <glyph glyph-name="uniFFE5" unicode="&#xffe5;" horiz-adv-x="600" 
d="M381 75v-134h-165v134h-155v124h155v33h-155v124h111l-179 324h175l131 -259l135 259h175l-183 -324h114v-124h-159v-33h159v-124h-159z" />
    <glyph glyph-name="male" unicode="&#x2642;" horiz-adv-x="630" 
d="M380 329q42 -11 74 -33.5t54 -53t33 -66.5t11 -74q0 -52 -19 -95t-51.5 -74.5t-75.5 -49t-92 -17.5q-48 0 -91 17.5t-75 49t-51 75t-19 94.5q0 37 10.5 72.5t31 66t51.5 53.5t72 34v159l-84 -95l-87 80l242 273l222 -273l-90 -89l-66 88v-142zM416 103q0 48 -26.5 81
t-74.5 33q-47 0 -74 -32.5t-27 -81.5q0 -51 27 -83t74 -32q48 0 74.5 33t26.5 82z" />
    <glyph glyph-name="female" unicode="&#x2640;" horiz-adv-x="630" 
d="M551 496q0 -80 -44.5 -139.5t-120.5 -84.5v-92h161v-127h-161v-184h-145v184h-157v127h157v92q-78 21 -120.5 82t-42.5 142q0 51 17 94.5t48 75t74.5 49t96.5 17.5t97 -18t75 -49.5t48 -74.5t17 -94zM412 496q0 50 -27 81.5t-71 31.5q-43 0 -70.5 -31t-27.5 -82
q0 -54 27.5 -84t70.5 -30q44 0 71 31.5t27 82.5z" />
    <glyph glyph-name="angle" unicode="&#x2220;" horiz-adv-x="800" 
d="M83 -32v82l483 559l106 -79l-368 -437h417v-125h-638z" />
    <glyph glyph-name="perpendicular" unicode="&#x22a5;" horiz-adv-x="800" 
d="M59 -38v126h262v485h157v-485h261v-126h-680z" />
    <glyph glyph-name="uni2312" unicode="&#x2312;" horiz-adv-x="540" 
d="M270 643q-23 0 -40 -12.5t-31 -44.5h-149q27 95 81 135.5t139 40.5t138.5 -40.5t80.5 -135.5h-149q-14 32 -30.5 44.5t-39.5 12.5z" />
    <glyph glyph-name="partialdiff" unicode="&#x2202;" horiz-adv-x="600" 
d="M99 614q53 22 88.5 29.5t73.5 7.5q72 0 126 -28t90 -76t54.5 -113t18.5 -140q0 -84 -20.5 -153t-58 -118.5t-90.5 -76.5t-118 -27q-56 0 -96 19t-66 51t-38.5 74t-12.5 89q0 62 18 112t50 85t76.5 54t98.5 19q30 0 59.5 -7t52.5 -22q-11 36 -27.5 61t-37 40t-44 22
t-46.5 7q-20 0 -48 -6.5t-67 -23.5zM269 45q24 0 44 13t36 36t26.5 54.5t15.5 68.5q2 5 0.5 11t-3.5 11q-10 26 -30 43.5t-45 17.5q-47 0 -75 -33t-34 -90q-2 -21 -0.5 -44.5t8.5 -43t21 -32t36 -12.5z" />
    <glyph glyph-name="gradient" unicode="&#x2207;" horiz-adv-x="940" 
d="M89 602h759l-375 -665zM675 509h-343l174 -307z" />
    <glyph glyph-name="equivalence" unicode="&#x2261;" horiz-adv-x="840" 
d="M119 400v126h600v-126h-600zM119 239v126h600v-126h-600zM119 78v126h600v-126h-600z" />
    <glyph glyph-name="uni2252" unicode="&#x2252;" horiz-adv-x="740" 
d="M69 326v122h601v-122h-601zM69 153v121h601v-121h-601zM286 552q0 -33 -24 -56t-57 -23t-56.5 23t-23.5 56t23.5 56.5t56.5 23.5t57 -23.5t24 -56.5zM614 48q0 -33 -24 -56t-57 -23t-56.5 23t-23.5 56t23.5 56.5t56.5 23.5t57 -23.5t24 -56.5z" />
    <glyph glyph-name="section" unicode="&#xa7;" horiz-adv-x="450" 
d="M79 92q36 -23 66.5 -32t58.5 -9q10 0 21 1.5t20 6.5t14.5 14t5.5 24q0 19 -15.5 33.5t-56.5 31.5q-40 16 -66.5 34.5t-42 40t-22 45.5t-6.5 50q0 34 16 66.5t44 53.5q-31 25 -45.5 55t-14.5 62q0 76 50 116t139 40q44 0 78 -9t68 -33l-39 -122q-26 16 -54 30t-55 14
q-46 0 -46 -33q0 -23 18.5 -38t54.5 -30q76 -31 105.5 -73t29.5 -105q0 -35 -12.5 -63.5t-40.5 -52.5q24 -25 39.5 -56t15.5 -65q0 -70 -50.5 -114.5t-154.5 -44.5q-48 0 -85 11t-77 37zM269 322q0 22 -13 35.5t-44 26.5q-8 -7 -13.5 -19.5t-5.5 -26.5q0 -20 15 -32.5
t49 -27.5q6 8 9 20.5t3 23.5z" />
    <glyph glyph-name="uni203B" unicode="&#x203b;" horiz-adv-x="950" 
d="M474 148l-171 -232q-11 -15 -19.5 -20t-22.5 -5h-137q-21 0 -26 11t9 31l263 356l-263 357q-14 20 -9 31t26 11h137q14 0 22.5 -5t19.5 -20l171 -232l172 232q11 15 19.5 20t22.5 5h137q21 0 26 -11t-9 -31l-263 -357l263 -356q14 -20 9 -31t-26 -11h-137q-14 0 -22.5 5
t-19.5 20zM425 -150q-10 0 -14.5 3.5t-4.5 14.5v94q0 11 4.5 14.5t14.5 3.5h100q10 0 14.5 -3.5t4.5 -14.5v-94q0 -11 -4.5 -14.5t-14.5 -3.5h-100zM125 220q-10 0 -14.5 3.5t-4.5 14.5v94q0 11 4.5 14.5t14.5 3.5h100q10 0 14.5 -3.5t4.5 -14.5v-94q0 -11 -4.5 -14.5
t-14.5 -3.5h-100zM725 220q-10 0 -14.5 3.5t-4.5 14.5v94q0 11 4.5 14.5t14.5 3.5h100q10 0 14.5 -3.5t4.5 -14.5v-94q0 -11 -4.5 -14.5t-14.5 -3.5h-100zM425 598q-10 0 -14.5 3.5t-4.5 14.5v94q0 11 4.5 14.5t14.5 3.5h100q10 0 14.5 -3.5t4.5 -14.5v-94q0 -11 -4.5 -14.5
t-14.5 -3.5h-100z" />
    <glyph glyph-name="uni2606" unicode="&#x2606;" horiz-adv-x="940" 
d="M503 375l-35 119l-34 -119h-167l135 -98l-49 -127l112 86l120 -92l-54 132l140 99h-168zM650 250l109 -338l-292 209l-288 -202l105 335l-258 204h327l115 319l117 -319h328z" />
    <glyph glyph-name="uni2605" unicode="&#x2605;" horiz-adv-x="940" 
d="M650 250l109 -338l-292 209l-288 -202l105 335l-258 204h327l115 319l117 -319h328z" />
    <glyph glyph-name="circle" unicode="&#x25cb;" horiz-adv-x="940" 
d="M881 300q0 -86 -31 -161t-85.5 -130.5t-130 -87.5t-164.5 -32q-84 0 -159 30.5t-131 85t-88.5 130t-32.5 165.5q0 86 31 160.5t85.5 130t130 87t164.5 31.5q85 0 159.5 -30t130.5 -84t88.5 -129.5t32.5 -165.5zM758 300q0 63 -22.5 117.5t-61.5 95t-91.5 64t-112.5 23.5
q-57 0 -109.5 -22t-92 -61.5t-63 -95t-23.5 -121.5q0 -63 22.5 -118t61.5 -96.5t91.5 -65t112.5 -23.5q57 0 109.5 22.5t92 62.5t63 95.5t23.5 122.5z" />
    <glyph glyph-name="H18533" unicode="&#x25cf;" horiz-adv-x="940" 
d="M881 300q0 -86 -31 -161t-85.5 -130.5t-130 -87.5t-164.5 -32q-84 0 -159 30.5t-131 85t-88.5 130t-32.5 165.5q0 86 31 160.5t85.5 130t130 87t164.5 31.5q85 0 159.5 -30t130.5 -84t88.5 -129.5t32.5 -165.5z" />
    <glyph glyph-name="uni25CE" unicode="&#x25ce;" horiz-adv-x="940" 
d="M732 302q0 -54 -19.5 -102t-54.5 -83.5t-83 -56t-105 -20.5q-54 0 -101.5 19.5t-83 54.5t-56 83t-20.5 105q0 54 19.5 101t54.5 82t82.5 55t104.5 20q54 0 101.5 -19t83.5 -53.5t56.5 -81.5t20.5 -104zM616 302q0 33 -10.5 62t-30 51t-46 34.5t-59.5 12.5
q-31 0 -57.5 -12t-46 -33t-30.5 -50.5t-11 -64.5q0 -33 10.5 -63t29.5 -52t45.5 -35t59.5 -13q31 0 58 12t46.5 34t30.5 52t11 65zM881 300q0 -86 -31 -161t-85.5 -130.5t-130 -87.5t-164.5 -32q-84 0 -159 30.5t-131 85t-88.5 130t-32.5 165.5q0 86 31 160.5t85.5 130
t130 87t164.5 31.5q85 0 159.5 -30t130.5 -84t88.5 -129.5t32.5 -165.5zM761 300q0 65 -23 120.5t-62.5 96.5t-92.5 64t-113 23q-57 0 -110 -22t-93 -62t-64 -96t-24 -124q0 -65 23 -121t62.5 -97t92.5 -64.5t113 -23.5q57 0 110 22t93 62.5t64 96.5t24 125z" />
    <glyph glyph-name="uni25C7" unicode="&#x25c7;" horiz-adv-x="940" 
d="M469 -152l-457 456l457 457l459 -457zM768 304l-299 301l-298 -301l298 -299z" />
    <glyph glyph-name="uni25C6" unicode="&#x25c6;" horiz-adv-x="940" 
d="M469 -152l-457 456l457 457l459 -457z" />
    <glyph glyph-name="H22073" unicode="&#x25a1;" horiz-adv-x="940" 
d="M80 -85v774h779v-774h-779zM736 586h-534v-568h534v568z" />
    <glyph glyph-name="filledbox" unicode="&#x25a0;" horiz-adv-x="940" 
d="M80 -85v774h779v-774h-779z" />
    <glyph glyph-name="uni25B3" unicode="&#x25b3;" horiz-adv-x="940" 
d="M473 647l416 -659h-838zM472 438l-223 -350h439z" />
    <glyph glyph-name="triagup" unicode="&#x25b2;" horiz-adv-x="940" 
d="M473 647l416 -659h-838z" />
    <glyph glyph-name="uni25BD" unicode="&#x25bd;" horiz-adv-x="940" 
d="M51 602h838l-416 -659zM688 502h-439l223 -350z" />
    <glyph glyph-name="triagdn" unicode="&#x25bc;" horiz-adv-x="940" 
d="M51 602h838l-416 -659z" />
    <glyph glyph-name="arrowright" unicode="&#x2192;" horiz-adv-x="940" 
d="M634 100v138h-638v124h638v139l310 -201z" />
    <glyph glyph-name="arrowleft" unicode="&#x2190;" horiz-adv-x="940" 
d="M-6 300l310 201v-139h638v-124h-638v-138z" />
    <glyph glyph-name="arrowup" unicode="&#x2191;" horiz-adv-x="800" 
d="M599 466h-138v-626h-124v626h-139l201 310z" />
    <glyph glyph-name="arrowdown" unicode="&#x2193;" horiz-adv-x="800" 
d="M399 -174l-201 310h139v626h124v-626h138z" />
    <glyph glyph-name="arrowboth" unicode="&#x2194;" horiz-adv-x="940" 
d="M643 102v136h-331v-136l-304 198l304 199v-137h331v137l304 -199z" />
    <glyph glyph-name="uni3013" unicode="&#x3013;" horiz-adv-x="940" 
d="M38 352v122h865v-122h-865zM38 113v122h865v-122h-865z" />
    <glyph glyph-name="uni226A" unicode="&#x226a;" horiz-adv-x="940" 
d="M637 31l-64 -92l-512 360l507 371l67 -84l-380 -287zM883 32l-64 -92l-512 360l507 371l67 -84l-380 -287z" />
    <glyph glyph-name="uni226B" unicode="&#x226b;" horiz-adv-x="940" 
d="M685 300l-380 287l67 84l507 -371l-512 -360l-64 92zM439 301l-380 287l67 84l507 -371l-512 -360l-64 92z" />
    <glyph glyph-name="radical" unicode="&#x221a;" horiz-adv-x="520" 
d="M398 -193h-78l-188 432l-81 -53l-60 99l211 127l116 -272l103 637h140z" />
    <glyph glyph-name="uni223D" unicode="&#x223d;" horiz-adv-x="940" 
d="M880 299q0 -45 -14.5 -84.5t-42 -68.5t-67 -45.5t-89.5 -16.5q-15 0 -29.5 1t-30 6t-35 14.5t-44.5 26.5l67 99q29 -18 44.5 -22.5t27.5 -4.5q35 0 51.5 26.5t16.5 68.5q0 39 -16.5 63t-51.5 24q-40 0 -71.5 -32.5t-58.5 -80.5q-23 -41 -47.5 -75.5t-55.5 -59.5
t-70 -39.5t-91 -14.5q-103 0 -158.5 54.5t-55.5 160.5q0 50 16.5 89t45 65.5t67.5 40t85 13.5q16 0 31.5 -1.5t32 -5.5t35.5 -12t43 -21l-60 -108q-20 10 -32.5 16t-21.5 8.5t-15.5 3t-13.5 0.5q-35 0 -52.5 -22.5t-17.5 -64.5q0 -43 17 -68.5t52 -23.5q49 2 77 31.5
t57 86.5q23 45 47.5 79t55 56.5t69.5 34t90 11.5q52 0 92 -16t67 -43.5t40.5 -65.5t13.5 -83z" />
    <glyph glyph-name="proportional" unicode="&#x221d;" horiz-adv-x="940" 
d="M847 139q-44 -31 -78 -42.5t-73 -11.5q-29 0 -55.5 9t-50 23.5t-43 33t-35.5 38.5q-41 -51 -91 -77.5t-108 -26.5q-46 0 -84 17.5t-65.5 46.5t-43 68t-15.5 83q0 46 15 85.5t42 69t66 46t87 16.5q59 0 109.5 -25.5t88.5 -74.5q35 45 79.5 72.5t104.5 27.5
q41 0 74.5 -11.5t75.5 -40.5l-62 -110q-18 12 -30.5 19.5t-22.5 12t-19 6.5t-18 2q-31 0 -57.5 -28.5t-49.5 -65.5q9 -17 21 -34t26.5 -30.5t30.5 -21.5t33 -8q14 0 34 6t52 35zM313 206q38 0 65 27t51 70q-22 39 -50 66.5t-65 27.5q-32 0 -50 -29t-18 -68q0 -18 5 -34.5
t14 -30t21 -21.5t27 -8z" />
    <glyph glyph-name="uni2235" unicode="&#x2235;" horiz-adv-x="940" 
d="M569 116q0 -20 -8 -37t-21.5 -30t-32 -20.5t-39.5 -7.5t-39.5 7.5t-32 20.5t-21.5 30t-8 37q0 19 8 36.5t21.5 31t32 21t39.5 7.5t39.5 -7.5t32 -21t21.5 -31t8 -36.5zM337 516q0 -20 -8 -37t-21.5 -30t-32 -20.5t-39.5 -7.5t-39.5 7.5t-32 20.5t-21.5 30t-8 37
q0 19 8 36.5t21.5 31t32 21t39.5 7.5t39.5 -7.5t32 -21t21.5 -31t8 -36.5zM804 516q0 -20 -8 -37t-21.5 -30t-32 -20.5t-39.5 -7.5t-39.5 7.5t-32 20.5t-21.5 30t-8 37q0 19 8 36.5t21.5 31t32 21t39.5 7.5t39.5 -7.5t32 -21t21.5 -31t8 -36.5z" />
    <glyph glyph-name="integral" unicode="&#x222b;" horiz-adv-x="440" 
d="M309 29q4 -82 -36 -128t-125 -46q-11 0 -19.5 0.5t-18 2t-22.5 4.5t-32 8v130q37 -14 51.5 -16t22.5 -2q18 0 24 11t4 34l-27 543q-5 86 34 130t127 44q11 0 20 -0.5t19.5 -2t23 -4.5t31.5 -8v-134q-34 12 -51 17t-25 5q-31 0 -28 -45z" />
    <glyph glyph-name="uni222C" unicode="&#x222c;" horiz-adv-x="680" 
d="M301 29q4 -82 -36 -128t-125 -46q-11 0 -19 0.5t-17 2t-21.5 4t-31.5 7.5v130q18 -7 30 -10.5t19.5 -5t12.5 -1.5h9q18 0 24 11t4 34l-27 543q-5 86 34 130t127 44q11 0 19.5 -0.5t17.5 -2t20 -3.5t27 -6v-131q-17 6 -28 9t-18 4.5t-11.5 2t-8.5 0.5q-31 0 -28 -45z
M568 29q4 -82 -36 -128t-125 -46q-11 0 -19 0.5t-17 2t-21.5 4t-31.5 7.5v130q18 -7 30 -10.5t19.5 -5t12.5 -1.5h9q18 0 24 11t4 34l-27 543q-5 86 34 130t127 44q11 0 19.5 -0.5t17.5 -2t20 -3.5t27 -6v-131q-17 6 -28 9t-18 4.5t-11.5 2t-8.5 0.5q-31 0 -28 -45z" />
    <glyph glyph-name="element" unicode="&#x2208;" horiz-adv-x="940" 
d="M375 1q-68 0 -117.5 23t-81.5 63t-48 95t-16 118q0 64 18.5 116.5t53.5 90t85 58.5t113 21h446v-127h-448q-47 0 -71.5 -27t-35.5 -74h555v-128h-555q11 -45 35 -73.5t66 -28.5h454v-127h-453z" />
    <glyph glyph-name="suchthat" unicode="&#x220b;" horiz-adv-x="940" 
d="M112 1v127h454q42 0 66 28.5t35 73.5h-555v128h555q-11 47 -35.5 74t-71.5 27h-448v127h446q63 0 113 -21t85 -58.5t53.5 -90t18.5 -116.5q0 -63 -16 -118t-48 -95t-82 -63t-117 -23h-453z" />
    <glyph glyph-name="reflexsubset" unicode="&#x2286;" horiz-adv-x="940" 
d="M120 -41v127h701v-127h-701zM338 133q-118 0 -173.5 61.5t-55.5 170.5t62 166t174 57h476v-128h-478q-47 0 -67.5 -23.5t-20.5 -75.5q0 -48 19.5 -74.5t63.5 -26.5h483v-127h-483z" />
    <glyph glyph-name="reflexsuperset" unicode="&#x2287;" horiz-adv-x="940" 
d="M108 -41v127h702v-127h-702zM108 133v127h484q44 0 63.5 26.5t19.5 74.5q0 52 -20.5 75.5t-67.5 23.5h-479v128h477q112 0 174 -57t62 -166t-55.5 -170.5t-173.5 -61.5h-484z" />
    <glyph glyph-name="propersubset" unicode="&#x2282;" horiz-adv-x="940" 
d="M377 0q-68 0 -117.5 23t-82.5 63.5t-49 95.5t-16 118q0 64 18.5 117t53.5 91t85 59t113 21h444v-127h-446q-54 0 -84.5 -40t-30.5 -121q0 -93 30 -133t81 -40h450v-127h-449z" />
    <glyph glyph-name="propersuperset" unicode="&#x2283;" horiz-adv-x="940" 
d="M112 0v127h450q51 0 81 40t30 133q0 81 -30.5 121t-84.5 40h-446v127h444q63 0 113 -21t85 -59t53.5 -91t18.5 -117q0 -63 -16 -118t-49 -95.5t-83 -63.5t-117 -23h-449z" />
    <glyph glyph-name="union" unicode="&#x222a;" horiz-adv-x="800" 
d="M684 233q0 -65 -20 -117.5t-57 -90t-89.5 -58t-117.5 -20.5q-70 0 -123 20.5t-89 58.5t-54 91t-18 118v427h153v-418q0 -80 28.5 -124.5t102.5 -44.5t102.5 45.5t28.5 125.5v416h153v-429z" />
    <glyph glyph-name="intersection" unicode="&#x2229;" horiz-adv-x="800" 
d="M684 -53h-153v416q0 40 -6.5 71.5t-22 53.5t-40.5 34t-62 12q-74 0 -102.5 -44.5t-28.5 -124.5v-418h-153v427q0 65 18 118t54 91t89 58.5t123 20.5q65 0 117.5 -20.5t89.5 -58t57 -90.5t20 -117v-429z" />
    <glyph glyph-name="logicaland" unicode="&#x2227;" horiz-adv-x="940" 
d="M825 -33h-160l-194 407l-197 -406h-162l359 703z" />
    <glyph glyph-name="logicalor" unicode="&#x2228;" horiz-adv-x="940" 
d="M471 -65l-359 703h162l197 -406l194 407h160z" />
    <glyph glyph-name="uniFFE2" unicode="&#xffe2;" horiz-adv-x="940" 
d="M919 -177h-158v223h-741v127h899v-350z" />
    <glyph glyph-name="arrowdblright" unicode="&#x21d2;" horiz-adv-x="940" 
d="M593 139h-570v122h691l39 39l-40 40h-690v121h569l-51 51l85 94l302 -306l-299 -307l-85 96z" />
    <glyph glyph-name="arrowdblboth" unicode="&#x21d4;" horiz-adv-x="940" 
d="M593 139h-250l50 -50l-85 -96l-299 307l302 306l85 -94l-51 -51h247l-51 51l85 94l302 -306l-299 -307l-85 96zM222 261h492l39 39l-40 40h-489l-40 -40z" />
    <glyph glyph-name="universal" unicode="&#x2200;" horiz-adv-x="600" 
d="M162 681l48 -167h177l47 167h167l-221 -733h-161l-223 733h166zM351 389h-104l53 -183z" />
    <glyph glyph-name="existential" unicode="&#x2203;" horiz-adv-x="560" 
d="M66 259v132h262v157h-277v133h442v-733h-458v133h293v178h-262z" />
    <glyph glyph-name="acute" unicode="&#xb4;" horiz-adv-x="400" 
d="M175 761h165l-135 -172h-127z" />
    <glyph glyph-name="caron" unicode="&#x2c7;" horiz-adv-x="360" 
d="M233 588h-109l-101 173h132l26 -50l23 50h131z" />
    <glyph glyph-name="breve" unicode="&#x2d8;" horiz-adv-x="375" 
d="M326 761q-5 -79 -41 -110.5t-96 -31.5q-63 0 -98 35t-40 107h118q2 -28 8 -34.5t12 -6.5q7 0 12.5 6.5t6.5 34.5h118v0z" />
    <glyph glyph-name="hungarumlaut" unicode="&#x2dd;" horiz-adv-x="440" 
d="M119 761h137l-134 -172h-101zM270 761h137l-134 -172h-101z" />
    <glyph glyph-name="ring" unicode="&#x2da;" horiz-adv-x="300" 
d="M254 676q0 -24 -9 -43t-24 -33t-33.5 -21.5t-37.5 -7.5t-38 7.5t-34 21.5t-24 33t-9 43t9 43t24 32.5t34 21t38 7.5t37.5 -7.5t33.5 -21t24 -32.5t9 -43zM168 676q0 8 -5.5 13.5t-12.5 5.5q-8 0 -13.5 -5.5t-5.5 -13.5q0 -19 19 -19q7 0 12.5 5.5t5.5 13.5z" />
    <glyph glyph-name="dotaccent" unicode="&#x2d9;" horiz-adv-x="300" 
d="M80 632v140h140v-140h-140z" />
    <glyph glyph-name="cedilla" unicode="&#xb8;" horiz-adv-x="300" 
d="M209 -8l-15 -36q28 -11 42 -32t14 -47q0 -21 -9 -35.5t-24.5 -23.5t-36 -13t-43.5 -4q-50 0 -88 22l25 65q20 -9 31.5 -11.5t19.5 -3.5q12 -1 15.5 1t4.5 6q2 9 -17 15t-53 8l47 109z" />
    <glyph glyph-name="ogonek" unicode="&#x2db;" horiz-adv-x="300" 
d="M214 -64q-28 -5 -46 -20t-12 -29q3 -8 17 -8q19 0 50 19l25 -66q-23 -16 -49 -23t-49 -7q-19 0 -37 3.5t-32 12.5t-22.5 24.5t-8.5 38.5q0 19 9.5 40t27.5 39t44 31.5t59 17.5z" />
    <glyph glyph-name="exclamdown" unicode="&#xa1;" horiz-adv-x="240" 
d="M197 291l8 -518h-171l7 518h156zM200 499v-160h-165v160h165z" />
    <glyph glyph-name="questiondown" unicode="&#xbf;" horiz-adv-x="440" 
d="M314 267q0 -21 -2 -45t-9.5 -49t-21.5 -51t-38 -53q-33 -37 -46.5 -65.5t-13.5 -58.5q0 -24 13 -35.5t33 -11.5q14 0 26 3t24.5 11.5t27 23.5t33.5 39l84 -111q-26 -27 -49 -45.5t-47 -30t-50.5 -16t-57.5 -4.5q-50 0 -87 12.5t-61 34.5t-36 52t-12 66q0 52 25.5 103.5
t62.5 95.5q26 31 36 66t10 70v49h156v-50zM320 502v-160h-169v160h169z" />
    <glyph glyph-name="uni02D0" unicode="&#x2d0;" horiz-adv-x="300" 
d="M152 337l-125 211h243zM152 263l-125 -211h243z" />
    <glyph glyph-name="uni222E" unicode="&#x222e;" horiz-adv-x="600" 
d="M381 479q59 -18 93.5 -63t34.5 -114q0 -81 -45.5 -128t-120.5 -58l-9 -89q-4 -36 -13 -67t-28 -54t-50 -36t-77 -13h-18t-17.5 1.5t-23.5 5t-37 9.5l20 127q34 -14 47 -15t21 -1q47 0 53 49l10 91q-58 19 -92.5 64t-34.5 114q0 79 45.5 126.5t120.5 58.5l10 90
q4 36 13 66.5t27.5 53t49 35t77.5 12.5q20 0 38 -4.5t53 -14.5l-17 -127q-29 14 -43 16.5t-23 2.5q-20 0 -36 -11t-19 -39zM214 303q0 -37 20 -59l13 126q-15 -11 -24 -27.5t-9 -39.5zM386 302q0 33 -18 54l-13 -122q31 22 31 68z" />
    <glyph glyph-name="summation" unicode="&#x2211;" horiz-adv-x="700" 
d="M59 -52v71l274 293l-274 273v95h579v-134h-335l232 -223l-226 -240h330v-135h-580z" />
    <glyph glyph-name="product" unicode="&#x220f;" horiz-adv-x="688" 
d="M574 549v-612h-170v612h-131v-612h-167v612h-99v131h666v-131h-99z" />
    <glyph glyph-name="currency" unicode="&#xa4;" horiz-adv-x="560" 
d="M278 554q32 0 58 -8.5t46 -19.5l73 78l90 -91l-84 -71q13 -22 20 -47.5t7 -58.5q0 -38 -6.5 -65t-19.5 -50l79 -74l-89 -88l-73 79q-22 -13 -49 -20.5t-54 -7.5t-52.5 7t-48.5 20l-72 -79l-89 87l81 73q-14 23 -21.5 50t-7.5 62t8 64.5t22 52.5l-81 69l88 90l75 -79
q20 11 46 19t54 8zM277 434q-32 0 -49 -30t-17 -73q0 -26 6 -45t15.5 -31t21 -18t22.5 -6q25 0 46 24t21 80q0 18 -4 36t-12 32t-20.5 22.5t-29.5 8.5z" />
    <glyph glyph-name="uni2109" unicode="&#x2109;" horiz-adv-x="970" 
d="M563 336h313q14 0 20 -5t6 -20v-120q0 -15 -6 -20t-20 -5h-313v-310q0 -15 -6 -20t-20 -5h-140q-14 0 -20 5t-6 20v706q0 28 3.5 51.5t16 40t36.5 25.5t66 9h411q14 0 20 -5t6 -20v-120q0 -15 -6 -20t-20 -5h-294q-27 0 -37 -10.5t-10 -39.5v-132zM191 785q31 0 55 -10
t41 -27t26 -40t9 -49q0 -27 -9 -50.5t-25.5 -41t-41 -27.5t-55.5 -10t-55.5 10t-41 27.5t-25.5 41t-9 50.5q0 26 9 49t26 40t41 27t55 10zM191 628q14 0 23 8.5t9 22.5q0 15 -9 22.5t-23 7.5t-23 -7.5t-9 -22.5q0 -14 9 -22.5t23 -8.5z" />
    <glyph glyph-name="perthousand" unicode="&#x2030;" horiz-adv-x="940" 
d="M158 554q-3 0 -5 -3t-3.5 -12.5t-2.5 -27.5t-1 -47q0 -26 1 -42t2.5 -25t4 -12t5.5 -3q2 0 4 3t3.5 12t2.5 25t1 42q0 29 -1 47t-2.5 27.5t-3.5 12.5t-5 3zM411 682h107l-271 -731h-107zM158 276q-67 0 -98 47t-31 141q0 93 30.5 144.5t98.5 51.5t98.5 -51.5t30.5 -144.5
q0 -94 -31 -141t-98 -47zM501 252q-3 0 -5 -3t-3.5 -12.5t-2.5 -27.5t-1 -47q0 -26 1 -42t2.5 -25t4 -12t5.5 -3q2 0 4 3t3.5 12t2.5 25t1 42q0 29 -1 47t-2.5 27.5t-3.5 12.5t-5 3zM501 -26q-67 0 -98 47t-31 141q0 93 30.5 144.5t98.5 51.5t98.5 -51.5t30.5 -144.5
q0 -94 -31 -141t-98 -47zM781 252q-3 0 -5 -3t-3.5 -12.5t-2.5 -27.5t-1 -47q0 -26 1 -42t2.5 -25t4 -12t5.5 -3q2 0 4 3t3.5 12t2.5 25t1 42q0 29 -1 47t-2.5 27.5t-3.5 12.5t-5 3zM781 -26q-67 0 -98 47t-31 141q0 93 30.5 144.5t98.5 51.5t98.5 -51.5t30.5 -144.5
q0 -94 -31 -141t-98 -47z" />
    <glyph glyph-name="uni25C1" unicode="&#x25c1;" horiz-adv-x="940" 
d="M141 302l650 405v-807zM334 301l345 -210v422z" />
    <glyph glyph-name="uni25C0" unicode="&#x25c0;" horiz-adv-x="940" 
d="M141 302l650 405v-807z" />
    <glyph glyph-name="uni25B7" unicode="&#x25b7;" horiz-adv-x="940" 
d="M149 -100v807l650 -405zM261 513v-422l345 210z" />
    <glyph glyph-name="uni25B6" unicode="&#x25b6;" horiz-adv-x="940" 
d="M149 -100v807l650 -405z" />
    <glyph glyph-name="uni2664" unicode="&#x2664;" horiz-adv-x="940" 
d="M611 -135h-282v58q6 10 11.5 25.5t11 32.5t10 35t7.5 34q-25 -11 -52 -18.5t-43 -7.5q-75 0 -114 46.5t-39 121.5q0 84 88 223.5t261 325.5q173 -186 260.5 -325.5t87.5 -223.5q0 -75 -38.5 -122t-113.5 -47q-17 0 -43.5 6.5t-53.5 19.5q7 -33 18 -67.5t24 -58.5v-58z
M716 193q0 39 -25.5 93.5t-63 112.5t-80 112.5t-77.5 92.5q-35 -38 -77.5 -92.5t-80 -112.5t-63 -112.5t-25.5 -93.5q0 -33 10.5 -56.5t39.5 -23.5q17 0 36 8t55 30q11 7 23.5 11.5t26.5 4.5q24 0 35.5 -13.5t11.5 -46.5q0 -34 -8.5 -77t-20.5 -78v-3h73v3q-11 35 -19 78
t-8 77q0 33 11 46.5t35 13.5q14 0 26.5 -4.5t23.5 -11.5q36 -22 56.5 -30t34.5 -8q29 0 39.5 23.5t10.5 56.5z" />
    <glyph glyph-name="spade" unicode="&#x2660;" horiz-adv-x="940" 
d="M611 -135h-282v58q6 10 11.5 25.5t11 32.5t10 35t7.5 34q-25 -11 -52 -18.5t-43 -7.5q-75 0 -114 46.5t-39 121.5q0 84 88 223.5t261 325.5q173 -186 260.5 -325.5t87.5 -223.5q0 -75 -38.5 -122t-113.5 -47q-17 0 -43.5 6.5t-53.5 19.5q7 -33 18 -67.5t24 -58.5v-58z
" />
    <glyph glyph-name="uni2661" unicode="&#x2661;" horiz-adv-x="940" 
d="M177 471q0 -65 28 -133.5t71 -130.5t94 -111.5t97 -76.5q46 27 96.5 76.5t93.5 111.5t71 130.5t28 133.5q0 64 -25 100t-76 36q-42 0 -71 -32.5t-46 -77.5q-9 -25 -24.5 -43t-45.5 -18q-33 0 -48.5 18t-24.5 43q-17 45 -46 77.5t-70 32.5q-51 0 -76.5 -36t-25.5 -100z
M468 -88q-95 55 -168.5 126.5t-124 147.5t-77 151t-26.5 138q0 48 13 88.5t38.5 69t63.5 44.5t88 16q64 0 115 -32.5t77 -94.5q29 61 77.5 94t114.5 33q50 0 87.5 -16t63 -44.5t38.5 -69t13 -88.5q0 -63 -25.5 -137t-75.5 -149t-123.5 -146.5t-168.5 -130.5z" />
    <glyph glyph-name="heart" unicode="&#x2665;" horiz-adv-x="940" 
d="M468 -88q-95 55 -168.5 126.5t-124 147.5t-77 151t-26.5 138q0 48 13 88.5t38.5 69t63.5 44.5t88 16q64 0 115 -32.5t77 -94.5q29 61 77.5 94t114.5 33q50 0 87.5 -16t63 -44.5t38.5 -69t13 -88.5q0 -63 -25.5 -137t-75.5 -149t-123.5 -146.5t-168.5 -130.5z" />
    <glyph glyph-name="uni2667" unicode="&#x2667;" horiz-adv-x="940" 
d="M329 -76q15 29 30.5 56t23.5 60q3 13 3.5 17.5t-2.5 5.5q-6 2 -14 -6t-16 -14q-29 -23 -55 -33.5t-65 -10.5q-42 0 -77 17t-59.5 45t-38.5 64.5t-14 75.5q0 40 14 76t38.5 63.5t58 43.5t73.5 16q27 0 54.5 -10t59.5 -28q5 -3 12.5 -6t11.5 4t-0.5 11t-9.5 9
q-23 21 -39.5 38.5t-27 37t-16 42t-5.5 53.5q0 40 17.5 73.5t45.5 57.5t64 37t74 13q37 0 73.5 -13t64.5 -37t45.5 -57.5t17.5 -73.5q0 -31 -6 -54t-18 -42.5t-29.5 -37.5t-39.5 -39l-8.5 -8.5t0.5 -10.5t11 -4.5t12 5.5q32 18 61.5 29t56.5 11q37 0 70.5 -15.5t59 -42
t40 -63t14.5 -78.5t-14 -78.5t-39.5 -64t-60 -43.5t-75.5 -16q-39 0 -65 11t-54 34q-8 6 -16 12.5t-14 5.5q-5 -1 -3.5 -4.5t4.5 -16.5q8 -33 23 -60.5t30 -56.5v-49h-282v49zM508 -44v2q-15 37 -22.5 80t-7.5 77q0 27 13 41t33 14q27 0 47 -18q29 -27 58.5 -46.5
t68.5 -19.5q50 0 78.5 34t28.5 85q0 23 -7.5 44t-21 37t-32.5 25.5t-41 9.5q-39 0 -80 -22q-14 -8 -32 -13.5t-35.5 -6t-34 5.5t-27.5 21q-19 26 -13.5 53t27.5 49q19 19 33 34.5t23 31t13 32.5t4 41q0 46 -31.5 75t-79.5 29t-79 -29t-31 -75q0 -24 4 -41t12.5 -32.5t22 -31
t33.5 -34.5q20 -20 26 -50t-12 -54q-11 -14 -26.5 -20t-33.5 -5t-36 6.5t-33 13.5q-40 22 -80 22q-23 0 -41.5 -9.5t-32 -25.5t-21 -37t-7.5 -44q0 -51 28.5 -85t78.5 -34q39 0 68.5 19.5t58.5 46.5q19 18 47 18q20 0 33 -14t13 -41q0 -17 -2 -37t-6 -41t-9.5 -41t-12.5 -38
v-2h76z" />
    <glyph glyph-name="club" unicode="&#x2663;" horiz-adv-x="940" 
d="M329 -76q15 29 30.5 56t23.5 60q3 13 3.5 17.5t-2.5 5.5q-6 2 -14 -6t-16 -14q-29 -23 -55 -33.5t-65 -10.5q-42 0 -77 17t-59.5 45t-38.5 64.5t-14 75.5q0 40 14 76t38.5 63.5t58 43.5t73.5 16q27 0 54.5 -10t59.5 -28q5 -3 12.5 -6t11.5 4t-0.5 11t-9.5 9
q-23 21 -39.5 38.5t-27 37t-16 42t-5.5 53.5q0 40 17.5 73.5t45.5 57.5t64 37t74 13q37 0 73.5 -13t64.5 -37t45.5 -57.5t17.5 -73.5q0 -31 -6 -54t-18 -42.5t-29.5 -37.5t-39.5 -39l-8.5 -8.5t0.5 -10.5t11 -4.5t12 5.5q32 18 61.5 29t56.5 11q37 0 70.5 -15.5t59 -42
t40 -63t14.5 -78.5t-14 -78.5t-39.5 -64t-60 -43.5t-75.5 -16q-39 0 -65 11t-54 34q-8 6 -16 12.5t-14 5.5q-5 -1 -3.5 -4.5t4.5 -16.5q8 -33 23 -60.5t30 -56.5v-49h-282v49z" />
    <glyph glyph-name="uni2299" unicode="&#x2299;" horiz-adv-x="940" 
d="M881 300q0 -86 -31 -161t-85.5 -130.5t-130 -87.5t-164.5 -32q-84 0 -159 30.5t-131 85t-88.5 130t-32.5 165.5q0 86 31 160.5t85.5 130t130 87t164.5 31.5q85 0 159.5 -30t130.5 -84t88.5 -129.5t32.5 -165.5zM758 300q0 63 -22.5 117.5t-61.5 95t-91.5 64t-112.5 23.5
q-57 0 -109.5 -22t-92 -61.5t-63 -95t-23.5 -121.5q0 -63 22.5 -118t61.5 -96.5t91.5 -65t112.5 -23.5q57 0 109.5 22.5t92 62.5t63 95.5t23.5 122.5zM624 300q0 -31 -12.5 -59t-33.5 -49t-49.5 -33t-59.5 -12q-32 0 -60 12t-49 33t-33.5 49t-12.5 59q0 33 12.5 61
t33.5 48.5t49 32t60 11.5q31 0 59 -11.5t49.5 -32t34 -48.5t12.5 -61z" />
    <glyph glyph-name="uni25C8" unicode="&#x25c8;" horiz-adv-x="940" 
d="M469 -152l-460 456l460 458l460 -458zM772 304l-303 305l-304 -305l304 -302zM469 40l-264 264l264 264l264 -264z" />
    <glyph glyph-name="uni25A3" unicode="&#x25a3;" horiz-adv-x="940" 
d="M82 -85v774h777v-774h-777zM736 586h-532v-568h532v568zM682 93h-423v417h423v-417z" />
    <glyph glyph-name="uni25D0" unicode="&#x25d0;" horiz-adv-x="940" 
d="M880 302q0 -89 -31 -164.5t-86 -130t-131 -85.5t-167 -31q-88 0 -162.5 30.5t-128.5 85.5t-84.5 130.5t-30.5 164.5t30.5 164t84.5 129t128.5 84.5t162.5 30.5q91 0 167 -30.5t131 -85t86 -129.5t31 -163zM776 301q0 61 -20 114.5t-55.5 95t-84.5 68.5t-107 35v-627
q57 7 106 34.5t85 69.5t56 95.5t20 114.5z" />
    <glyph glyph-name="uni25D1" unicode="&#x25d1;" horiz-adv-x="940" 
d="M59 302q0 88 31 163t86 129.5t131 85t167 30.5q88 0 162.5 -30.5t128.5 -84.5t84.5 -129t30.5 -164t-30.5 -164.5t-84.5 -130.5t-128.5 -85.5t-162.5 -30.5q-91 0 -167 31t-131 85.5t-86 130t-31 164.5zM163 301q0 -61 20 -114.5t56 -95.5t85 -69.5t106 -34.5v627
q-58 -8 -107 -35t-84.5 -68.5t-55.5 -95t-20 -114.5z" />
    <glyph glyph-name="shade" unicode="&#x2592;" horiz-adv-x="940" 
d="M886 680q0 -15 -10 -24t-23 -9q-15 0 -25.5 9t-10.5 24t10.5 24.5t25.5 9.5q13 0 23 -9.5t10 -24.5zM759 680q0 -15 -10 -24t-25 -9t-25 9t-10 24t10 25t25 10t25 -10t10 -25zM886 553q0 -15 -10 -25t-23 -10q-15 0 -25.5 9.5t-10.5 25.5q0 15 10.5 24.5t25.5 9.5
q13 0 23 -9.5t10 -24.5zM632 680q0 -15 -9.5 -24t-24.5 -9t-25 9t-10 24t10 25t25 10t24.5 -10t9.5 -25zM759 554q0 -16 -10 -26t-25 -10t-25 10t-10 26q0 15 10 24.5t25 9.5t25 -9.5t10 -24.5zM886 425q0 -15 -10 -24.5t-23 -9.5q-15 0 -25.5 9.5t-10.5 24.5t10.5 25
t25.5 10q13 0 23 -10t10 -25zM632 554q0 -16 -9.5 -26t-24.5 -10t-25 10t-10 26q0 15 10 24.5t25 9.5t24.5 -9.5t9.5 -24.5zM504 680q0 -15 -9.5 -24t-25.5 -9q-14 0 -23.5 9t-9.5 24t9.5 24.5t23.5 9.5q16 0 25.5 -9.5t9.5 -24.5zM759 426q0 -16 -10 -25.5t-25 -9.5t-25 10
t-10 25t10 24.5t25 9.5t25 -9.5t10 -24.5zM886 297q0 -13 -10 -23t-23 -10q-15 0 -25.5 10t-10.5 23q0 15 10.5 25t25.5 10q13 0 23 -10t10 -25zM632 426q0 -15 -9.5 -25t-24.5 -10t-25 10t-10 25t10 24.5t25 9.5t24.5 -9.5t9.5 -24.5zM504 553q0 -16 -9.5 -25.5t-25.5 -9.5
q-14 0 -23.5 10t-9.5 25t9.5 24.5t23.5 9.5q16 0 25.5 -9.5t9.5 -24.5zM886 171q0 -14 -10 -24.5t-23 -10.5q-15 0 -25.5 10.5t-10.5 24.5t10.5 24t25.5 10q13 0 23 -10t10 -24zM376 680q0 -15 -9.5 -24t-25.5 -9q-15 0 -24.5 9t-9.5 24t9.5 24.5t24.5 9.5q16 0 25.5 -9.5
t9.5 -24.5zM758 297q0 -13 -9.5 -23t-24.5 -10t-25 10t-10 23q0 15 10 25t25 10t24.5 -10t9.5 -25zM504 425q0 -15 -9.5 -24.5t-25.5 -9.5q-14 0 -23.5 9.5t-9.5 24.5t9.5 25t23.5 10q16 0 25.5 -10t9.5 -25zM631 297q0 -13 -9 -23t-24 -10t-25 10t-10 23q0 15 10 25t25 10
t24 -10t9 -25zM887 43q0 -14 -10 -24.5t-23 -10.5q-17 0 -27 10.5t-10 24.5q0 16 10 26t27 10q13 0 23 -10.5t10 -25.5zM250 680q0 -15 -10.5 -24t-25.5 -9t-25 9t-10 24t10 25t25 10t25.5 -10t10.5 -25zM376 553q0 -16 -9.5 -25.5t-25.5 -9.5q-15 0 -24.5 10t-9.5 25
t9.5 24.5t24.5 9.5q16 0 25.5 -9.5t9.5 -24.5zM758 171q0 -14 -9.5 -24.5t-24.5 -10.5t-25 10.5t-10 24.5t10 24t25 10t24.5 -10t9.5 -24zM504 297q0 -13 -9.5 -23t-25.5 -10q-14 0 -23.5 10t-9.5 23q0 15 9.5 25t23.5 10q16 0 25.5 -10t9.5 -25zM631 171q0 -14 -9 -24.5
t-24 -10.5t-25 10.5t-10 24.5t10 24t25 10t24 -10t9 -24zM887 -84q0 -15 -10 -25t-23 -10q-17 0 -27 10t-10 25q0 14 10 24t27 10q13 0 23 -10t10 -24zM250 554q0 -16 -10.5 -26t-25.5 -10t-25 10t-10 26q0 15 10 24.5t25 9.5t25.5 -9.5t10.5 -24.5zM376 425
q0 -15 -9.5 -24.5t-25.5 -9.5q-15 0 -24.5 9.5t-9.5 24.5t9.5 25t24.5 10q16 0 25.5 -10t9.5 -25zM759 43q0 -14 -10 -24.5t-25 -10.5q-14 0 -24.5 10.5t-10.5 24.5q0 15 10 25.5t25 10.5t25 -10.5t10 -25.5zM121 680q0 -15 -10.5 -24t-25.5 -9q-13 0 -23 9t-10 24t10 24.5
t23 9.5q15 0 25.5 -9.5t10.5 -24.5zM504 171q0 -14 -9.5 -24.5t-25.5 -10.5q-14 0 -23.5 10.5t-9.5 24.5t9.5 24t23.5 10q16 0 25.5 -10t9.5 -24zM632 43q0 -14 -9.5 -24.5t-24.5 -10.5t-25 10.5t-10 24.5q0 15 10 25.5t25 10.5t24.5 -10.5t9.5 -25.5zM250 426
q0 -15 -10.5 -25t-25.5 -10t-25 9.5t-10 25.5q0 15 10 24.5t25 9.5t25.5 -9.5t10.5 -24.5zM376 297q0 -13 -9.5 -23t-25.5 -10q-15 0 -24.5 10t-9.5 23q0 15 9.5 25t24.5 10q16 0 25.5 -10t9.5 -25zM759 -84q0 -15 -10 -25t-25 -10q-14 0 -24.5 10.5t-10.5 24.5t10 24t25 10
t25 -10t10 -24zM121 553q0 -15 -10.5 -25t-25.5 -10q-13 0 -23 10t-10 25t10 24.5t23 9.5q15 0 25.5 -9.5t10.5 -24.5zM505 43q0 -14 -9.5 -24.5t-26.5 -10.5q-14 0 -23.5 10.5t-9.5 24.5q0 15 9.5 25.5t23.5 10.5q17 0 26.5 -10t9.5 -26zM632 -84q0 -14 -9.5 -24.5
t-24.5 -10.5t-25 10.5t-10 24.5t10 24t25 10t24.5 -10t9.5 -24zM376 171q0 -14 -9.5 -24.5t-25.5 -10.5q-15 0 -24.5 10.5t-9.5 24.5t9.5 24t24.5 10q16 0 25.5 -10t9.5 -24zM121 424q0 -14 -10.5 -23.5t-25.5 -9.5q-13 0 -23 9.5t-10 23.5q0 17 10 26.5t23 9.5
q15 0 25.5 -9.5t10.5 -26.5zM249 297q0 -13 -10.5 -23t-24.5 -10q-15 0 -25 10t-10 23q0 15 10 25t25 10t25 -10t10 -25zM505 -84q0 -15 -9.5 -25t-26.5 -10q-14 0 -23.5 10t-9.5 25q0 14 9.5 24t23.5 10q17 0 26.5 -10t9.5 -24zM377 43q0 -14 -9.5 -24.5t-25.5 -10.5
q-15 0 -25 10.5t-10 24.5q0 15 10 25.5t25 10.5q16 0 25.5 -10.5t9.5 -25.5zM249 171q0 -14 -10.5 -24.5t-24.5 -10.5q-15 0 -25 10.5t-10 24.5t10 24t25 10t25 -10t10 -24zM121 296q0 -14 -10.5 -23.5t-25.5 -9.5q-13 0 -23 9.5t-10 23.5q0 15 10 24.5t23 9.5
q15 0 25.5 -9.5t10.5 -24.5zM377 -84q0 -15 -9.5 -25t-25.5 -10q-15 0 -25 10t-10 25q0 14 10 24t25 10q16 0 25.5 -10t9.5 -24zM250 43q0 -14 -10.5 -24.5t-25.5 -10.5t-25 10.5t-10 24.5q0 15 10 25.5t25 10.5t25.5 -10.5t10.5 -25.5zM121 171q0 -14 -10.5 -24.5
t-25.5 -10.5q-13 0 -23 10.5t-10 24.5t10 23.5t23 9.5q36 0 36 -33zM250 -84q0 -14 -10.5 -24.5t-25.5 -10.5t-25 10t-10 25q0 14 10 24t25 10t25.5 -10t10.5 -24zM121 43q0 -14 -10.5 -24.5t-25.5 -10.5q-13 0 -23 10.5t-10 24.5t10 24t23 10q15 0 25.5 -10t10.5 -24z
M121 -84q0 -15 -10.5 -25t-25.5 -10q-13 0 -23 10t-10 25q0 14 10 24t23 10q15 0 25.5 -10t10.5 -24z" />
    <glyph glyph-name="uni25A4" unicode="&#x25a4;" horiz-adv-x="940" 
d="M52 -118v829h835v-829h-835zM851 676h-764v-78h764v78zM851 562h-764v-83h764v83zM851 445h-764v-74h764v74zM851 334h-764v-79h764v79zM851 219h-764v-81h764v81zM851 103h-764v-75h764v75zM851 -8h-764v-74h764v74z" />
    <glyph glyph-name="uni25A5" unicode="&#x25a5;" horiz-adv-x="940" 
d="M52 -118v828h835v-828h-835zM852 674h-77v-756h77v756zM740 674h-74v-756h74v756zM629 674h-80v-756h80v756zM513 674h-80v-756h80v756zM396 674h-76v-756h76v756zM285 674h-83v-756h83v756zM166 674h-79v-756h79v756z" />
    <glyph glyph-name="uni25A8" unicode="&#x25a8;" horiz-adv-x="940" 
d="M52 710h835v-828h-835v828zM478 -82h142l228 227v141zM289 -82h139l420 415v142zM664 -82h184v181zM112 -82h126l610 604v127zM86 64v-123l736 733h-124zM86 254v-144l564 564h-143zM86 448v-146l370 372h-141zM86 491l178 183h-178v-183z" />
    <glyph glyph-name="uni25A7" unicode="&#x25a7;" horiz-adv-x="940" 
d="M52 -119v830h835v-830h-835zM664 675q48 -48 92.5 -92t91.5 -91v183h-184zM478 675q94 -94 185 -185.5t185 -185.5v142q-57 57 -114 114.5t-114 114.5h-142zM289 675q141 -140 279 -278.5t280 -279.5v142q-106 104 -209.5 207.5t-210.5 208.5h-139zM112 675
q186 -186 368 -366.5t368 -365.5v125q-154 153 -304.5 303.5t-305.5 303.5h-126zM822 -82q-186 185 -368 366.5t-368 367.5v-125q155 -154 306 -305t306 -304h124zM650 -82q-141 142 -281.5 282t-282.5 281v-143q107 -107 211 -210.5t210 -209.5h143zM456 -82
q-94 94 -185 185.5t-185 185.5v-146q59 -57 115.5 -113t113.5 -112h141zM264 -82q-45 46 -89 90.5t-89 91.5v-182h178z" />
    <glyph glyph-name="uni25A6" unicode="&#x25a6;" horiz-adv-x="940" 
d="M52 -118v829h835v-829h-835zM851 676h-81v-79h81v79zM737 676h-78v-79h78v79zM851 564h-81v-86h81v86zM626 676h-83v-79h83v79zM737 564h-78v-86h78v86zM851 446h-81v-78h81v78zM626 564h-83v-86h83v86zM511 676h-86v-79h86v79zM737 446h-78v-78h78v78zM851 335h-81v-81
h81v81zM737 335h-78v-81h78v81zM393 676h-76v-79h76v79zM626 446h-83v-78h83v78zM511 564h-86v-86h86v86zM851 221h-81v-84h81v84zM285 676h-85v-79h85v79zM626 335h-83v-81h83v81zM737 221h-78v-84h78v84zM851 105h-81v-78h81v78zM393 564h-76v-86h76v86zM511 446h-86v-78
h86v78zM851 -5h-81v-77h81v77zM737 105h-78v-78h78v78zM167 676h-80v-79h80v79zM626 221h-83v-84h83v84zM285 564h-85v-86h85v86zM511 335h-86v-81h86v81zM393 446h-76v-78h76v78zM737 -5h-78v-77h78v77zM626 105h-83v-78h83v78zM393 335h-76v-81h76v81zM285 446h-85v-78h85
v78zM167 564h-80v-86h80v86zM511 221h-86v-84h86v84zM626 -5h-83v-77h83v77zM285 335h-85v-81h85v81zM511 105h-86v-78h86v78zM393 221h-76v-84h76v84zM167 446h-80v-78h80v78zM511 -5h-86v-77h86v77zM167 335h-80v-81h80v81zM285 221h-85v-84h85v84zM393 105h-76v-78h76v78
zM393 -5h-76v-77h76v77zM285 105h-85v-78h85v78zM167 221h-80v-84h80v84zM285 -5h-85v-77h85v77zM167 105h-80v-78h80v78zM167 -5h-80v-77h80v77z" />
    <glyph glyph-name="uni25A9" unicode="&#x25a9;" horiz-adv-x="940" 
d="M53 -119v829h834v-829h-834zM360 208q-18 19 -36.5 37.5l-36.5 36.5q-18 -18 -36 -36.5t-37 -36.5q19 -18 37.5 -36.5l36.5 -36.5zM554 408q18 18 36 35t36 35l-72 72l-72 -72q18 -18 36 -35t36 -35zM650 503q18 18 35 36t35 36l-70 71q-18 -18 -36 -35.5t-36 -35.5z
M189 42q18 18 35.5 36t35.5 37l-69 69l-71 -72zM382 42l35.5 35.5t36.5 35.5l-70 70l-71 -71q18 -18 34.5 -35t34.5 -35zM816 478l-69 70q-18 -18 -36 -35.5t-36 -35.5l71 -69zM286 -52q18 18 36 35l36 34l-70 70l-72 -72q18 -18 35 -33.5t35 -33.5zM456 505q18 18 35.5 36
t35.5 36q-17 18 -32.5 34t-32.5 33l-36 -36t-37 -36l34 -34zM652 314q18 18 34 34.5t34 33.5q-18 18 -34 35t-34 35q-18 -18 -34 -34.5t-34 -33.5zM473 -50q19 18 37 35.5t36 35.5l-66 65l-70 -71q15 -16 31 -32t32 -33zM258 308q-17 16 -32.5 32t-32.5 33
q-18 -18 -35.5 -35t-35.5 -35q16 -16 32 -32.5t33 -33.5zM744 219q17 18 35 35t36 35l-33 33t-34 32l-69 -69l33 -33t32 -33zM269 646q-17 -16 -32.5 -31.5l-31.5 -31.5q18 -18 36 -35.5t36 -35.5l62 63zM189 425q16 16 32 31.5t32 31.5q-18 17 -36.5 34.5t-36.5 35.5
l-62 -62zM564 224q30 32 62 62q-18 18 -35 36t-35 36q-15 -17 -31 -32.5t-32 -32.5zM468 322q16 16 30.5 31.5t30.5 31.5l-69 69q-16 -16 -31.5 -31t-30.5 -31zM380 234q15 16 30.5 31t30.5 31q-18 18 -35 35.5t-35 35.5l-60 -63q18 -17 34.5 -34.5t34.5 -35.5zM537 199
q-17 18 -33.5 35t-33.5 35q-17 -16 -32.5 -31t-30.5 -31q17 -18 34.5 -34.5t35.5 -34.5zM750 38q17 16 32 32t31 32q-17 17 -32.5 33t-33.5 33q-16 -16 -31.5 -31t-31.5 -32l33 -33t33 -34zM433 481l-33 33t-33 32q-33 -32 -63 -63q16 -16 32 -31.5t34 -32.5zM281 330
q16 17 31 32.5t31 31.5q-16 17 -32 33l-32 32q-16 -15 -31.5 -31t-31.5 -32q17 -17 32.5 -33t32.5 -33zM657 132q16 17 31 32l31 31l-65 66q-16 -16 -31.5 -32t-30.5 -32zM725 13l-66 66l-62 -62q18 -17 34 -32.5t32 -33.5zM570 47q16 14 30.5 29.5t29.5 30.5
q-16 17 -31.5 33t-31.5 33q-16 -15 -31.5 -30.5t-30.5 -32.5q17 -16 32.5 -32t32.5 -31zM849 647q-22 -20 -40.5 -39t-38.5 -39l79 -78v156zM87 -60l39 39t40 39q-21 20 -40 40t-39 40v-158zM87 322l39 39t40 39l-79 78v-156zM652 -82q-21 19 -39.5 38t-39.5 38
q-20 -19 -39 -38t-39 -38h157zM849 269q-20 -19 -39 -38l-38 -38l77 -77v153zM87 136q19 20 38 39l39 39q-20 19 -39 37t-38 37v-152zM740 599q20 19 39 38t38 37h-154q20 -18 39 -37zM774 380q18 -20 37 -38.5t38 -37.5v150q-19 -19 -38 -37t-37 -37zM364 600l37.5 37.5
t37.5 36.5h-150zM192 -10q-19 -18 -37 -36t-37 -36h149zM458 -82q-19 18 -37.5 35.5t-36.5 35.5l-72 -71h146zM551 602q18 18 35.5 36t35.5 36h-143zM849 80l-70 -69l70 -69v138zM753 -15q-18 -18 -34.5 -33.5t-34.5 -33.5h136zM153 585l-66 66v-132zM176 609
q18 17 33.5 32.5l32.5 32.5h-131z" />
    <glyph glyph-name="uni2668" unicode="&#x2668;" horiz-adv-x="940" 
d="M665 248q0 -45 -36 -114q-20 -39 -32 -67t-14 -45h-13q-8 32 -8 55q0 17 3 40t10 51q7 31 10.5 53.5t3.5 38.5q0 43 -22 109t-22 106q0 22 33 91q17 38 27.5 63t13.5 37h11q7 -14 7 -47q0 -12 -2 -30t-6 -42q-4 -23 -6 -41t-2 -31q0 -48 22 -115t22 -112zM538 260
q0 -51 -38 -125q-25 -48 -39.5 -77.5t-18.5 -43.5h-15q-2 10 -3.5 21.5t-1.5 25.5q0 38 19 95q19 58 19 97t-24 113q-24 73 -24 111q0 48 33 119q36 73 39 116h13q18 -38 18 -75q0 -27 -15 -79q-15 -51 -15 -76q0 -29 26 -109q27 -74 27 -113zM397 248q0 -44 -36 -113
q-20 -38 -32 -66.5t-14 -45.5h-12q-9 19 -9 56q0 39 13 90q7 28 10 51t3 41q0 38 -21 109q-20 78 -20 107q0 21 32 90q17 35 27.5 60t12.5 40h11q6 -20 6 -47q0 -13 -2 -31.5t-6 -43.5t-6 -43t-2 -31q0 -46 22 -113q23 -80 23 -110zM872 90q0 -42 -20.5 -73t-54.5 -54
t-77 -37.5t-89 -23.5t-90.5 -12.5t-80.5 -3.5q-33 0 -74.5 3.5t-85 12t-85.5 22.5t-74.5 35.5t-52.5 50.5t-20 68q0 34 22 62.5t54 50.5t69.5 36.5t69.5 20.5l4 -13q-19 -6 -44.5 -20t-49 -32.5t-39.5 -39.5t-16 -41q0 -27 17.5 -46.5t45 -33t63 -21.5t71 -12t68.5 -5.5
t57 -1.5q25 0 60.5 1.5t74 6t76.5 13t68.5 23t49.5 35.5t19 51q0 28 -29 58.5t-92 56.5l7 12q26 -5 57 -18.5t58 -33t45 -44.5t18 -53z" />
    <glyph glyph-name="uni260F" unicode="&#x260f;" horiz-adv-x="940" 
d="M879 386q0 55 -37 95.5t-118 67.5q-107 37 -253 37q-142 0 -258 -38q-81 -27 -118 -68t-37 -97q0 -22 7.5 -29t21.5 -7q15 0 33 4t46 13q33 11 46.5 19t13.5 20q0 5 -9 25q-9 21 -9 36q0 13 10 26.5t24 23.5q29 20 58 20q12 0 21 -14.5t9 -38.5q0 -57 -12.5 -104
t-41.5 -83q-23 -29 -48 -54.5t-48 -53.5q-8 -10 -13.5 -24t-10.5 -32q-3 -14 -6 -29t-6 -29q-2 -9 -12 -28q-7 -13 -7 -26q0 -11 5 -13t16 -2h612q26 0 36 5t10 21q0 14 -8 30q-6 13 -9.5 20.5t-4.5 9.5q-2 14 -5.5 35t-13.5 48q-8 22 -24.5 43t-38.5 44q-48 52 -62 79
q-28 52 -28 134q0 25 9 40.5t23 15.5t28.5 -3t28.5 -9q17 -8 28 -20.5t11 -24.5q0 -16 -10 -36t-10 -31t12.5 -19t43.5 -17q26 -8 44.5 -11t32.5 -3q16 0 22 6.5t6 25.5zM587 440q0 -41 -67 -41h-110q-58 0 -58 39v87q34 -5 63.5 -7.5t55.5 -2.5q25 0 53.5 2t62.5 6v-83z
M634 203q0 -35 -12.5 -65t-35 -52t-53 -34.5t-66.5 -12.5t-66.5 12.5t-53 34.5t-35 52t-12.5 65t12.5 65.5t34.5 53t53 35t67 12.5q37 0 67.5 -12.5t52.5 -35t34.5 -53t12.5 -65.5zM553 493q-17 -4 -35.5 -5.5t-47.5 -1.5q-27 0 -46 2t-39 7v-44q0 -11 7.5 -16.5t26.5 -5.5
h99q35 0 35 23v41zM595 204q0 27 -9 51t-26 42t-40.5 28.5t-51.5 10.5q-29 0 -53 -10t-41 -27.5t-26 -42t-9 -52.5q0 -57 33 -94t93 -37q28 0 52 10t41.5 27.5t27 41.5t9.5 52zM924 390q0 -35 -17 -55t-46 -20q-20 0 -48.5 6t-56.5 14q-38 11 -59 28.5t-21 36.5q0 14 11 40
q4 8 6 13.5t2 10.5q0 8 -9 12.5t-21 7.5q-4 1 -7 0t-3 -7v-22q0 -66 29 -115q7 -12 23 -31.5t39 -45.5q22 -23 37 -46t23 -44q5 -10 8 -22t5 -24q4 -19 6 -32t4 -17q0 -1 11 -20q9 -15 9 -28q0 -25 -22.5 -45t-64.5 -20h-626q-29 0 -41 16t-12 41q0 18 9 35q5 8 8 14t4 11
q2 14 5 27l6 26q11 38 24 62q12 19 60 70q21 21 36 40t23 35q14 23 21.5 51t7.5 60v31q0 6 -3.5 8.5t-7.5 0.5q-10 -3 -18 -9.5t-8 -22.5q0 -5 2 -8.5t4 -10.5q3 -9 6 -19.5t3 -20.5q0 -17 -21.5 -37.5t-58.5 -32.5q-26 -8 -55.5 -15.5t-51.5 -7.5q-27 0 -44.5 19t-17.5 52
q0 67 48 120t130 82q55 20 125 29.5t151 9.5q152 0 271 -38q88 -29 135.5 -79t47.5 -114z" />
    <glyph glyph-name="uni260E" unicode="&#x260e;" horiz-adv-x="940" 
d="M913 391q0 -64 -50 -64q-45 0 -103 19q-74 23 -74 55q0 13 9 36q10 21 10 33q0 11 -16.5 20t-33.5 9q-13 0 -13 -14v-29q0 -68 30 -119q7 -12 23 -31.5t41 -46.5q22 -23 36.5 -45.5t22.5 -43.5q8 -17 12 -46q3 -17 5.5 -29t4.5 -17q1 -7 12 -25q8 -14 8 -25
q0 -23 -20.5 -38t-51.5 -15h-632q-39 0 -39 45q0 17 9 32q5 8 8.5 15t4.5 12q2 14 5 27t6 27q5 19 10.5 34t12.5 26q12 19 60 70q22 22 37 41t23 35q28 49 28 115v42q0 9 -8 9q-16 0 -33 -13t-17 -29q0 -8 7.5 -26.5t7.5 -33.5q0 -37 -75 -62q-60 -21 -106 -21q-47 0 -47 61
q0 134 167 191q112 39 276 39q152 0 271 -38q172 -57 172 -182zM587 523q-34 -4 -62.5 -6t-53.5 -2q-26 0 -55.5 2.5t-63.5 7.5v-87q0 -39 58 -39h110q67 0 67 41v83zM633 203q0 35 -12.5 65.5t-35 52.5t-52.5 34.5t-66 12.5q-35 0 -65.5 -12.5t-53 -34.5t-35 -52.5
t-12.5 -65.5t13 -65t35.5 -51.5t52.5 -34t65 -12.5t65 12t52.5 34t35.5 52t13 65z" />
    <glyph glyph-name="uni261C" unicode="&#x261c;" horiz-adv-x="940" 
d="M780 187v21h-26q-13 -6 -25.5 -12t-25.5 -11q-26 -11 -54.5 -19t-60.5 -13q-31 -4 -112 -3q-74 2 -77 3q-20 0 -36 9q-19 10 -19 29q0 20 16 26q-22 0 -32 16q-6 9 -6 18q0 14 11 28q-12 0 -23.5 10t-12.5 22q0 36 81 39l-3 8q-23 1 -65 3t-103 5q-74 3 -75 4
q-49 7 -46 40q2 27 50 32q17 2 33 2t32 1q46 2 115.5 3.5t166.5 1.5q89 0 116 -3q75 -11 124 -55q2 -3 59 -5v31h73v-231h-75zM782 370q-1 0 -6.5 0.5l-16.5 1.5q-6 1 -11 1h-10q4 -9 4 -16q0 -3 -2 -3t-20 19q-22 21 -44 35q-43 28 -159 28q-18 0 -21 -1q-42 -9 -65 -24
q-11 -6 -21 -25q-11 -20 -20 -26q-1 -1 2.5 -4t10.5 -3t18 3q9 4 25 18q16 15 19 15q2 0 3 -1q3 -6 -4 -15q0 -2 17 -4q16 -2 24 0q5 2 11.5 4t13.5 6q13 7 14 7q2 0 2 -1q2 -10 -14 -23q5 -5 10.5 -10t11.5 -10q24 -21 55 -31q25 -7 65 -12q26 -5 26 -9q0 -6 -31 -5
q-30 2 -55 9q-41 12 -72 39l-26 26q-17 -3 -22 -3q-24 0 -42 7l-14 -13q8 -2 15.5 -3.5t14.5 -3.5q31 -9 33 -17q3 -8 3 -13q0 -14 -14 -28q9 0 20.5 -11.5t11.5 -20.5q0 -14 -16 -26q11 -3 16 -7q15 -9 16 -22q1 -18 -13 -32h4t8 -1h12t10 1q36 2 72 11.5t73 25.5
q55 22 58 27v-11q1 -1 20 0v151zM445 435q-61 0 -121.5 -1t-121.5 -3q-28 -1 -46.5 -2t-26.5 -3q-26 -5 -27 -19q0 -15 23 -21q17 -3 77 -6q39 -2 84.5 -3.5t99.5 -3.5q3 4 8 11.5t12 18.5q10 18 39 32zM839 401h-43v-198h43v198zM480 293q9 7 9 17q0 19 -28 23q-36 7 -87 3
q-34 1 -53 -12q-6 -5 -6 -12q0 -20 23 -20q2 -2 56 -2q78 0 86 3zM506 253q0 23 -44 23h-96q-10 0 -18.5 -7.5t-8.5 -15.5q0 -12 14 -20q2 -1 15.5 -2t36.5 -2q43 -2 48 0q17 0 30 4q22 6 23 16v4zM522 197q-3 17 -31 17h-48h-26.5t-35.5 -1q-19 -1 -19 -20q0 -16 13 -20
q16 -5 63 -6q45 0 47 2q11 0 23 6q17 9 14 22z" />
    <glyph glyph-name="uni261E" unicode="&#x261e;" horiz-adv-x="940" 
d="M158 418v-31q55 1 59 5q49 44 124 55q27 3 116 3q97 0 166.5 -1.5t115.5 -3.5q16 -1 32 -1t33 -2q48 -5 50 -32q3 -33 -46 -40q-1 -1 -75 -4q-61 -3 -103 -5t-65 -3l-3 -8q81 -3 81 -39q-1 -12 -12.5 -22t-23.5 -10q11 -14 11 -28q0 -9 -6 -18q-10 -16 -32 -16
q16 -6 16 -26q0 -19 -19 -29q-17 -9 -36 -9q-3 -1 -77 -3q-81 -1 -112 3q-59 9 -115 32q-13 5 -25.5 11t-25.5 12h-26v-21h-75v231h73zM158 219q19 -1 20 0v11q2 -5 58 -27q37 -16 73 -25.5t72 -11.5q5 -1 10 -1h12q5 1 8 1h4q-14 14 -13 32q1 13 16 22q5 4 16 7
q-16 12 -16 26q0 9 11.5 20.5t20.5 11.5q-14 14 -14 28q0 5 3 13q2 8 33 17q7 2 14.5 3.5t15.5 3.5l-14 13q-18 -7 -42 -7q-6 0 -22 3l-26 -26q-32 -27 -72 -39q-25 -7 -55 -9q-31 -1 -31 5q0 4 26 9q40 5 65 12q31 10 55 31q6 5 11.5 10t10.5 10q-16 13 -14 23q0 1 2 1
q1 0 14 -7q7 -4 13.5 -6t11.5 -4q7 -2 24 0t17 4q-7 9 -4 15q1 1 3 1t19 -15q16 -14 25 -18q10 -3 18 -3q7 0 10.5 3t2.5 4q-9 6 -20 26q-10 19 -21 25q-23 15 -65 24q-3 1 -21 1q-116 0 -159 -28q-23 -14 -44 -35q-18 -19 -20 -19t-2 3q0 7 4 16h-10t-11 -1l-16.5 -1.5
t-6.5 -0.5v-151zM495 435q29 -14 39 -32q7 -11 12 -18.5t8 -11.5q54 2 99.5 3.5t84.5 3.5q60 3 77 6q23 6 23 21q-1 14 -27 19q-8 2 -26.5 3t-46.5 2q-61 2 -121.5 3t-121.5 1zM144 401h-43v-198h43v198zM460 293q7 -3 86 -3q54 0 56 2q23 0 23 20q0 7 -6 12q-19 13 -53 12
q-51 4 -87 -3q-28 -4 -28 -23q0 -10 9 -17zM434 249q1 -10 23 -16q13 -4 30 -4q4 -2 48 0q23 1 36.5 2t15.5 2q14 8 14 20q0 8 -8.5 15.5t-18.5 7.5h-96q-44 0 -44 -23v-4zM418 197q-3 -13 14 -22q12 -6 23 -6q2 -2 47 -2q46 1 63 6q13 4 13 20q0 19 -19 20q-20 1 -35.5 1
h-26.5h-48q-28 0 -31 -17z" />
    <glyph glyph-name="paragraph" unicode="&#xb6;" horiz-adv-x="560" 
d="M239 242q-33 4 -66.5 18.5t-60.5 40.5t-44 66t-17 95q0 45 10.5 89t42 79.5t89 57t150.5 21.5q24 0 42 -1t33 -2.5t29 -4.5t30 -7v-775h-103v677h-25v-677h-110v323z" />
    <glyph glyph-name="dagger" unicode="&#x2020;" horiz-adv-x="640" 
d="M395 331v-414h-151v414h-174v127h174v218h151v-218h174v-127h-174z" />
    <glyph glyph-name="daggerdbl" unicode="&#x2021;" horiz-adv-x="640" 
d="M244 356v69h-173v127h173v125h151v-125h174v-127h-174v-69h174v-127h-174v-314h-151v314h-173v127h173z" />
    <glyph glyph-name="arrowupdn" unicode="&#x2195;" horiz-adv-x="700" 
d="M543 72l-194 -261l-193 261h119v456h-119l193 261l194 -261h-121v-456h121z" />
    <glyph glyph-name="uni2197" unicode="&#x2197;" horiz-adv-x="940" 
d="M796 564l-691 -763l-97 82l700 769l-106 107l309 14l-16 -307z" />
    <glyph glyph-name="uni2199" unicode="&#x2199;" horiz-adv-x="940" 
d="M142 27l692 764l97 -82l-701 -769l107 -107l-309 -14l16 307z" />
    <glyph glyph-name="uni2196" unicode="&#x2196;" horiz-adv-x="940" 
d="M42 467l-16 307l309 -14l-107 -107l701 -769l-97 -82l-692 763z" />
    <glyph glyph-name="uni2198" unicode="&#x2198;" horiz-adv-x="940" 
d="M895 126l16 -307l-309 14l106 107l-700 769l97 82l691 -764z" />
    <glyph glyph-name="uni266D" unicode="&#x266d;" horiz-adv-x="580" 
d="M490 302q0 -80 -30.5 -143.5t-84 -108t-127 -68.5t-159.5 -26v742h149v-300q23 35 51.5 48t51.5 13q76 0 112.5 -41.5t36.5 -115.5zM337 271q0 51 -30 51q-10 0 -20 -7t-19 -18.5t-16.5 -25.5t-13.5 -29v-132q99 53 99 161z" />
    <glyph glyph-name="uni2669" unicode="&#x2669;" horiz-adv-x="400" 
d="M309 70q0 -31 -13.5 -61.5t-37 -54.5t-54 -38.5t-64.5 -14.5q-39 0 -62 16t-23 59q0 23 11.5 44t30.5 37t44 25.5t51 9.5h9q3 0 4 1.5t1 8.5v621h103v-653z" />
    <glyph glyph-name="musicalnote" unicode="&#x266a;" horiz-adv-x="600" 
d="M298 70q0 -31 -13.5 -61.5t-37 -54.5t-54 -38.5t-64.5 -14.5q-39 0 -62 16t-23 59q0 23 11.5 44t30.5 37t44 25.5t51 9.5h9q3 0 4 1.5t1 8.5v617h73q30 -52 71.5 -90t91.5 -74q33 -24 56 -47.5t38 -50t22 -57.5t7 -69q0 -40 -10.5 -74.5t-31 -65.5t-50 -59.5t-67.5 -56.5
l-39 44q30 31 48.5 57.5t28.5 49.5t13.5 43t3.5 38t-6 33.5t-21 30.5q-28 28 -60.5 49.5t-64.5 47.5v-398v0z" />
    <glyph glyph-name="uni266C" unicode="&#x266c;" horiz-adv-x="840" 
d="M751 180q0 -31 -13.5 -61.5t-37 -54.5t-54 -38.5t-64.5 -14.5q-39 0 -62 16t-23 59q0 23 11.5 44t30.5 37t44 25.5t51 9.5h9q3 0 4 1.5t1 8.5v206l-344 -73v-275q0 -31 -13.5 -61.5t-37 -54.5t-54 -38.5t-64.5 -14.5q-39 0 -62 16t-23 59q0 23 11.5 44t30.5 37t44 25.5
t51 9.5h9q3 0 4 1.5t1 8.5v536l550 116v-574zM652 593l-345 -77v-31l345 77v31z" />
    <glyph glyph-name="uni327F" unicode="&#x327f;" horiz-adv-x="940" 
d="M785 444q-19 49 -51.5 87.5t-74.5 65.5t-90.5 42t-100.5 16q-63 1 -121.5 -20t-105 -60t-76.5 -95t-36 -125h115v-70h-194v20q0 93 33 170.5t90 133t133 86t162 30.5q66 0 128 -20.5t114.5 -57t92.5 -88.5t61 -115h-79zM572 90l-164 189l-4 -5v-184h-82v449h82v-169
l143 165h103l-186 -208l217 -237h-109zM890 305q0 -87 -33.5 -163.5t-91 -133.5t-134 -90t-163.5 -33q-71 0 -138.5 24.5t-123 68t-94.5 103.5t-53 131l77 1q14 -56 46 -103.5t76 -82t98 -54t112 -19.5q68 0 130.5 25.5t111 70.5t78 105.5t31.5 129.5h-193v70h261
q3 -26 3 -50z" />
    <glyph glyph-name="uni321C" unicode="&#x321c;" horiz-adv-x="940" 
d="M245 620h449v-121h-127q23 -29 62 -48.5t90 -35.5l-45 -119q-64 17 -117 46t-88 77q-37 -48 -88.5 -77t-120.5 -46l-46 119q54 15 94 35t63 49h-126v121zM773 728q83 -94 118 -203t35 -225q0 -57 -8.5 -116t-26.5 -115.5t-47 -109t-70 -96.5h-127q42 48 71 101.5
t47.5 110t27 113.5t8.5 112t-8.5 111.5t-26.5 111t-47.5 106.5t-71.5 99h126zM294 728q-42 -47 -71.5 -99t-47.5 -106.5t-26.5 -111t-8.5 -111.5t8.5 -112t27 -113.5t47.5 -110t71 -101.5h-127q-41 44 -70 96.5t-47 109t-26.5 115.5t-8.5 116q0 116 35 225t118 203h126z
M393 -37v186h-214v124h579v-124h-215v-186h-150z" />
    <glyph glyph-name="uni2116" unicode="&#x2116;" horiz-adv-x="940" 
d="M407 -54h-143l-109 381v-381h-127v736h147l105 -371v371h127v-736zM610 372q-12 0 -18.5 -13.5t-10.5 -36t-5 -51.5t-1 -60q0 -76 8.5 -115.5t26.5 -39.5q19 0 26.5 39.5t7.5 115.5q0 31 -1 60t-4 51.5t-10 36t-19 13.5zM917 -56h-133v133h133v-133zM610 -62
q-52 0 -86.5 23t-55 61.5t-29 87.5t-8.5 101q0 54 8.5 104.5t28.5 89.5t54.5 62t87.5 23t87 -23t54 -62t28 -89.5t8 -104.5q0 -52 -8 -101t-28.5 -87.5t-54.5 -61.5t-86 -23z" />
    <glyph glyph-name="uni33C7" unicode="&#x33c7;" horiz-adv-x="940" 
d="M31 310q0 88 14.5 157.5t44.5 118t77.5 74t113.5 25.5q24 0 43.5 -3t37 -10.5t34.5 -20.5t37 -33l-65 -127q-17 16 -28.5 28t-21 19.5t-18.5 11t-20 3.5q-32 0 -51 -23t-29 -58.5t-13.5 -78.5t-3.5 -83q0 -38 3.5 -80.5t13.5 -78t29 -59t51 -23.5q12 0 22.5 2t22 9t24 19
t28.5 33l70 -112q-40 -47 -78 -65t-88 -18q-66 0 -113.5 26t-77.5 75t-44.5 117.5t-14.5 154.5zM610 372q-12 0 -18.5 -13.5t-10.5 -36t-5 -51.5t-1 -60q0 -76 8.5 -115.5t26.5 -39.5q19 0 26.5 39.5t7.5 115.5q0 31 -1 60t-4 51.5t-10 36t-19 13.5zM917 -56h-133v133h133
v-133zM610 -62q-52 0 -86.5 23t-55 61.5t-29 87.5t-8.5 101q0 54 8.5 104.5t28.5 89.5t54.5 62t87.5 23t87 -23t54 -62t28 -89.5t8 -104.5q0 -52 -8 -101t-28.5 -87.5t-54.5 -61.5t-86 -23z" />
    <glyph glyph-name="trademark" unicode="&#x2122;" horiz-adv-x="800" 
d="M268 607v-253h-147v253h-89v122h327v-122h-91zM645 354v96l-33 -96h-80l-38 103v-103h-114v375h106l85 -212l79 212h109v-375h-114z" />
    <glyph glyph-name="uni33C2" unicode="&#x33c2;" horiz-adv-x="940" 
d="M688 315q0 34 -0.5 44.5t-5.5 10.5q-7 0 -10.5 -9.5t-8.5 -23.5v-389h-120v361q0 35 -1 48t-6 13q-7 0 -10 -11.5t-8 -31.5v-379h-122v531h113v-23q8 17 21.5 25.5t27.5 8.5q21 0 37 -15.5t26 -36.5q15 27 36.5 39.5t43.5 12.5q63 0 86 -42.5t23 -123.5v-376h-122v367z
M31 94q0 88 41.5 139t108.5 55v8q0 80 -35 80q-10 0 -23.5 -10.5t-36.5 -40.5l-51 92q26 32 57 54.5t73 22.5q37 0 61.5 -16t39.5 -43t21 -63.5t6 -77.5v-346h-104v20q-10 -16 -25 -23.5t-28 -7.5q-28 0 -48 13t-32.5 34.5t-18.5 50t-6 59.5zM384 -49h-77v118h77v-118z
M900 -49h-77v118h77v-118zM163 52q6 0 9.5 3t5.5 12.5t2.5 27t0.5 47.5v40q-15 -8 -25 -28.5t-10 -49.5q0 -32 4 -42t13 -10z" />
    <glyph glyph-name="uni33D8" unicode="&#x33d8;" horiz-adv-x="940" 
d="M688 315q0 34 -0.5 44.5t-5.5 10.5q-7 0 -10.5 -9.5t-8.5 -23.5v-389h-120v361q0 35 -1 48t-6 13q-7 0 -10 -11.5t-8 -31.5v-379h-122v531h113v-23q8 17 21.5 25.5t27.5 8.5q21 0 37 -15.5t26 -36.5q15 27 36.5 39.5t43.5 12.5q63 0 86 -42.5t23 -123.5v-376h-122v367z
M138 480v-25q14 19 31 27t31 8q57 0 86.5 -72t29.5 -211q0 -59 -6.5 -108.5t-21.5 -85.5t-39 -56.5t-58 -20.5q-10 0 -21 4t-22 14v-181h-118v707h108zM149 153q0 -93 25 -93q14 0 18 41.5t4 108.5q0 77 -3.5 117t-19.5 40q-10 0 -17 -23.5t-7 -70.5v-120zM384 -49h-77v118
h77v-118zM900 -49h-77v118h77v-118z" />
    <glyph glyph-name="uni2121" unicode="&#x2121;" horiz-adv-x="940" 
d="M-2 547v133h439v-133h-143v-598h-161v598h-135zM526 368q-26 0 -39.5 -23.5t-17.5 -52.5h103q-4 28 -14 52t-32 24zM713 8q-45 -38 -85.5 -54.5t-90.5 -16.5q-47 0 -86 17.5t-67 52t-43 87t-15 121.5q0 61 12 112t36.5 88t62 57t89.5 20q68 0 107.5 -31t59 -78.5
t23.5 -105t1 -111.5h-252q3 -31 10 -51t17.5 -31.5t23 -16t26.5 -4.5q12 0 24 1t27 6.5t34 15.5t45 28zM904 711v-763h-160v763h160z" />
    <glyph glyph-name="uniFF01" unicode="&#xff01;" horiz-adv-x="1000" 
d="M432 -175q-14 0 -20 5t-6 20v126q0 15 6 20t20 5h135q14 0 20 -5t6 -20v-126q0 -15 -6 -20t-20 -5h-135zM432 66q-14 0 -20 5t-6 20v659q0 15 6 20t20 5h135q14 0 20 -5t6 -20v-659q0 -15 -6 -20t-20 -5h-135z" />
    <glyph glyph-name="uniFF02" unicode="&#xff02;" horiz-adv-x="1000" 
d="M343 450q-14 0 -19.5 5t-6.5 20l-10 275q-1 15 5.5 20t20.5 5h117q14 0 20.5 -5t5.5 -20l-10 -275q-1 -15 -6.5 -20t-19.5 -5h-97zM559 450q-14 0 -19.5 5t-6.5 20l-10 275q-1 15 5.5 20t20.5 5h117q14 0 20.5 -5t5.5 -20l-10 -275q-1 -15 -6.5 -20t-19.5 -5h-97z" />
    <glyph glyph-name="uniFF03" unicode="&#xff03;" horiz-adv-x="1000" 
d="M600 -160q-14 0 -20 5t-6 20v180h-133v-180q0 -15 -6 -20t-20 -5h-130q-14 0 -20 5t-6 20v180h-98q-14 0 -20 5t-6 20v117q0 15 6 20t20 5h98v154h-98q-14 0 -20 5t-6 20v117q0 15 6 20t20 5h98v180q0 15 6 20t20 5h130q14 0 20 -5t6 -20v-180h133v180q0 15 6 20t20 5
h130q14 0 20 -5t6 -20v-180h82q14 0 20 -5t6 -20v-117q0 -15 -6 -20t-20 -5h-82v-154h82q14 0 20 -5t6 -20v-117q0 -15 -6 -20t-20 -5h-82v-180q0 -15 -6 -20t-20 -5h-130zM441 212h133v154h-133v-154z" />
    <glyph glyph-name="uniFF04" unicode="&#xff04;" horiz-adv-x="1000" 
d="M622 689q32 -5 61 -10t49 -8q14 -3 20.5 -8.5t4.5 -20.5l-9 -94q-2 -17 -8 -21.5t-24 -2.5q-20 1 -51 4t-64 6l-25 -184q57 -20 95 -40t61 -47t33 -62.5t10 -85.5q0 -120 -67.5 -180.5t-197.5 -65.5l-4 -32q-2 -15 -7 -20t-19 -5h-92q-14 0 -18.5 5t-2.5 20l6 43
q-34 5 -62.5 10.5t-42.5 7.5t-18.5 7t-2.5 19l13 105q2 10 5.5 13.5t16.5 1.5q17 -2 47 -5.5t65 -6.5l27 200q-53 18 -90.5 38t-61 46.5t-34.5 61.5t-11 82q0 110 69 170.5t192 66.5l6 46q2 15 7 20t19 5h92q14 0 18.5 -5t2.5 -20zM610 112q0 24 -11.5 41.5t-44.5 33.5
l-22 -158q42 6 60 26t18 57zM389 471q0 -28 11 -44t44 -31l19 140q-39 -7 -56.5 -24t-17.5 -41z" />
    <glyph glyph-name="uniFF05" unicode="&#xff05;" horiz-adv-x="1000" 
d="M269 615q-19 0 -27 -17t-8 -47t8 -48t27 -18t27 18t8 48t-8 47t-27 17zM106 551q0 85 39 136.5t124 51.5t123.5 -51.5t38.5 -136.5q0 -42 -9.5 -77t-29 -60t-50.5 -39t-73 -14t-73 14t-51 39t-29.5 60t-9.5 77zM731 95q-19 0 -27 -17t-8 -47t8 -48t27 -18t27 18t8 48
t-8 47t-27 17zM568 31q0 85 39 136.5t124 51.5t123.5 -51.5t38.5 -136.5q0 -42 -9.5 -77t-29 -60t-50.5 -39t-73 -14t-73 14t-51 39t-29.5 60t-9.5 77zM279 -159q-14 0 -17.5 5.5t1.5 19.5l300 847q5 14 13.5 19.5t22.5 5.5h127q14 0 17.5 -5.5t-1.5 -19.5l-300 -847
q-5 -14 -13.5 -19.5t-22.5 -5.5h-127z" />
    <glyph glyph-name="uniFF06" unicode="&#xff06;" horiz-adv-x="1000" 
d="M458 748q123 0 187.5 -58t64.5 -159q0 -42 -9 -75t-29 -62.5t-51 -58t-75 -60.5l97 -99q7 29 12.5 57t11.5 59q4 19 11.5 23t25.5 3l102 -2q17 0 21 -6.5t2 -23.5q-3 -26 -9.5 -56t-14.5 -59t-16.5 -55t-15.5 -44l118 -109q13 -13 12 -22t-9 -18l-67 -74q-14 -19 -33 -2
l-110 95q-34 -26 -65.5 -47t-65 -35t-72.5 -21.5t-88 -7.5q-67 0 -121.5 18t-93.5 53.5t-60 87t-21 118.5q0 46 13.5 83.5t36.5 69t54.5 56.5t67.5 46q-36 49 -50 90t-14 92q0 45 18 82.5t51 64t80 41.5t104 15zM397 -12q25 0 45 3t38.5 10t37.5 18t41 27l-189 201
q-50 -20 -74 -58t-25 -79q0 -23 7.5 -45t23.5 -39t39.5 -27.5t55.5 -10.5zM372 520q0 -39 14 -66t42 -57l17 -19q24 18 42 33t30 30.5t18 32.5t6 39q0 36 -21 62t-62 26q-40 0 -63 -24.5t-23 -56.5z" />
    <glyph glyph-name="uniFF07" unicode="&#xff07;" horiz-adv-x="1000" 
d="M451 450q-14 0 -19.5 5t-6.5 20l-10 275q-1 15 5.5 20t20.5 5h117q14 0 20.5 -5t5.5 -20l-10 -275q-1 -15 -6.5 -20t-19.5 -5h-97z" />
    <glyph glyph-name="uniFF08" unicode="&#xff08;" horiz-adv-x="1000" 
d="M820 299q0 -72 12 -142t29 -130.5t35.5 -107t30.5 -70.5q14 -29 -22 -29h-113q-18 0 -30 2t-22 21q-12 23 -31.5 68t-37.5 105.5t-31 133t-13 149.5t13 149.5t31 133t37.5 105.5t31.5 68q10 19 22 21t30 2h113q36 0 22 -29q-12 -24 -30.5 -70.5t-35.5 -107t-29 -130.5
t-12 -142z" />
    <glyph glyph-name="uniFF09" unicode="&#xff09;" horiz-adv-x="1000" 
d="M179 299q0 72 -12 142t-29 130.5t-35.5 107t-30.5 70.5q-15 29 22 29h113q18 0 30 -2t22 -21q12 -23 31.5 -68t37.5 -105.5t31 -133t13 -149.5t-13 -149.5t-31 -133t-37.5 -105.5t-31.5 -68q-10 -19 -22 -21t-30 -2h-113q-37 0 -22 29q12 24 30.5 70.5t35.5 107t29 130.5
t12 142z" />
    <glyph glyph-name="uniFF0A" unicode="&#xff0a;" horiz-adv-x="1000" 
d="M499 414l-77 -109q-8 -12 -16.5 -12.5t-19.5 7.5l-60 44q-11 8 -13.5 15t6.5 19l78 104l-126 44q-14 5 -17 12t2 20l24 70q5 13 11.5 17t20.5 -1l125 -40v109q0 15 6 20t20 5h73q14 0 20 -5t6 -20v-109l125 40q14 5 20.5 1t11.5 -17l24 -70q5 -13 2 -20t-17 -12l-126 -44
l78 -104q9 -12 6.5 -19t-13.5 -15l-60 -44q-11 -8 -19.5 -7.5t-16.5 12.5z" />
    <glyph glyph-name="uniFF0B" unicode="&#xff0b;" horiz-adv-x="1000" 
d="M435 -98q-14 0 -20 5t-6 20v175h-163q-14 0 -20 5t-6 20v117q0 15 6 20t20 5h163v175q0 15 6 20t20 5h130q14 0 20 -5t6 -20v-175h162q14 0 20 -5t6 -20v-117q0 -15 -6 -20t-20 -5h-162v-175q0 -15 -6 -20t-20 -5h-130z" />
    <glyph glyph-name="uniFF0C" unicode="&#xff0c;" horiz-adv-x="1000" 
d="M274 -148q0 -36 -9.5 -67t-31.5 -55t-58 -40.5t-89 -22.5v37q10 2 21.5 9.5t21.5 22.5t16.5 38.5t7.5 58.5h-39q-14 0 -20 5t-6 20v125q0 15 6 20t20 5h134q14 0 20 -5t6 -20v-131z" />
    <glyph glyph-name="uniFF0D" unicode="&#xff0d;" horiz-adv-x="1000" 
d="M240 344q0 15 6 20t20 5h467q14 0 20 -5t6 -20v-117q0 -15 -6 -20t-20 -5h-467q-14 0 -20 5t-6 20v117z" />
    <glyph glyph-name="uniFF0E" unicode="&#xff0e;" horiz-adv-x="1000" 
d="M113 -168q-14 0 -20 5t-6 20v126q0 15 6 20t20 5h134q14 0 20 -5t6 -20v-126q0 -15 -6 -20t-20 -5h-134z" />
    <glyph glyph-name="uniFF0F" unicode="&#xff0f;" horiz-adv-x="1000" 
d="M306 -159q-14 0 -20 5.5t-1 19.5l250 847q5 14 11 19.5t20 5.5h127q14 0 20 -5.5t1 -19.5l-250 -847q-5 -14 -11 -19.5t-20 -5.5h-127z" />
    <glyph glyph-name="uniFF10" unicode="&#xff10;" horiz-adv-x="1000" 
d="M500 -167q-80 0 -142.5 25t-105 79t-65 140t-22.5 208t22.5 209.5t65 143.5t105 82.5t142.5 26.5t142.5 -26.5t105 -82.5t65 -143.5t22.5 -209.5t-22.5 -208t-65 -140t-105 -79t-142.5 -25zM500 -1q35 0 62 15t45 49t27 88.5t9 133.5q0 157 -36.5 226.5t-106.5 69.5
q-71 0 -107 -69.5t-36 -226.5q0 -79 9 -133.5t27 -88.5t45 -49t62 -15z" />
    <glyph glyph-name="uniFF11" unicode="&#xff11;" horiz-adv-x="1000" 
d="M561 -159q-14 0 -20 5t-6 20v663l-164 -107q-22 -14 -34 7l-57 97q-8 14 -7.5 22.5t13.5 16.5l249 165q8 5 13 6.5t15 1.5h138q14 0 20 -5t6 -20v-847q0 -15 -6 -20t-20 -5h-140z" />
    <glyph glyph-name="uniFF12" unicode="&#xff12;" horiz-adv-x="1000" 
d="M778 -134q0 -15 -6 -20t-20 -5h-510q-14 0 -17.5 4t-3.5 18v116q0 9 1 15t3.5 11t6.5 10t11 12l156 157q85 85 132.5 156.5t47.5 134.5q0 32 -8 53t-25 33t-44 16.5t-64 3.5q-23 -1 -46.5 -4t-46.5 -6.5t-43 -7.5l-35 -7q-17 -4 -24 1.5t-8 21.5l-8 107q-1 15 4.5 22.5
t23.5 10.5q17 3 42 7.5t55.5 9t64 8t67.5 3.5q147 0 213 -63t66 -183q0 -50 -9.5 -94.5t-31 -88.5t-56 -89t-83.5 -95l-123 -127h292q14 0 20 -5t6 -20v-116z" />
    <glyph glyph-name="uniFF13" unicode="&#xff13;" horiz-adv-x="1000" 
d="M306 346q0 15 6 20t20 5h147q22 0 42 7t35 20.5t23.5 32.5t8.5 43q0 51 -35.5 79.5t-92.5 28.5q-49 0 -96.5 -6t-76.5 -13q-35 -8 -39 27l-10 98q-3 31 25 35q17 3 43 7.5t57 8t66 6.5t70 3q69 0 120.5 -15.5t86 -43.5t51.5 -66t17 -84q0 -28 -2.5 -57t-12.5 -57.5
t-30 -56.5t-56 -55q34 -23 56.5 -47t35.5 -51t18.5 -59t5.5 -70q0 -57 -19.5 -103.5t-57 -80t-92 -52t-124.5 -18.5q-35 0 -71.5 3t-70.5 7t-63.5 8.5t-49.5 7.5t-25.5 11t-3.5 25l11 105q2 16 10 20.5t26 -0.5t43.5 -8.5t54 -6.5t58 -4.5t55.5 -1.5q134 0 134 113
q0 48 -34.5 71t-90.5 23h-147q-14 0 -20 5t-6 20v116z" />
    <glyph glyph-name="uniFF14" unicode="&#xff14;" horiz-adv-x="1000" 
d="M830 10q0 -15 -6 -20t-20 -5h-68v-119q0 -15 -6 -20t-20 -5h-130q-14 0 -20 5t-6 20v119h-354q-16 0 -23.5 5.5t-7.5 22.5v96q0 10 1 18.5t5 19.5l199 569q5 13 10 17.5t16 4.5h138q17 0 22 -6t0 -23l-184 -558h178v259q0 15 6 20t20 5h130q14 0 20 -5t6 -20v-259h68
q14 0 20 -5t6 -20v-116z" />
    <glyph glyph-name="uniFF15" unicode="&#xff15;" horiz-adv-x="1000" 
d="M756 598q0 -15 -6 -20t-20 -5h-311l-9 -169q29 7 49 10t49 3q140 0 212 -63.5t72 -204.5q0 -74 -21 -131.5t-60.5 -96.5t-95.5 -59.5t-126 -20.5q-37 0 -73 3t-69 8t-61.5 10t-49.5 10q-18 4 -24 12t-4 25l13 104q2 17 10.5 20.5t22.5 1.5q20 -4 45 -8.5t53.5 -8.5
t59 -6.5t60.5 -2.5q32 0 57 6t42.5 21t27 40t9.5 63q0 56 -32 83.5t-88 27.5q-30 0 -54.5 -3t-52.5 -11q-21 -5 -36 -2l-85 18q-23 5 -29 21t-4 37l22 363q2 39 15 52.5t51 13.5h415q14 0 20 -5t6 -20v-116z" />
    <glyph glyph-name="uniFF16" unicode="&#xff16;" horiz-adv-x="1000" 
d="M748 586q-2 -14 -7.5 -16.5t-19.5 -0.5q-27 3 -78.5 8.5t-109.5 5.5q-42 0 -72 -17.5t-49.5 -47.5t-28.5 -69.5t-9 -84.5q43 17 78.5 25t72.5 8q139 0 210.5 -66.5t71.5 -211.5q0 -73 -21 -127t-60 -90t-95 -53.5t-125 -17.5q-82 0 -141 29t-97.5 85t-57 138t-18.5 189
q0 128 23.5 218.5t68 148t107.5 84t142 26.5q27 0 55 -2t54.5 -5t49 -6.5t39.5 -6.5q19 -4 23.5 -10.5t2.5 -25.5zM510 243q-30 0 -63.5 -7t-72.5 -16q0 -42 6 -83t21 -73.5t40.5 -52t64.5 -19.5q71 0 102.5 32t31.5 95q0 60 -36 92t-94 32z" />
    <glyph glyph-name="uniFF17" unicode="&#xff17;" horiz-adv-x="1000" 
d="M226 713q0 15 6 20t20 5h491q18 0 24.5 -5.5t6.5 -24.5v-139q0 -18 -3.5 -34t-10.5 -32l-282 -644q-10 -22 -18.5 -28t-28.5 1l-101 35q-16 6 -21 14t4 29l272 624v37h-333q-14 0 -20 5t-6 20v117z" />
    <glyph glyph-name="uniFF18" unicode="&#xff18;" horiz-adv-x="1000" 
d="M814 503q0 -74 -29.5 -120.5t-85.5 -82.5q23 -10 46 -28t41 -43.5t29.5 -59t11.5 -75.5q0 -68 -26 -117.5t-70.5 -82t-104.5 -48t-128 -15.5t-127 13.5t-103 43t-69.5 76.5t-25.5 115q0 43 11.5 77t31.5 60t47 44.5t58 30.5q-30 16 -55 36t-42 45.5t-26.5 58t-9.5 74.5
q0 55 22 100t62.5 77t98 49t127.5 17q69 0 127 -17t100 -49t65.5 -77t23.5 -102zM647 107q0 25 -15 47t-39 38.5t-55 27t-62 12.5q-60 -20 -91 -52t-31 -78q0 -54 36 -84t108 -30q73 0 111 32.5t38 86.5zM373 485q0 -23 11.5 -43t30.5 -36t43 -27t50 -17q55 17 88 47t33 76
q0 51 -32.5 82t-95.5 31q-62 0 -95 -31t-33 -82z" />
    <glyph glyph-name="uniFF19" unicode="&#xff19;" horiz-adv-x="1000" 
d="M251 -6q2 14 7.5 16.5t19.5 0.5q27 -3 78.5 -8.5t109.5 -5.5q42 0 72 17.5t49.5 47.5t28.5 69.5t9 84.5q-43 -17 -78.5 -25t-72.5 -8q-139 0 -210.5 66.5t-71.5 211.5q0 73 21 127t60 90t95 53.5t125 17.5q163 0 238.5 -113.5t75.5 -327.5q0 -128 -24 -218.5t-68 -148
t-107 -84t-142 -26.5q-27 0 -55 2t-54.5 5t-49.5 6.5t-39 6.5q-19 4 -23.5 10.5t-2.5 25.5zM489 337q30 0 63.5 7t72.5 16q0 42 -6 83t-21 73.5t-40.5 52t-64.5 19.5q-71 0 -102.5 -32t-31.5 -95q0 -60 36 -92t94 -32z" />
    <glyph glyph-name="uniFF1A" unicode="&#xff1a;" horiz-adv-x="1000" 
d="M433 402q-14 0 -20 5t-6 20v126q0 15 6 20t20 5h134q14 0 20 -5t6 -20v-126q0 -15 -6 -20t-20 -5h-134zM433 2q-14 0 -20 5t-6 20v126q0 15 6 20t20 5h134q14 0 20 -5t6 -20v-126q0 -15 -6 -20t-20 -5h-134z" />
    <glyph glyph-name="uniFF1B" unicode="&#xff1b;" horiz-adv-x="1000" 
d="M434 402q-14 0 -20 5t-6 20v126q0 15 6 20t20 5h134q14 0 20 -5t6 -20v-126q0 -15 -6 -20t-20 -5h-134zM594 22q0 -36 -9.5 -67t-31.5 -55t-58 -40.5t-89 -22.5v37q10 2 21.5 9.5t21.5 22.5t16.5 38.5t7.5 58.5h-39q-14 0 -20 5t-6 20v125q0 15 6 20t20 5h134q14 0 20 -5
t6 -20v-131z" />
    <glyph glyph-name="uniFF1C" unicode="&#xff1c;" horiz-adv-x="1000" 
d="M645 309l266 -224q11 -9 12.5 -14t1.5 -15v-184q0 -14 -7 -17t-16 5l-406 339q-13 11 -17.5 20t-4.5 26v127q0 17 4.5 26t17.5 20l406 339q9 8 16 5t7 -17v-184q0 -10 -1.5 -15t-12.5 -14z" />
    <glyph glyph-name="uniFF1D" unicode="&#xff1d;" horiz-adv-x="1000" 
d="M240 484q0 15 6 20t20 5h467q14 0 20 -5t6 -20v-117q0 -15 -6 -20t-20 -5h-467q-14 0 -20 5t-6 20v117zM240 194q0 15 6 20t20 5h467q14 0 20 -5t6 -20v-117q0 -15 -6 -20t-20 -5h-467q-14 0 -20 5t-6 20v117z" />
    <glyph glyph-name="uniFF1E" unicode="&#xff1e;" horiz-adv-x="1000" 
d="M88 532q-11 9 -12.5 14t-1.5 15v184q0 14 7 17t16 -5l406 -339q13 -11 17.5 -20t4.5 -26v-127q0 -17 -4.5 -26t-17.5 -20l-406 -339q-9 -8 -16 -5t-7 17v184q0 10 1.5 15t12.5 14l266 224z" />
    <glyph glyph-name="uniFF1F" unicode="&#xff1f;" horiz-adv-x="1000" 
d="M365 -175q-14 0 -20 5t-6 20v126q0 15 6 20t20 5h135q14 0 20 -5t6 -20v-126q0 -15 -6 -20t-20 -5h-135zM339 176q0 44 16.5 75.5t41.5 55t54.5 43t54.5 40.5t41.5 46t16.5 61q0 24 -3 42t-13.5 30.5t-32.5 18.5t-59 6q-16 0 -36.5 -1.5t-41.5 -4t-41 -5.5t-36 -6
q-17 -3 -29 0.5t-15 29.5l-12 101q-2 12 1 20t8 12.5t11 6.5t10 3q55 12 111.5 19.5t110 5.5t100.5 -15.5t82.5 -43.5t56 -77.5t20.5 -117.5q0 -59 -17 -101.5t-42.5 -74t-55.5 -54t-55.5 -41.5t-42.5 -37t-17 -41v-81q0 -15 -6 -20t-20 -5h-135q-14 0 -20 5t-6 20v85z" />
    <glyph glyph-name="uniFF20" unicode="&#xff20;" horiz-adv-x="1000" 
d="M931 317q0 -81 -11 -137t-33 -91t-56 -50.5t-80 -15.5q-86 0 -128 43q-29 -18 -70.5 -30t-79.5 -12q-90 0 -137 56.5t-47 191.5q0 60 8 108.5t29 83t57.5 53t93.5 18.5q24 0 42 -4t40 -17v10q0 13 13 13h114q9 0 12.5 -3t3.5 -13v-192q0 -60 2 -95.5t7 -53.5t14 -23.5
t23 -5.5q13 0 21.5 6.5t14 25t7.5 51t2 83.5q0 86 -15.5 143t-49.5 91t-89 48t-133 14q-80 0 -137 -20t-93 -60t-53 -101t-17 -142q0 -89 13.5 -151t47 -100.5t91.5 -55.5t148 -17q19 0 52.5 2t58.5 4q17 2 23.5 -3.5t7.5 -19.5l3 -80q1 -16 -5 -22.5t-23 -8.5
q-12 -2 -27.5 -3.5t-31.5 -2t-31 -1t-27 -0.5q-110 0 -192 21.5t-137 74.5t-82 141t-27 222q0 118 30 204.5t86.5 142.5t138 83.5t183.5 27.5q219 0 322 -107.5t103 -323.5zM494 155q23 0 37 4l35 10q-4 23 -5.5 48t-1.5 53v131q-27 9 -52 9q-21 0 -35 -6t-23 -21.5
t-12.5 -42t-3.5 -68.5q0 -66 18.5 -91.5t42.5 -25.5z" />
    <glyph glyph-name="uniFF21" unicode="&#xff21;" horiz-adv-x="1000" 
d="M644 -3h-289l-26 -125q-5 -20 -12 -25.5t-29 -5.5h-119q-21 0 -27.5 7.5t-1.5 28.5l177 813q2 9 5 17.5t9 15.5t17.5 11t29.5 4h243q18 0 29.5 -4t17.5 -11t9 -15.5t5 -17.5l177 -813q5 -21 -1.5 -28.5t-27.5 -7.5h-119q-22 0 -29 5.5t-12 25.5zM390 164h219l-85 409h-49
z" />
    <glyph glyph-name="uniFF22" unicode="&#xff22;" horiz-adv-x="1000" 
d="M363 213v-215h154q111 0 111 109q0 54 -28.5 80t-82.5 26h-154zM363 581v-214h140q53 0 76.5 30t23.5 83q0 101 -102 101h-138zM303 -159q-42 0 -66 9t-36.5 25.5t-16 40t-3.5 51.5v646q0 34 6 58t20 39t37 21.5t58 6.5h213q61 0 112 -12.5t87.5 -40t56.5 -71t20 -104.5
q0 -44 -5.5 -76t-16 -56.5t-27 -43t-38.5 -34.5q30 -13 51.5 -30.5t35.5 -42t20.5 -57t6.5 -76.5q0 -66 -20 -114t-57.5 -78.5t-90.5 -45.5t-119 -15h-228z" />
    <glyph glyph-name="uniFF23" unicode="&#xff23;" horiz-adv-x="1000" 
d="M795 -104q1 -20 -3.5 -28t-23.5 -13q-18 -5 -45.5 -10t-59 -9t-64 -7t-60.5 -3q-102 0 -168 28.5t-103.5 85.5t-52 144t-14.5 204q0 127 17.5 214.5t57.5 142t104.5 79t158.5 24.5q31 0 64.5 -3.5t65 -8.5t58.5 -10.5t45 -9.5q12 -3 19 -8.5t6 -29.5l-4 -79
q-1 -20 -10 -27t-23 -5q-19 2 -43.5 4.5t-50.5 5t-50.5 4t-43.5 1.5q-51 0 -85.5 -13t-55.5 -46t-29.5 -90t-8.5 -145q0 -83 7 -139.5t27.5 -91t56.5 -49.5t93 -15q17 0 40.5 2t48.5 4.5t49 5t43 4.5q21 2 27.5 -2.5t7.5 -21.5z" />
    <glyph glyph-name="uniFF24" unicode="&#xff24;" horiz-adv-x="1000" 
d="M286 -159q-42 0 -66 9t-36.5 25.5t-16 40t-3.5 51.5v646q0 34 6 58t20 39t37 21.5t58 6.5h174q115 0 188.5 -25.5t115 -79t57 -135t15.5 -192.5q0 -114 -14 -201t-55 -145.5t-114.5 -88.5t-192.5 -30h-173zM645 306q0 68 -5.5 117.5t-25 81.5t-57.5 47.5t-103 15.5h-108
v-557h108q65 0 103 20t57.5 58.5t25 93t5.5 123.5z" />
    <glyph glyph-name="uniFF25" unicode="&#xff25;" horiz-adv-x="1000" 
d="M397 366h323q14 0 20 -5t6 -20v-120q0 -15 -6 -20t-20 -5h-323v-135q0 -29 10 -39.5t37 -10.5h314q14 0 20 -5t6 -20v-120q0 -15 -6 -20t-20 -5h-421q-42 0 -66 9t-36.5 25.5t-16 40t-3.5 51.5v645q0 28 3.5 51.5t16 40t36.5 25.5t66 9h421q14 0 20 -5t6 -20v-120
q0 -15 -6 -20t-20 -5h-314q-27 0 -37 -10.5t-10 -39.5v-152z" />
    <glyph glyph-name="uniFF26" unicode="&#xff26;" horiz-adv-x="1000" 
d="M407 366h313q14 0 20 -5t6 -20v-120q0 -15 -6 -20t-20 -5h-313v-330q0 -15 -6 -20t-20 -5h-140q-14 0 -20 5t-6 20v746q0 28 3.5 51.5t16 40t36.5 25.5t66 9h421q14 0 20 -5t6 -20v-120q0 -15 -6 -20t-20 -5h-304q-27 0 -37 -10.5t-10 -39.5v-152z" />
    <glyph glyph-name="uniFF27" unicode="&#xff27;" horiz-adv-x="1000" 
d="M831 -103q0 -32 -12 -42.5t-41 -13.5q-24 -3 -55.5 -6.5t-64.5 -7t-66.5 -6t-62.5 -2.5q-105 0 -174.5 26.5t-111 83.5t-58.5 145.5t-17 213.5q0 127 17.5 214.5t57.5 142t104.5 79t158.5 24.5q31 0 69 -4t75 -9.5t69 -11.5t50 -10q12 -3 19 -8.5t6 -29.5l-4 -79
q-1 -20 -10 -27t-23 -5q-19 2 -49.5 5t-63 6t-63 5t-49.5 2q-51 0 -85.5 -13t-55.5 -46t-29.5 -90t-8.5 -145q0 -84 7.5 -140.5t28.5 -90.5t59 -48.5t98 -14.5q20 0 39.5 0.5t34.5 1.5q18 1 34 3v152h-104q-14 0 -20 5t-6 20v110q0 15 6 20t20 5h255q14 0 20 -5t6 -20v-389z
" />
    <glyph glyph-name="uniFF28" unicode="&#xff28;" horiz-adv-x="1000" 
d="M677 -159q-14 0 -20 5t-6 20v348h-302v-348q0 -15 -6 -20t-20 -5h-141q-14 0 -20 5t-6 20v847q0 15 6 20t20 5h141q14 0 20 -5t6 -20v-333h302v333q0 15 6 20t20 5h141q14 0 20 -5t6 -20v-847q0 -15 -6 -20t-20 -5h-141z" />
    <glyph glyph-name="uniFF29" unicode="&#xff29;" horiz-adv-x="1000" 
d="M430 -159q-14 0 -20 5t-6 20v847q0 15 6 20t20 5h140q14 0 20 -5t6 -20v-847q0 -15 -6 -20t-20 -5h-140z" />
    <glyph glyph-name="uniFF2A" unicode="&#xff2a;" horiz-adv-x="1000" 
d="M644 -31q0 -69 -16.5 -114.5t-50 -73t-83.5 -39.5t-117 -13q-12 0 -16.5 3t-4.5 15v127q0 11 3 16t16 6q75 4 75 83v734q0 15 6 20t20 5h142q14 0 20 -5t6 -20v-744z" />
    <glyph glyph-name="uniFF2B" unicode="&#xff2b;" horiz-adv-x="1000" 
d="M205 -159q-14 0 -20 5t-6 20v847q0 15 6 20t20 5h141q14 0 20 -5t6 -20v-348h103l134 341q7 17 18.5 24t29.5 7h126q21 0 30 -7t-1 -29l-177 -410l180 -410q10 -23 1 -32t-33 -9h-122q-19 0 -29 5.5t-18 23.5l-136 323h-106v-326q0 -15 -6 -20t-20 -5h-141z" />
    <glyph glyph-name="uniFF2C" unicode="&#xff2c;" horiz-adv-x="1000" 
d="M441 61q0 -29 10 -39.5t37 -10.5h237q14 0 20 -5t6 -20v-120q0 -15 -6 -20t-20 -5h-355q-42 0 -66 9t-36.5 25.5t-16 40t-3.5 51.5v746q0 15 6 20t20 5h141q14 0 20 -5t6 -20v-652z" />
    <glyph glyph-name="uniFF2D" unicode="&#xff2d;" horiz-adv-x="1000" 
d="M664 691q5 20 19 33t49 13h181q47 0 47 -50v-822q0 -15 -6 -20t-20 -5h-127q-14 0 -20 5t-6 20v626h-20l-161 -580q-5 -20 -15 -26t-30 -6h-107q-20 0 -30 6t-15 26l-164 580h-20v-626q0 -15 -6 -20t-20 -5h-127q-14 0 -20 5t-6 20v822q0 50 47 50h183q35 0 49 -13
t19 -33l163 -599z" />
    <glyph glyph-name="uniFF2E" unicode="&#xff2e;" horiz-adv-x="1000" 
d="M334 511h-15v-646q0 -15 -6 -20t-20 -5h-132q-14 0 -20 5t-6 20v826q0 26 6.5 36t32.5 10h196q29 0 42.5 -12t21.5 -33l231 -626h15v646q0 15 6 20t20 5h132q14 0 20 -5t6 -20v-826q0 -26 -6.5 -36t-32.5 -10h-187q-29 0 -42.5 12t-21.5 33z" />
    <glyph glyph-name="uniFF2F" unicode="&#xff2f;" horiz-adv-x="1000" 
d="M500 -3q54 0 89.5 17t56 52.5t28.5 89t8 126.5t-8 128.5t-28.5 93t-56 57t-89.5 19.5q-55 0 -90 -19.5t-55.5 -57t-28.5 -93t-8 -128.5t8 -126.5t28.5 -89t55.5 -52.5t90 -17zM500 -176q-105 0 -175 29t-113 86.5t-61 143.5t-18 199t18 201t61 148t113 91t175 31
q104 0 174.5 -31t113 -91t60.5 -148t18 -201t-18 -199t-60.5 -143.5t-113 -86.5t-174.5 -29z" />
    <glyph glyph-name="uniFF30" unicode="&#xff30;" horiz-adv-x="1000" 
d="M362 97v-231q0 -15 -6 -20t-20 -5h-130q-14 0 -20 5t-6 20v746q0 28 3.5 51.5t16 40t36.5 25.5t66 9h203q157 0 236 -78t79 -235t-79 -242.5t-236 -85.5h-143zM362 270h142q67 0 100.5 40.5t33.5 114.5q0 72 -33.5 106t-100.5 34h-95q-27 0 -37 -10.5t-10 -39.5v-245z
" />
    <glyph glyph-name="uniFF31" unicode="&#xff31;" horiz-adv-x="1000" 
d="M557 -173q-14 -1 -28.5 -2t-28.5 -1q-105 0 -175 29t-113 86.5t-61 143.5t-18 199t18 201t61 148t113 91t175 31q104 0 174.5 -31t113 -91t60.5 -148t18 -201q0 -145 -30 -244t-104 -153l86 -140q10 -16 7 -25.5t-17 -17.5l-103 -54q-18 -9 -27 -7.5t-18 16.5zM500 -3
q54 0 89.5 17t56 52.5t28.5 89t8 126.5t-8 128.5t-28.5 93t-56 57t-89.5 19.5q-55 0 -90 -19.5t-55.5 -57t-28.5 -93t-8 -128.5t8 -126.5t28.5 -89t55.5 -52.5t90 -17z" />
    <glyph glyph-name="uniFF32" unicode="&#xff32;" horiz-adv-x="1000" 
d="M523 131h-169v-265q0 -15 -6 -20t-20 -5h-130q-14 0 -20 5t-6 20v746q0 28 3.5 51.5t16 40t36.5 25.5t66 9h221q159 0 235.5 -69.5t76.5 -228.5q0 -99 -34.5 -158.5t-95.5 -97.5l112 -305q8 -21 -1 -29.5t-33 -8.5h-113q-23 0 -32.5 7.5t-16.5 30.5zM644 438
q0 130 -129 130h-114q-27 0 -37 -10.5t-10 -39.5v-217h164q67 0 96.5 38t29.5 99z" />
    <glyph glyph-name="uniFF33" unicode="&#xff33;" horiz-adv-x="1000" 
d="M775 582q-2 -18 -8.5 -23t-26.5 -3t-49.5 5t-62 5.5t-63 4.5t-51.5 2q-72 0 -104.5 -21t-32.5 -55q0 -24 7 -40t26.5 -28.5t54 -25t90.5 -30.5q72 -23 120 -46t77 -53.5t41 -72t12 -99.5q0 -138 -80.5 -205.5t-234.5 -67.5q-29 0 -65.5 4t-71.5 9t-65 10.5t-45 8.5t-20 8
t-3 21l14 116q2 11 6 15t18 2q17 -2 45 -5t60 -6t65.5 -5.5t60.5 -2.5q72 0 102.5 22t30.5 72q0 20 -6 35.5t-23 29t-47 26t-78 26.5q-75 22 -127 45t-84.5 53.5t-47.5 71.5t-15 99q0 64 22 113.5t63.5 83t101 50.5t133.5 17q28 0 61.5 -3.5t67 -8t63.5 -9.5t51 -9
q16 -3 23 -9t5 -23z" />
    <glyph glyph-name="uniFF34" unicode="&#xff34;" horiz-adv-x="1000" 
d="M175 713q0 15 6 20t20 5h598q14 0 20 -5t6 -20v-117q0 -15 -6 -20t-20 -5h-203v-705q0 -15 -6 -20t-20 -5h-140q-14 0 -20 5t-6 20v705h-203q-14 0 -20 5t-6 20v117z" />
    <glyph glyph-name="uniFF35" unicode="&#xff35;" horiz-adv-x="1000" 
d="M356 142q0 -39 9.5 -65t27.5 -41.5t45 -22t62 -6.5q69 0 106 28.5t37 106.5v571q0 15 6 20t20 5h141q14 0 20 -5t6 -20v-571q0 -83 -21.5 -142t-63.5 -96.5t-105 -55t-146 -17.5t-146 17.5t-105.5 55t-64 96.5t-21.5 142v571q0 15 6 20t20 5h141q14 0 20 -5t6 -20v-571v0
z" />
    <glyph glyph-name="uniFF36" unicode="&#xff36;" horiz-adv-x="1000" 
d="M475 6h49l146 701q5 20 12 25.5t29 5.5h119q21 0 27.5 -7.5t1.5 -28.5l-177 -813q-2 -9 -5 -17.5t-9 -15.5t-17.5 -11t-29.5 -4h-243q-18 0 -29.5 4t-17.5 11t-9 15.5t-5 17.5l-177 813q-5 21 1.5 28.5t27.5 7.5h119q22 0 29 -5.5t12 -25.5z" />
    <glyph glyph-name="uniFF37" unicode="&#xff37;" horiz-adv-x="1000" 
d="M570 738q20 0 30 -7.5t13 -24.5l104 -680h19l83 685q2 17 9 22t29 5h108q19 0 24 -8.5t3 -26.5l-112 -824q-3 -23 -13.5 -30.5t-36.5 -7.5h-193q-26 0 -36.5 7.5t-13.5 30.5l-87 595l-86 -595q-3 -23 -13.5 -30.5t-36.5 -7.5h-193q-26 0 -36.5 7.5t-13.5 30.5l-112 824
q-2 18 3 26.5t24 8.5h108q22 0 29 -5t9 -22l83 -685h19l104 680q3 17 13 24.5t30 7.5h139z" />
    <glyph glyph-name="uniFF38" unicode="&#xff38;" horiz-adv-x="1000" 
d="M355 -128q-8 -15 -19 -23t-28 -8h-129q-18 0 -23.5 9.5t2.5 24.5l225 412l-224 417q-8 15 -2.5 24.5t23.5 9.5h129q17 0 28 -8t19 -23l144 -281l143 281q15 31 47 31h129q18 0 23.5 -9.5t-2.5 -24.5l-220 -417l221 -412q8 -15 2.5 -24.5t-23.5 -9.5h-129q-32 0 -47 31
l-144 278z" />
    <glyph glyph-name="uniFF39" unicode="&#xff39;" horiz-adv-x="1000" 
d="M644 708q6 12 16.5 21t30.5 9h129q16 0 23 -7.5t-3 -26.5l-248 -481v-357q0 -15 -6 -20t-20 -5h-128q-14 0 -20 5t-6 20v358l-252 480q-10 19 -3 26.5t23 7.5h129q20 0 30.5 -9t16.5 -21l145 -283z" />
    <glyph glyph-name="uniFF3A" unicode="&#xff3a;" horiz-adv-x="1000" 
d="M792 -134q0 -15 -6 -20t-20 -5h-521q-20 0 -29 7.5t-9 30.5v92q0 22 6 38.5t16 31.5l333 505v25h-329q-14 0 -20 5t-6 20v117q0 15 6 20t20 5h521q20 0 29 -8t9 -29v-95q0 -15 -3 -29.5t-13 -29.5l-339 -514v-25h329q14 0 20 -5t6 -20v-117z" />
    <glyph glyph-name="uniFF3B" unicode="&#xff3b;" horiz-adv-x="1000" 
d="M888 -8q14 0 20 -5t6 -20v-117q0 -15 -6 -20t-20 -5h-181q-35 0 -58 7t-37 22t-20 38.5t-6 56.5v702q0 33 6 56.5t20 38.5t37 22t58 7h181q14 0 20 -5t6 -20v-117q0 -15 -6 -20t-20 -5h-114v-616h114z" />
    <glyph glyph-name="uniFFE6" unicode="&#xffe6;" horiz-adv-x="1000" 
d="M566 -159q-14 0 -20 5.5t-11 19.5l-250 847q-5 14 1 19.5t20 5.5h127q14 0 20 -5.5t11 -19.5l250 -847q5 -14 -1 -19.5t-20 -5.5h-127z" />
    <glyph glyph-name="uniFF3D" unicode="&#xff3d;" horiz-adv-x="1000" 
d="M226 -8v616h-114q-14 0 -20 5t-6 20v117q0 15 6 20t20 5h181q35 0 58 -7t37 -22t20 -38.5t6 -56.5v-702q0 -33 -6 -56.5t-20 -38.5t-37 -22t-58 -7h-181q-14 0 -20 5t-6 20v117q0 15 6 20t20 5h114z" />
    <glyph glyph-name="uniFF3E" unicode="&#xff3e;" horiz-adv-x="1000" 
d="M563 775q17 0 28 -7t19 -22l133 -234q10 -17 7 -22.5t-21 -5.5h-130q-14 0 -20.5 5.5t-11.5 14.5l-67 129l-68 -129q-5 -9 -11.5 -14.5t-20.5 -5.5h-130q-18 0 -21 5.5t7 22.5l133 234q8 15 19 22t28 7h127z" />
    <glyph glyph-name="uniFF3F" unicode="&#xff3f;" horiz-adv-x="1000" 
d="M220 -17q0 15 6 20t20 5h507q14 0 20 -5t6 -20v-117q0 -15 -6 -20t-20 -5h-507q-14 0 -20 5t-6 20v117z" />
    <glyph glyph-name="uniFF40" unicode="&#xff40;" horiz-adv-x="1000" 
d="M556 449q-12 -8 -20 -7.5t-17 13.5l-162 222q-9 12 -6 19.5t14 15.5l97 66q11 8 19 7.5t16 -13.5l146 -234q8 -13 6 -20t-14 -15z" />
    <glyph glyph-name="uniFF41" unicode="&#xff41;" horiz-adv-x="1000" 
d="M750 40q0 -29 4 -42.5t18 -19.5q4 -2 11.5 -6.5t7.5 -21.5v-91q0 -11 -4 -17.5t-10 -10.5t-12.5 -5t-10.5 -1q-32 1 -54.5 4.5t-39.5 9t-31 13.5t-27 17q-32 -13 -66 -23q-29 -8 -64.5 -15t-68.5 -7q-97 0 -145.5 58t-48.5 156q0 55 15 91.5t44 59t71 34t96 15.5l141 9
v32q0 26 -18.5 42.5t-46.5 16.5q-25 0 -54.5 -1t-58.5 -2.5t-56 -3t-46 -2.5h-16t-12.5 4t-8.5 12.5t-3 25.5l-2 64q-1 26 8.5 35t25.5 11q21 3 50 7t61 7.5t64 6t58 2.5q55 0 97.5 -11.5t71.5 -38t44.5 -69t15.5 -104.5v-241zM457 109q-34 -2 -53.5 -16.5t-19.5 -49.5
q0 -69 54 -69q20 0 44 2.5t45 6.5q25 4 49 10v121z" />
    <glyph glyph-name="uniFF42" unicode="&#xff42;" horiz-adv-x="1000" 
d="M498 -3q26 0 47 9t35.5 29t22.5 53.5t8 82.5q0 52 -6 87.5t-20.5 58t-40 32.5t-64.5 10q-30 0 -55 -7t-40 -19v-322q29 -8 56.5 -11t56.5 -3zM385 -133q0 -15 -6 -20t-20 -5h-122q-14 0 -20 5t-6 20v872q0 15 6 20t20 5h122q14 0 20 -5t6 -20v-253q25 12 54.5 21.5
t77.5 9.5q64 0 114.5 -15t85 -54t53 -106t18.5 -171q0 -94 -16 -158t-47.5 -103t-80 -56t-112.5 -17q-38 0 -78 8.5t-69 26.5v-5z" />
    <glyph glyph-name="uniFF43" unicode="&#xff43;" horiz-adv-x="1000" 
d="M533 504q20 0 45 -2.5t50.5 -5.5t48 -7t38.5 -7q12 -2 19 -8t6 -26l-3 -92q-1 -29 -27 -26q-26 2 -63.5 5t-63.5 3q-47 0 -75.5 -8.5t-45 -28.5t-22 -52t-5.5 -78q0 -52 6 -86.5t22.5 -55.5t45.5 -29.5t76 -8.5q13 0 29.5 1t34 2t34.5 2.5t29 2.5q11 1 17.5 -2t7.5 -25
l3 -91q1 -19 -6 -25.5t-19 -8.5q-17 -3 -40.5 -7t-49 -7.5t-51 -6t-45.5 -2.5q-73 0 -124.5 20t-84 62t-47.5 107.5t-15 157.5q0 87 15.5 149.5t49 103.5t85.5 60.5t125 19.5z" />
    <glyph glyph-name="uniFF44" unicode="&#xff44;" horiz-adv-x="1000" 
d="M501 -3q29 0 56.5 3t56.5 11v322q-15 12 -40 19t-55 7q-39 0 -64.5 -10t-40 -32.5t-20.5 -58t-6 -87.5q0 -49 8 -82.5t22.5 -53.5t35.5 -29t47 -9zM614 -128q-29 -18 -69 -26.5t-78 -8.5q-65 0 -113 17t-79.5 56t-47.5 103t-16 158q0 104 18.5 171t53 106t85 54t114.5 15
q48 0 77.5 -9.5t54.5 -21.5v253q0 15 6 20t20 5h122q14 0 20 -5t6 -20v-872q0 -15 -6 -20t-20 -5h-122q-14 0 -20 5t-6 20v5z" />
    <glyph glyph-name="uniFF45" unicode="&#xff45;" horiz-adv-x="1000" 
d="M521 -16q29 0 60 1t60 2.5t53.5 3.5t41.5 3q12 1 18.5 -2.5t7.5 -26.5l1 -77q0 -20 -6.5 -25t-19.5 -8q-18 -4 -45.5 -9.5t-60 -10t-68 -8t-69.5 -3.5q-74 0 -126.5 19t-87 59.5t-50.5 103t-16 150.5q0 174 72.5 261t215.5 87q144 0 213.5 -72t69.5 -220v-82
q0 -23 -8 -31.5t-30 -8.5h-357q1 -57 31 -81.5t100 -24.5zM614 223q0 70 -25 98.5t-87 28.5q-63 0 -87.5 -31t-25.5 -96h225z" />
    <glyph glyph-name="uniFF46" unicode="&#xff46;" horiz-adv-x="1000" 
d="M286 449q0 15 6 20t20 5h64v30q0 70 9.5 117t32 75t59 40t89.5 12q12 0 28.5 -1.5t34.5 -3.5t35 -4.5t29 -4.5q15 -3 18 -8t3 -16l-2 -100q0 -11 -4.5 -15.5t-16.5 -4.5q-16 0 -37 1t-41 1q-38 0 -50.5 -20.5t-12.5 -69.5v-28h132q14 0 20 -5t6 -20v-117q0 -15 -6 -20
t-20 -5h-132v-441q0 -15 -6 -20t-20 -5h-122q-14 0 -20 5t-6 20v441h-64q-14 0 -20 5t-6 20v117z" />
    <glyph glyph-name="uniFF47" unicode="&#xff47;" horiz-adv-x="1000" 
d="M503 -472q-71 0 -129 8t-99 29.5t-63.5 59t-22.5 97.5q0 45 22 81.5t71 74.5q-22 14 -34.5 40.5t-12.5 56.5q0 12 7.5 29.5t17.5 34.5q11 19 26 40q-17 12 -33 28t-28.5 39t-20 54t-7.5 73q0 63 21.5 107t58 71t86.5 39.5t107 12.5q28 0 60 -3t72 -14l171 3q16 0 22.5 -7
t6.5 -24v-81q0 -15 -5.5 -20.5t-22.5 -5.5h-54q8 -14 15 -31.5t7 -46.5q0 -68 -18 -112.5t-52.5 -70.5t-85.5 -36t-118 -10q-11 0 -28 1.5t-26 3.5q-4 -10 -7 -19q-2 -8 -4 -16.5t-2 -14.5q0 -13 4 -21t17.5 -13t38.5 -7t66 -2q83 0 137.5 -10.5t87 -33.5t46 -60.5
t13.5 -92.5q0 -62 -24.5 -106t-66.5 -72t-98 -40.5t-119 -12.5zM513 -195q-14 0 -33.5 1t-38.5 3q-22 2 -45 5q-17 -17 -26 -33.5t-9 -40.5q0 -56 143 -56q64 0 97.5 15t33.5 50q0 18 -5.5 29t-19.5 17t-37.5 8t-59.5 2zM468 190q53 0 77.5 17.5t24.5 65.5q0 40 -24 61
t-77 21t-75.5 -23.5t-22.5 -58.5q0 -43 21.5 -63t75.5 -20z" />
    <glyph glyph-name="uniFF48" unicode="&#xff48;" horiz-adv-x="1000" 
d="M782 -134q0 -15 -6 -20t-20 -5h-122q-14 0 -20 5t-6 20v316q0 36 -3.5 66t-13 51t-27.5 32.5t-47 11.5q-30 0 -61.5 -4.5t-63.5 -11.5v-461q0 -15 -6 -20t-20 -5h-122q-14 0 -20 5t-6 20v847q0 15 6 20t20 5h122q14 0 20 -5t6 -20v-242q40 12 79.5 23t81.5 11
q68 0 112.5 -21t70.5 -62t36 -101.5t10 -138.5v-316z" />
    <glyph glyph-name="uniFF49" unicode="&#xff49;" horiz-adv-x="1000" 
d="M436 -160q-14 0 -20 5t-6 20v586q0 15 6 20t20 5h127q14 0 20 -5t6 -20v-586q0 -15 -6 -20t-20 -5h-127zM436 560q-14 0 -20 5t-6 20v128q0 15 6 20t20 5h127q14 0 20 -5t6 -20v-128q0 -15 -6 -20t-20 -5h-127z" />
    <glyph glyph-name="uniFF4A" unicode="&#xff4a;" horiz-adv-x="1000" 
d="M499 560q-14 0 -20 5t-6 20v128q0 15 6 20t20 5h127q14 0 20 -5t6 -20v-128q0 -15 -6 -20t-20 -5h-127zM652 -174q0 -63 -10 -107.5t-33.5 -78.5t-62 -63.5t-95.5 -62.5q-16 -9 -26 -8t-18 16l-55 102q-7 12 -4 17.5t11 10.5q37 20 59.5 36.5t34.5 35.5t16 43.5t4 60.5
v623q0 15 6 20t20 5h127q14 0 20 -5t6 -20v-625z" />
    <glyph glyph-name="uniFF4B" unicode="&#xff4b;" horiz-adv-x="1000" 
d="M393 -134q0 -15 -6 -20t-20 -5h-122q-14 0 -20 5t-6 20v847q0 15 6 20t20 5h122q14 0 20 -5t6 -20v-470l67 13l116 211q6 11 14.5 17t23.5 6h134q17 0 21.5 -8.5t-3.5 -23.5l-150 -275l157 -305q11 -20 6 -28.5t-26 -8.5h-122q-22 0 -32 6.5t-18 20.5l-118 217l-70 -13
v-206z" />
    <glyph glyph-name="uniFF4C" unicode="&#xff4c;" horiz-adv-x="1000" 
d="M436 -159q-14 0 -20 5t-6 20v847q0 15 6 20t20 5h127q14 0 20 -5t6 -20v-847q0 -15 -6 -20t-20 -5h-127z" />
    <glyph glyph-name="uniFF4D" unicode="&#xff4d;" horiz-adv-x="1000" 
d="M413 174q0 44 -3 75.5t-12.5 52t-27.5 30.5t-48 10q-17 0 -36.5 -3.5t-37.5 -7.5q-21 -5 -42 -11v-455q0 -15 -6 -20t-20 -5h-122q-14 0 -20 5t-6 20v599q0 15 6 20t20 5h121q14 0 20 -5t6 -20v-7q13 6 27 12q12 5 28 11.5t33 12.5q17 5 34 8t31 3q55 0 94 -13.5
t65 -39.5q50 19 109.5 36t112.5 17q66 0 110.5 -19.5t70.5 -59.5t37 -101t11 -145v-314q0 -15 -6 -20t-20 -5h-122q-14 0 -20 5t-6 20v243q0 61 -1 105.5t-9.5 73t-27 42t-53.5 13.5q-20 0 -41 -4t-39 -9q-21 -5 -41 -12q1 -25 2 -51q1 -22 2 -46t1 -43v-312q0 -15 -6 -20
t-20 -5h-122q-14 0 -20 5t-6 20v309v0z" />
    <glyph glyph-name="uniFF4E" unicode="&#xff4e;" horiz-adv-x="1000" 
d="M608 179q0 37 -3.5 67t-13 51.5t-27.5 33t-47 11.5q-17 0 -38 -3.5t-41 -7.5q-23 -5 -46 -11v-455q0 -15 -6 -20t-20 -5h-122q-14 0 -20 5t-6 20v599q0 15 6 20t20 5h122q13 0 19.5 -4.5t6.5 -18.5v-6q6 3 23.5 10t40.5 14.5t48.5 13.5t48.5 6q68 0 112.5 -21t70.5 -62.5
t36 -102t10 -139.5v-314q0 -15 -6 -20t-20 -5h-122q-14 0 -20 5t-6 20v314z" />
    <glyph glyph-name="uniFF4F" unicode="&#xff4f;" horiz-adv-x="1000" 
d="M500 504q85 0 142.5 -25t92 -69.5t49.5 -107t15 -137.5t-15 -137.5t-49.5 -108t-92 -70.5t-142.5 -25t-142 25t-92 70.5t-50 108t-15 137.5t15 137.5t50 107t92 69.5t142 25zM500 -18q36 0 60 11.5t38 35t19.5 57.5t5.5 79t-5.5 79t-19.5 57t-38 34.5t-60 11.5
q-72 0 -97 -46t-25 -136t25 -136.5t97 -46.5z" />
    <glyph glyph-name="uniFF50" unicode="&#xff50;" horiz-adv-x="1000" 
d="M498 344q-17 0 -36.5 -3.5t-36.5 -8.5q-20 -5 -40 -12v-332q17 -2 34 -3q14 -2 30.5 -2.5t30.5 -0.5q39 0 64.5 10t40 32.5t20.5 58t6 87.5q0 49 -8 82.5t-22.5 53.5t-35.5 29t-47 9zM385 459q23 12 49 22q22 8 48 15.5t50 7.5q64 0 112.5 -17t80 -56t47.5 -103t16 -158
q0 -104 -18 -171t-55 -106t-92 -54t-130 -15q-18 0 -37 1.5t-35 3.5l-36 6v-243q0 -15 -6 -20t-20 -5h-122q-14 0 -20 5t-6 20v872q0 15 6 20t20 5h122q14 0 20 -5t6 -20v-5z" />
    <glyph glyph-name="uniFF51" unicode="&#xff51;" horiz-adv-x="1000" 
d="M501 344q-26 0 -47 -9t-35.5 -29t-22.5 -53.5t-8 -82.5q0 -52 6 -87.5t20.5 -58t40 -32.5t64.5 -10q14 0 30.5 0.5t30.5 2.5q17 1 34 3v332q-20 7 -40 12q-17 5 -36.5 8.5t-36.5 3.5zM614 464q0 15 6 20t20 5h122q14 0 20 -5t6 -20v-872q0 -15 -6 -20t-20 -5h-122
q-14 0 -20 5t-6 20v243l-36 -6q-16 -2 -35 -3.5t-37 -1.5q-75 0 -130 15t-92 54t-55 106t-18 171q0 94 16 158t47.5 103t79.5 56t113 17q24 0 49.5 -7.5t47.5 -15.5q26 -10 50 -22v5z" />
    <glyph glyph-name="uniFF52" unicode="&#xff52;" horiz-adv-x="1000" 
d="M323 -160q-14 0 -20 5t-6 20v599q0 15 6 20t20 5h127q14 0 20 -5t6 -20v-32q12 5 33 13t47 17t55.5 18.5t59.5 16.5q4 1 9.5 1.5t10 -2t8 -9.5t3.5 -20v-116q0 -13 -3.5 -20.5t-9 -12t-11 -6t-9.5 -2.5q-30 -6 -59.5 -13t-55 -13.5t-46 -12t-32.5 -8.5v-398q0 -15 -6 -20
t-20 -5h-127z" />
    <glyph glyph-name="uniFF53" unicode="&#xff53;" horiz-adv-x="1000" 
d="M741 360q0 -13 -2 -19.5t-6 -9.5t-9.5 -3t-11.5 1q-19 2 -46 5t-56.5 6t-57.5 5t-49 2q-56 0 -73.5 -12.5t-17.5 -38.5q0 -11 5.5 -18.5t19 -13t37.5 -10.5t60 -11q65 -10 108.5 -25.5t70 -39.5t38 -59t11.5 -84q0 -57 -18 -97t-52 -65.5t-83 -37t-110 -11.5
q-26 0 -56.5 3t-60.5 7t-56.5 8.5t-45.5 7.5q-14 3 -22 8.5t-7 29.5l3 83q1 31 26 28l45 -5t55.5 -5.5t55.5 -4.5t46 -2q63 0 84.5 11.5t21.5 37.5q0 11 -4 18.5t-15 13.5t-32 11.5t-55 11.5q-63 10 -109 24t-76 37t-44.5 58t-14.5 87q0 57 20 97t54.5 65.5t80.5 37.5t97 12
q26 0 57.5 -3t62.5 -7t59 -9t46 -8q13 -2 20.5 -8t6.5 -31z" />
    <glyph glyph-name="uniFF54" unicode="&#xff54;" horiz-adv-x="1000" 
d="M564 489h134q14 0 20 -5t6 -20v-117q0 -15 -6 -20t-20 -5h-134v-236q0 -24 1 -42t6 -30t16 -17.5t32 -5.5h37.5t37.5 1q11 0 17.5 -2.5t7.5 -21.5l6 -98q1 -20 -5.5 -24.5t-16.5 -6.5q-11 -2 -25 -5t-29 -5t-29.5 -3.5t-26.5 -1.5q-59 0 -98 12.5t-62.5 41t-33 76
t-9.5 117.5v251h-91q-14 0 -20 5t-6 20v117q0 15 6 20t20 5h91v157q0 15 6 20t20 5h122q14 0 20 -5t6 -20v-157z" />
    <glyph glyph-name="uniFF55" unicode="&#xff55;" horiz-adv-x="1000" 
d="M392 150q0 -37 3 -67t13 -51.5t28 -33t47 -11.5q16 0 37.5 3t41.5 8q23 4 46 11v455q0 15 6 20t20 5h122q14 0 20 -5t6 -20v-599q0 -15 -6 -20t-20 -5h-122q-14 0 -20 5t-6 20v4q-29 -12 -58 -22q-25 -8 -52.5 -15t-50.5 -7q-68 0 -112.5 21t-70.5 62.5t-36 102
t-10 139.5v314q0 15 6 20t20 5h122q14 0 20 -5t6 -20v-314v0z" />
    <glyph glyph-name="uniFF56" unicode="&#xff56;" horiz-adv-x="1000" 
d="M616 458q5 20 12 25.5t29 5.5h110q21 0 27.5 -7.5t1.5 -28.5l-132 -564q-2 -9 -5 -17.5t-9.5 -15.5t-17.5 -11t-29 -4h-207q-18 0 -29 4t-17.5 11t-9.5 15.5t-5 17.5l-132 564q-5 21 1.5 28.5t27.5 7.5h110q22 0 29 -5.5t12 -25.5l100 -473h33z" />
    <glyph glyph-name="uniFF57" unicode="&#xff57;" horiz-adv-x="1000" 
d="M539 457q32 1 43.5 -9.5t17.5 -38.5l88 -432h32l74 461q3 20 11 25.5t30 5.5h99q21 0 27 -7.5t2 -28.5l-104 -565q-5 -28 -17 -38t-44 -10h-172q-32 0 -44 10t-17 38l-65 350l-65 -350q-5 -28 -17 -38t-44 -10h-172q-32 0 -44 10t-17 38l-104 565q-4 21 2 28.5t27 7.5h99
q22 0 30 -5.5t11 -25.5l74 -461h32l88 432q6 28 17.5 38t43.5 10h78z" />
    <glyph glyph-name="uniFF58" unicode="&#xff58;" horiz-adv-x="1000" 
d="M386 165l-168 291q-8 14 -2.5 24t23.5 10h117q17 0 26.5 -6t17.5 -20l99 -175l100 175q8 14 17.5 20t26.5 6h117q18 0 23.5 -10t-2.5 -24l-169 -291l169 -290q8 -14 2.5 -24t-23.5 -10h-117q-17 0 -26.5 6t-17.5 20l-100 173l-99 -173q-8 -14 -17.5 -20t-26.5 -6h-117
q-18 0 -23.5 10t2.5 24z" />
    <glyph glyph-name="uniFF59" unicode="&#xff59;" horiz-adv-x="1000" 
d="M333 489q20 0 29 -8t13 -25l110 -446h30l109 444q9 35 50 35h95q21 0 26.5 -8t0.5 -27l-211 -858q-4 -16 -12.5 -22t-22.5 -6h-105q-17 0 -27 6.5t-5 24.5l59 241h-79q-18 0 -29.5 6.5t-16.5 26.5l-143 578q-5 19 1 28.5t29 9.5h99z" />
    <glyph glyph-name="uniFF5A" unicode="&#xff5a;" horiz-adv-x="1000" 
d="M291 -159q-20 0 -26 7t-6 25v96q0 29 16 49l257 316h-247q-14 0 -20 5t-6 20v107q0 15 6 20t20 5h424q18 0 25 -5t7 -26v-103q0 -17 -4.5 -25.5t-12.5 -18.5l-256 -315h247q14 0 20 -5t6 -20v-107q0 -15 -6 -20t-20 -5h-424z" />
    <glyph glyph-name="uniFF5B" unicode="&#xff5b;" horiz-adv-x="1000" 
d="M521 341q0 12 5.5 18t17.5 9q58 13 78.5 38t20.5 62q0 25 -3 61t-3 68q0 55 17 88.5t49.5 52.5t80.5 26t111 9q14 0 18.5 -4.5t4.5 -16.5v-117q0 -11 -4 -14t-15 -3q-45 0 -59 -11.5t-14 -30.5q0 -29 3 -62t3 -59q0 -36 -7 -61t-22.5 -43t-40 -31t-60.5 -24
q36 -11 60.5 -24t40 -31t22.5 -43t7 -61q0 -26 -3 -59t-3 -62q0 -19 14 -30.5t59 -11.5q11 0 15 -3t4 -14v-117q0 -12 -4.5 -16.5t-18.5 -4.5q-63 1 -111 8.5t-80.5 26.5t-49.5 52.5t-17 88.5q0 32 3 68t3 61q0 37 -20.5 61.5t-78.5 38.5q-12 3 -17.5 9t-5.5 18v90z" />
    <glyph glyph-name="uniFF5C" unicode="&#xff5c;" horiz-adv-x="1000" 
d="M436 -175q-14 0 -20 5t-6 20v900q0 15 6 20t20 5h127q14 0 20 -5t6 -20v-900q0 -15 -6 -20t-20 -5h-127z" />
    <glyph glyph-name="uniFF5D" unicode="&#xff5d;" horiz-adv-x="1000" 
d="M478 251q0 -12 -5.5 -18t-17.5 -9q-29 -7 -48.5 -16.5t-30.5 -22t-15.5 -28t-4.5 -33.5q0 -25 3 -61t3 -68q0 -55 -17 -88.5t-49.5 -52.5t-80.5 -26.5t-111 -8.5q-14 0 -18.5 4.5t-4.5 16.5v117q0 11 4 14t15 3q45 0 59 11.5t14 30.5q0 29 -3 62t-3 59q0 36 7 61t22.5 43
t40 31t60.5 24q-36 11 -60.5 24t-40 31t-22.5 43t-7 61q0 26 3 59t3 62q0 19 -14 30.5t-59 11.5q-11 0 -15 3t-4 14v117q0 12 4.5 16.5t18.5 4.5q63 -2 111 -9t80.5 -26t49.5 -52.5t17 -88.5q0 -32 -3 -68t-3 -61q0 -18 4.5 -33.5t15.5 -28t30.5 -22t48.5 -16.5
q12 -3 17.5 -9t5.5 -18v-90z" />
    <glyph glyph-name="uniFFE3" unicode="&#xffe3;" horiz-adv-x="940" 
d="M11 685v109h918v-109h-918z" />
    <glyph glyph-name="uni3131" unicode="&#x3131;" horiz-adv-x="1000" 
d="M218 575q0 15 6 20t20 5h511q14 0 20 -5t6 -20v-490q0 -15 -6 -20t-20 -5h-140q-14 0 -20 5t-6 20v349h-345q-14 0 -20 5t-6 20v116z" />
    <glyph glyph-name="uni3132" unicode="&#x3132;" horiz-adv-x="1000" 
d="M143 575q0 15 6 20t20 5h281q14 0 20 -5t6 -20v-490q0 -15 -6 -20t-20 -5h-140q-14 0 -20 5t-6 20v349h-115q-14 0 -20 5t-6 20v116zM523 575q0 15 6 20t20 5h281q14 0 20 -5t6 -20v-490q0 -15 -6 -20t-20 -5h-140q-14 0 -20 5t-6 20v349h-115q-14 0 -20 5t-6 20v116z
" />
    <glyph glyph-name="uni3133" unicode="&#x3133;" horiz-adv-x="1000" 
d="M93 575q0 15 6 20t20 5h281q14 0 20 -5t6 -20v-490q0 -15 -6 -20t-20 -5h-140q-14 0 -20 5t-6 20v349h-115q-14 0 -20 5t-6 20v116zM750 600q15 0 19.5 -7t4.5 -18v-144q0 -54 7 -92t20.5 -62.5t33 -37t43.5 -16.5q3 -1 8 -1.5t9.5 -3.5t7.5 -9t3 -17v-103
q0 -11 -3.5 -17t-9 -9t-11 -3h-9.5q-31 2 -60 11.5t-53.5 24.5t-43.5 35t-29 43q-11 -23 -30 -43t-43.5 -35t-53.5 -24.5t-60 -11.5h-9.5t-11 3t-9 9t-3.5 17v103q0 11 3 17t7.5 9t9.5 3.5t8 1.5q24 4 43.5 16.5t33 37t20.5 62.5t7 92v144q0 11 4.5 18t19.5 7h127z" />
    <glyph glyph-name="uni3134" unicode="&#x3134;" horiz-adv-x="1000" 
d="M401 575q-2 -32 -2.5 -67.5t-0.5 -72.5t0.5 -72.5t1.5 -67.5q1 -36 15.5 -53t54.5 -16q59 2 134.5 6t150.5 11q14 2 19 -3.5t7 -20.5l10 -117q2 -15 -5 -19t-21 -6q-99 -8 -198 -12t-180 -4q-96 0 -137.5 51.5t-41.5 164.5q0 69 0.5 149t3.5 149q1 15 6.5 20t19.5 5h137
q14 0 20.5 -5t5.5 -20z" />
    <glyph glyph-name="uni3135" unicode="&#x3135;" horiz-adv-x="1000" 
d="M484 575q0 15 6 20t20 5h386q14 0 20 -5t6 -20v-96q0 -15 -6 -20t-20 -5h-105v-23q0 -54 7 -92t20.5 -62.5t33 -37t43.5 -16.5q3 -1 8 -1.5t9.5 -3.5t7.5 -9t3 -17v-103q0 -11 -3.5 -17t-9 -9t-11 -3h-9.5q-31 2 -60 11.5t-53.5 24.5t-43.5 35t-29 43q-11 -23 -30 -43
t-43.5 -35t-53.5 -24.5t-60 -11.5h-9.5t-11 3t-9 9t-3.5 17v103q0 11 3 17t7.5 9t9.5 3.5t8 1.5q24 4 43.5 16.5t33 37t20.5 62.5t7 92v23h-106q-14 0 -20 5t-6 20v96zM447 96q2 -15 -5 -19t-21 -6q-28 -3 -49 -5t-40.5 -3t-39.5 -1.5t-47 -0.5q-48 0 -80 11t-52 35.5
t-28.5 64t-8.5 95.5v308q0 15 6 20t20 5h125q14 0 20 -5t6 -20v-299q0 -18 2 -29.5t8 -18t18 -9t32 -2.5q26 0 45.5 1.5t49.5 5.5q15 2 21 -2t8 -21z" />
    <glyph glyph-name="uni3136" unicode="&#x3136;" horiz-adv-x="1000" 
d="M447 96q2 -15 -5 -19t-21 -6q-28 -3 -49 -5t-40.5 -3t-39.5 -1.5t-47 -0.5q-48 0 -80 11t-52 35.5t-28.5 64t-8.5 95.5v308q0 15 6 20t20 5h125q14 0 20 -5t6 -20v-299q0 -18 2 -29.5t8 -18t18 -9t32 -2.5q26 0 45.5 1.5t49.5 5.5q15 2 21 -2t8 -21zM898 206
q0 -32 -12.5 -59t-39 -47t-66.5 -31.5t-94 -11.5q-57 0 -97 11.5t-65 32t-36 48t-11 59.5t11.5 59.5t36.5 47.5t64.5 31.5t96.5 11.5q54 0 94 -11.5t66.5 -32t39 -48t12.5 -60.5zM452 511q0 15 6 20t20 5h115v68q0 15 6 20t20 5h140q14 0 20 -5t6 -20v-68h112q14 0 20 -5
t6 -20v-86q0 -15 -6 -20t-20 -5h-419q-14 0 -20 5t-6 20v86zM744 208q0 14 -12.5 25t-45.5 11q-32 0 -44 -11t-12 -25t12 -24.5t44 -10.5q34 0 46 10.5t12 24.5z" />
    <glyph glyph-name="uni3137" unicode="&#x3137;" horiz-adv-x="1000" 
d="M415 441q-1 -14 -1.5 -33.5t-1 -40.5t-0.5 -41v-34q1 -36 15.5 -53t54.5 -16q59 2 122 4t138 9q14 2 19 -3.5t7 -20.5l10 -113q2 -15 -5 -19t-21 -6q-99 -8 -185.5 -11t-167.5 -3q-96 0 -137.5 51.5t-41.5 164.5q0 34 0.5 73t2 79t4.5 78t7 71q2 15 7 20t19 5h466
q14 0 20 -5t6 -20v-111q0 -15 -6 -20t-20 -5h-311z" />
    <glyph glyph-name="uni3138" unicode="&#x3138;" horiz-adv-x="1000" 
d="M379 446q-2 -18 -2.5 -42.5t-1 -49.5t-0.5 -48v-37q0 -30 8 -39t37 -9h28.5t28.5 1h10q-3 23 -1 54q1 28 2.5 68.5t3 83t3.5 82.5t5 67q2 15 7 20t19 5h231q14 0 20 -5t6 -20v-106q0 -15 -6 -20t-20 -5h-88q-2 -18 -2.5 -42.5t-1 -49.5t-0.5 -48v-37q0 -30 8 -39t37 -9
h31t31 1q14 2 19.5 -2.5t6.5 -19.5l6 -112q1 -15 -5.5 -19.5t-20.5 -5.5q-35 -2 -59.5 -2.5t-53.5 -0.5q-121 0 -159 82l3 -54q1 -15 -5.5 -19.5t-20.5 -5.5q-35 -2 -57 -2.5t-51 -0.5q-96 0 -140 51.5t-39 164.5q1 28 2.5 68.5t3 83t3.5 82.5t5 67q2 15 7 20t19 5h211
q14 0 20 -5t6 -20v-106q0 -15 -6 -20t-20 -5h-68z" />
    <glyph glyph-name="uni3139" unicode="&#x3139;" horiz-adv-x="1000" 
d="M402 231q0 -17 8.5 -21.5t27.5 -4.5q49 0 91 1.5t79.5 3.5t73 5.5t72.5 6.5q14 2 19 -3.5t7 -20.5l8 -96q2 -15 -5 -19t-21 -6q-99 -8 -188 -12.5t-185 -4.5q-48 0 -81.5 8t-55.5 27t-32 51t-10 79v150q0 15 6 20t20 5h306q11 0 14.5 3.5t3.5 12.5v26q0 10 -3 13t-13 3
h-308q-14 0 -20 5t-6 20v92q0 15 6 20t20 5h419q54 0 75.5 -26t21.5 -81v-200q0 -15 -6 -20t-20 -5h-307q-11 0 -14 -4.5t-3 -15.5v-17z" />
    <glyph glyph-name="uni313A" unicode="&#x313a;" horiz-adv-x="1000" 
d="M535 102q2 -12 -3.5 -16.5t-22.5 -6.5q-23 -3 -52 -6.5t-60 -6t-60.5 -4.5t-53.5 -2q-93 0 -136 38.5t-43 124.5v158q0 14 6 19t20 5h190v61h-190q-14 0 -20 5t-6 19v85q0 15 6 20t20 5h327q14 0 20 -5t6 -20v-278q0 -15 -6 -20t-20 -5h-190v-36q0 -23 12 -28t37 -5
q18 0 42 1t49.5 3t50 4t42.5 5q14 2 19 -1.5t7 -14.5zM527 575q0 15 6 20t20 5h317q14 0 20 -5t6 -20v-489q0 -15 -6 -20t-20 -5h-135q-14 0 -20 5t-6 20v353h-156q-14 0 -20 5t-6 20v111z" />
    <glyph glyph-name="uni313B" unicode="&#x313b;" horiz-adv-x="1000" 
d="M494 101q2 -12 -3.5 -17t-19.5 -7q-45 -8 -93 -12.5t-96 -4.5q-93 0 -136 38.5t-43 124.5v158q0 14 6 19t20 5h190v61h-190q-14 0 -20 5t-6 19v85q0 15 6 20t20 5h327q14 0 20 -5t6 -20v-278q0 -15 -6 -20t-20 -5h-190v-36q0 -23 12 -28t37 -5q36 0 71.5 3.5t72.5 8.5
q14 2 19 -3t7 -16zM896 169q0 -63 -27 -86t-81 -23h-163q-54 0 -81 23t-27 86v406q0 15 6 20t20 5h327q14 0 20 -5t6 -20v-406zM717 204q17 0 23 6.5t6 25.5v220h-79v-220q0 -19 6 -25.5t23 -6.5h21z" />
    <glyph glyph-name="uni313C" unicode="&#x313c;" horiz-adv-x="1000" 
d="M896 169q0 -63 -27 -86t-81 -23h-163q-54 0 -81 23t-27 86v406q0 15 6 20t20 5h101q14 0 20 -5t6 -20v-128h73v128q0 15 6 20t20 5h101q14 0 20 -5t6 -20v-406zM494 101q2 -12 -3.5 -17t-19.5 -7q-45 -8 -93 -12.5t-96 -4.5q-93 0 -136 38.5t-43 124.5v158q0 14 6 19
t20 5h190v61h-190q-14 0 -20 5t-6 19v85q0 15 6 20t20 5h327q14 0 20 -5t6 -20v-278q0 -15 -6 -20t-20 -5h-190v-36q0 -23 12 -28t37 -5q36 0 71.5 3.5t72.5 8.5q14 2 19 -3t7 -16zM717 204q17 0 21.5 6.5t4.5 25.5v79h-73v-79q0 -19 6 -25.5t23 -6.5h18z" />
    <glyph glyph-name="uni313D" unicode="&#x313d;" horiz-adv-x="1000" 
d="M461 101q2 -12 -3.5 -17t-19.5 -7q-45 -8 -93 -12.5t-96 -4.5q-93 0 -136 38.5t-43 124.5v158q0 14 6 19t20 5h190v61h-190q-14 0 -20 5t-6 19v85q0 15 6 20t20 5h327q14 0 20 -5t6 -20v-278q0 -15 -6 -20t-20 -5h-190v-36q0 -23 12 -28t37 -5q36 0 71.5 3.5t72.5 8.5
q14 2 19 -3t7 -16zM773 600q15 0 19.5 -7t4.5 -18v-144q0 -54 7 -92t20.5 -62.5t33 -37t43.5 -16.5q3 -1 8 -1.5t9.5 -3.5t7.5 -9t3 -17v-103q0 -11 -3.5 -17t-9 -9t-11 -3h-9.5q-31 2 -60 11.5t-53.5 24.5t-43.5 35t-29 43q-11 -23 -30 -43t-43.5 -35t-53.5 -24.5
t-60 -11.5h-9.5t-11 3t-9 9t-3.5 17v103q0 11 3 17t7.5 9t9.5 3.5t8 1.5q24 4 43.5 16.5t33 37t20.5 62.5t7 92v144q0 11 4.5 18t19.5 7h127z" />
    <glyph glyph-name="uni313E" unicode="&#x313e;" horiz-adv-x="1000" 
d="M488 101q2 -12 -3.5 -17t-19.5 -7q-45 -8 -93 -12.5t-96 -4.5q-93 0 -136 38.5t-43 124.5v158q0 14 6 19t20 5h190v61h-190q-14 0 -20 5t-6 19v85q0 15 6 20t20 5h327q14 0 20 -5t6 -20v-278q0 -15 -6 -20t-20 -5h-190v-36q0 -23 12 -28t37 -5q36 0 71.5 3.5t72.5 8.5
q14 2 19 -3t7 -16zM864 404q14 0 20 -4t6 -18v-88q0 -14 -6 -18t-20 -4h-190v-40q0 -20 12 -24t37 -4q36 0 71.5 2.5t72.5 7.5q14 2 19 -2t7 -14l9 -101q2 -11 -3.5 -15t-19.5 -6q-45 -6 -93 -10.5t-96 -4.5q-93 0 -136 38.5t-43 113.5v365q0 14 6 18t20 4h327q14 0 20 -4
t6 -18v-90q0 -12 -6 -16.5t-20 -4.5h-190v-63h190z" />
    <glyph glyph-name="uni313F" unicode="&#x313f;" horiz-adv-x="1000" 
d="M500 172q0 15 6 20t20 5h27v276h-24q-14 0 -20 5t-6 20v76q0 15 6 20t20 5h359q14 0 20 -5t6 -20v-76q0 -15 -6 -20t-20 -5h-23v-276h28q14 0 20 -5t6 -20v-76q0 -15 -6 -20t-20 -5h-367q-14 0 -20 5t-6 20v76zM471 101q2 -12 -3.5 -17t-19.5 -7q-45 -8 -93 -12.5
t-96 -4.5q-93 0 -136 38.5t-43 124.5v158q0 14 6 19t20 5h190v61h-190q-14 0 -20 5t-6 19v85q0 15 6 20t20 5h327q14 0 20 -5t6 -20v-278q0 -15 -6 -20t-20 -5h-190v-36q0 -23 12 -28t37 -5q36 0 71.5 3.5t72.5 8.5q14 2 19 -3t7 -16zM688 197h42v276h-42v-276z" />
    <glyph glyph-name="uni3140" unicode="&#x3140;" horiz-adv-x="1000" 
d="M449 101q2 -12 -3.5 -17t-19.5 -7q-45 -8 -93 -12.5t-96 -4.5q-93 0 -136 38.5t-43 124.5v158q0 14 6 19t20 5h190v61h-190q-14 0 -20 5t-6 19v85q0 15 6 20t20 5h327q14 0 20 -5t6 -20v-278q0 -15 -6 -20t-20 -5h-190v-36q0 -23 12 -28t37 -5q36 0 71.5 3.5t72.5 8.5
q14 2 19 -3t7 -16zM917 206q0 -32 -12.5 -59t-39 -47t-66.5 -31.5t-94 -11.5q-57 0 -97 11.5t-65 32t-36 48t-11 59.5t11.5 59.5t36.5 47.5t64.5 31.5t96.5 11.5q54 0 94 -11.5t66.5 -32t39 -48t12.5 -60.5zM471 511q0 15 6 20t20 5h115v68q0 15 6 20t20 5h140q14 0 20 -5
t6 -20v-68h112q14 0 20 -5t6 -20v-86q0 -15 -6 -20t-20 -5h-419q-14 0 -20 5t-6 20v86zM763 208q0 14 -12.5 25t-45.5 11q-32 0 -44 -11t-12 -25t12 -24.5t44 -10.5q34 0 46 10.5t12 24.5z" />
    <glyph glyph-name="uni3141" unicode="&#x3141;" horiz-adv-x="1000" 
d="M771 179q0 -63 -27 -91t-81 -28h-326q-54 0 -81 28t-27 91v395q0 15 6 20t20 5h490q14 0 20 -5t6 -20v-395zM559 217q17 0 23 6.5t6 25.5v198h-176v-198q0 -19 6 -25.5t23 -6.5h118z" />
    <glyph glyph-name="uni3142" unicode="&#x3142;" horiz-adv-x="1000" 
d="M412 470h176v104q0 15 6 20t20 5h131q14 0 20 -5t6 -20v-395q0 -63 -27 -91t-81 -28h-326q-54 0 -81 28t-27 91v395q0 15 6 20t20 5h131q14 0 20 -5t6 -20v-104zM588 318h-176v-69q0 -19 6 -25.5t23 -6.5h118q17 0 23 6.5t6 25.5v69z" />
    <glyph glyph-name="uni3143" unicode="&#x3143;" horiz-adv-x="1000" 
d="M302 471h46v104q0 15 6 20t20 5h81q14 0 20 -5t6 -20v-406q0 -63 -22 -86t-76 -23h-116q-54 0 -76 23t-22 86v406q0 15 6 20t20 5h81q14 0 20 -5t6 -20v-104zM652 471h46v104q0 15 6 20t20 5h81q14 0 20 -5t6 -20v-406q0 -63 -22 -86t-76 -23h-116q-54 0 -76 23t-22 86
v406q0 15 6 20t20 5h81q14 0 20 -5t6 -20v-104zM348 319h-46v-95q0 -17 14 -17h18q14 0 14 17v95zM698 319h-46v-95q0 -17 14 -17h18q14 0 14 17v95z" />
    <glyph glyph-name="uni3144" unicode="&#x3144;" horiz-adv-x="1000" 
d="M476 179q0 -63 -27 -91t-81 -28h-203q-54 0 -81 28t-27 91v396q0 15 6 20t20 5h115q14 0 20 -5t6 -20v-130h85v130q0 15 6 20t20 5h115q14 0 20 -5t6 -20v-396zM787 600q15 0 19.5 -7t4.5 -18v-144q0 -54 7 -92t20.5 -62.5t33 -37t43.5 -16.5q3 -1 8 -1.5t9.5 -3.5
t7.5 -9t3 -17v-103q0 -11 -3.5 -17t-9 -9t-11 -3h-9.5q-31 2 -60 11.5t-53.5 24.5t-43.5 35t-29 43q-11 -23 -30 -43t-43.5 -35t-53.5 -24.5t-60 -11.5h-9.5t-11 3t-9 9t-3.5 17v103q0 11 3 17t7.5 9t9.5 3.5t8 1.5q24 4 43.5 16.5t33 37t20.5 62.5t7 92v144q0 11 4.5 18
t19.5 7h127zM280 197q17 0 23 6.5t6 25.5v84h-85v-84q0 -19 6 -25.5t23 -6.5h27z" />
    <glyph glyph-name="uni3145" unicode="&#x3145;" horiz-adv-x="1000" 
d="M569 600q14 0 20 -5t6 -20v-167q0 -29 7 -56.5t26 -51t51 -42t82 -28.5q4 -1 9.5 -2t10.5 -4.5t8.5 -10t3.5 -18.5v-111q0 -18 -9.5 -21.5t-16.5 -2.5q-35 3 -71.5 10.5t-71.5 21t-67 34.5t-57 50q-26 -29 -57.5 -50t-66.5 -34.5t-71.5 -21t-71.5 -10.5q-7 -1 -16.5 2.5
t-9.5 21.5v111q0 12 3.5 18.5t8.5 10t10.5 4.5t9.5 2q50 10 82 28.5t51 42t26 51t7 56.5v167q0 15 6 20t20 5h138z" />
    <glyph glyph-name="uni3146" unicode="&#x3146;" horiz-adv-x="1000" 
d="M500 61q-43 8 -76 30.5t-66 64.5q-29 -44 -65.5 -67.5t-91.5 -28.5q-14 -2 -20 3.5t-6 20.5v111q0 23 9 26.5t23 8.5q41 15 54.5 47.5t13.5 90.5v207q0 15 6 20t20 5h125q14 0 20 -5t6 -20v-207q0 -58 10 -93t38 -45q28 10 38 45t10 93v207q0 15 6 20t20 5h125
q14 0 20 -5t6 -20v-207q0 -58 13.5 -90.5t54.5 -47.5q14 -5 23 -8.5t9 -26.5v-111q0 -15 -6 -20.5t-20 -3.5q-55 5 -91.5 28.5t-65.5 67.5q-33 -42 -66 -64.5t-76 -30.5z" />
    <glyph glyph-name="uni3147" unicode="&#x3147;" horiz-adv-x="1000" 
d="M500 609q87 0 143.5 -26.5t90 -67t46.5 -89.5t13 -94t-13 -94.5t-46 -90t-89.5 -67t-144.5 -26.5t-144.5 26.5t-89.5 67t-46 90t-13 94.5t13 94t46.5 89.5t90 67t143.5 26.5zM500 217q51 0 79.5 32t28.5 84q0 51 -28.5 83t-79.5 32t-79.5 -32t-28.5 -83q0 -52 28.5 -84
t79.5 -32z" />
    <glyph glyph-name="uni3148" unicode="&#x3148;" horiz-adv-x="1000" 
d="M212 574q0 15 6 20t20 5h523q14 0 20 -5t6 -20v-117q0 -15 -6 -20t-20 -5h-166v-25q0 -29 7 -56.5t26 -51t51 -42t82 -28.5q4 -1 9.5 -2t10.5 -4.5t8.5 -10t3.5 -18.5v-111q0 -18 -9.5 -21.5t-16.5 -2.5q-35 3 -71.5 10.5t-71.5 21t-67 34.5t-57 50q-26 -29 -57.5 -50
t-66.5 -34.5t-71.5 -21t-71.5 -10.5q-7 -1 -16.5 2.5t-9.5 21.5v111q0 12 3.5 18.5t8.5 10t10.5 4.5t9.5 2q50 10 82 28.5t51 42t26 51t7 56.5v25h-167q-14 0 -20 5t-6 20v117z" />
    <glyph glyph-name="uni3149" unicode="&#x3149;" horiz-adv-x="1000" 
d="M175 570q0 15 6 20t20 5h597q14 0 20 -5t6 -20v-112q0 -15 -6 -20t-20 -5h-68v-45q0 -58 11 -100.5t52 -57.5q14 -5 23 -8.5t9 -26.5v-111q0 -15 -6 -20.5t-20 -3.5q-55 5 -91.5 28.5t-65.5 67.5q-33 -42 -66 -64.5t-76 -30.5q-43 8 -76 30.5t-66 64.5
q-29 -44 -65.5 -67.5t-91.5 -28.5q-14 -2 -20 3.5t-6 20.5v111q0 23 9 26.5t23 8.5q41 15 52 57.5t11 100.5v45h-69q-14 0 -20 5t-6 20v112zM500 230q14 5 22.5 19.5t13 35.5t6 47.5t1.5 55.5v45h-86v-45q0 -29 1.5 -55.5t6 -47.5t13 -35.5t22.5 -19.5z" />
    <glyph glyph-name="uni314A" unicode="&#x314a;" horiz-adv-x="1000" 
d="M569 641q14 0 20 -5t6 -20v-75h166q14 0 20 -5t6 -20v-117q0 -15 -6 -20t-20 -5h-164q4 -24 14 -46t29.5 -41t49 -33t71.5 -23q4 -1 9.5 -2t10.5 -4.5t8.5 -10t3.5 -18.5v-111q0 -18 -9.5 -21.5t-16.5 -2.5q-35 3 -71.5 10.5t-71.5 21t-67 34.5t-57 50q-26 -29 -57.5 -50
t-66.5 -34.5t-71.5 -21t-71.5 -10.5q-7 -1 -16.5 2.5t-9.5 21.5v111q0 12 3.5 18.5t8.5 10t10.5 4.5t9.5 2q42 9 71.5 23t48.5 33t29 41t14 46h-164q-14 0 -20 5t-6 20v117q0 15 6 20t20 5h167v75q0 15 6 20t20 5h138z" />
    <glyph glyph-name="uni314B" unicode="&#x314b;" horiz-adv-x="1000" 
d="M219 323q0 15 6 20t20 5h344v86h-345q-14 0 -20 5t-6 20v116q0 15 6 20t20 5h511q14 0 20 -5t6 -20v-490q0 -15 -6 -20t-20 -5h-140q-14 0 -20 5t-6 20v107h-344q-14 0 -20 5t-6 20v106z" />
    <glyph glyph-name="uni314C" unicode="&#x314c;" horiz-adv-x="1000" 
d="M752 290q0 -15 -6 -20t-20 -5h-314q1 -35 16 -48.5t54 -12.5q59 2 122 5t138 10q14 2 19 -3.5t7 -20.5l10 -96q2 -15 -5 -19t-21 -6q-99 -8 -185.5 -11.5t-167.5 -3.5q-48 0 -81.5 11t-55.5 35.5t-32 64t-10 95.5q0 34 0.5 74.5t2 81.5t4.5 80.5t7 72.5q2 15 7 20t19 5
h466q14 0 20 -5t6 -20v-92q0 -15 -6 -20t-20 -5h-311q-1 -8 -1.5 -21t-0.5 -29h313q14 0 20 -5t6 -20v-92z" />
    <glyph glyph-name="uni314D" unicode="&#x314d;" horiz-adv-x="1000" 
d="M185 575q0 15 6 20t20 5h572q14 0 20 -5t6 -20v-105q0 -15 -6 -20t-20 -5h-53l-10 -230h68q14 0 20 -5t6 -20v-105q0 -15 -6 -20t-20 -5h-577q-14 0 -20 5t-6 20v105q0 15 6 20t20 5h62l-9 230h-53q-14 0 -20 5t-6 20v105zM457 215h78l7 230h-93z" />
    <glyph glyph-name="uni314E" unicode="&#x314e;" horiz-adv-x="1000" 
d="M229 227q0 35 11.5 65.5t42 53t83.5 35.5t135 13t135 -13t83.5 -35.5t42 -53t11.5 -65.5t-11.5 -65.5t-42 -53t-83.5 -35.5t-135 -13t-135 13t-83.5 35.5t-42 53t-11.5 65.5zM207 553q0 15 6 20t20 5h172v36q0 15 6 20t20 5h140q14 0 20 -5t6 -20v-36h170q14 0 20 -5
t6 -20v-97q0 -15 -6 -20t-20 -5h-534q-14 0 -20 5t-6 20v97zM419 227q0 -20 21.5 -30t60.5 -10t60.5 10t21.5 30t-21.5 30t-60.5 10t-60.5 -10t-21.5 -30z" />
    <glyph glyph-name="uni314F" unicode="&#x314f;" horiz-adv-x="1000" 
d="M680 294q0 -15 -6 -20t-20 -5h-142v-399q0 -15 -6 -20t-20 -5h-140q-14 0 -20 5t-6 20v880q0 15 6 20t20 5h140q14 0 20 -5t6 -20v-315h142q14 0 20 -5t6 -20v-116z" />
    <glyph glyph-name="uni3150" unicode="&#x3150;" horiz-adv-x="1000" 
d="M312 -155q-14 0 -20 5t-6 20v880q0 15 6 20t20 5h125q14 0 20 -5t6 -20v-315h74v315q0 15 6 20t20 5h125q14 0 20 -5t6 -20v-880q0 -15 -6 -20t-20 -5h-125q-14 0 -20 5t-6 20v399h-74v-399q0 -15 -6 -20t-20 -5h-125z" />
    <glyph glyph-name="uni3151" unicode="&#x3151;" horiz-adv-x="1000" 
d="M680 134q0 -15 -6 -20t-20 -5h-142v-239q0 -15 -6 -20t-20 -5h-140q-14 0 -20 5t-6 20v880q0 15 6 20t20 5h140q14 0 20 -5t6 -20v-175h142q14 0 20 -5t6 -20v-116q0 -15 -6 -20t-20 -5h-142v-134h142q14 0 20 -5t6 -20v-116z" />
    <glyph glyph-name="uni3152" unicode="&#x3152;" horiz-adv-x="1000" 
d="M312 -155q-14 0 -20 5t-6 20v880q0 15 6 20t20 5h122q14 0 20 -5t6 -20v-165h80v165q0 15 6 20t20 5h122q14 0 20 -5t6 -20v-880q0 -15 -6 -20t-20 -5h-122q-14 0 -20 5t-6 20v209h-80v-209q0 -15 -6 -20t-20 -5h-122zM460 245h80v174h-80v-174z" />
    <glyph glyph-name="uni3153" unicode="&#x3153;" horiz-adv-x="1000" 
d="M293 410q0 15 6 20t20 5h195v315q0 15 6 20t20 5h140q14 0 20 -5t6 -20v-880q0 -15 -6 -20t-20 -5h-140q-14 0 -20 5t-6 20v399h-195q-14 0 -20 5t-6 20v116z" />
    <glyph glyph-name="uni3154" unicode="&#x3154;" horiz-adv-x="1000" 
d="M214 410q0 15 6 20t20 5h152v315q0 15 6 20t20 5h125q14 0 20 -5t6 -20v-880q0 -15 -6 -20t-20 -5h-125q-14 0 -20 5t-6 20v399h-152q-14 0 -20 5t-6 20v116zM634 -155q-14 0 -20 5t-6 20v880q0 15 6 20t20 5h125q14 0 20 -5t6 -20v-880q0 -15 -6 -20t-20 -5h-125z" />
    <glyph glyph-name="uni3155" unicode="&#x3155;" horiz-adv-x="1000" 
d="M293 570q0 15 6 20t20 5h195v155q0 15 6 20t20 5h140q14 0 20 -5t6 -20v-880q0 -15 -6 -20t-20 -5h-140q-14 0 -20 5t-6 20v229h-195q-14 0 -20 5t-6 20v116q0 15 6 20t20 5h195v164h-195q-14 0 -20 5t-6 20v116z" />
    <glyph glyph-name="uni3156" unicode="&#x3156;" horiz-adv-x="1000" 
d="M214 570q0 15 6 20t20 5h152v155q0 15 6 20t20 5h125q14 0 20 -5t6 -20v-880q0 -15 -6 -20t-20 -5h-125q-14 0 -20 5t-6 20v229h-152q-14 0 -20 5t-6 20v116q0 15 6 20t20 5h152v164h-152q-14 0 -20 5t-6 20v116zM634 -155q-14 0 -20 5t-6 20v880q0 15 6 20t20 5h125
q14 0 20 -5t6 -20v-880q0 -15 -6 -20t-20 -5h-125z" />
    <glyph glyph-name="uni3157" unicode="&#x3157;" horiz-adv-x="1000" 
d="M52 198q0 15 6 20t20 5h326v351q0 15 6 20t20 5h140q14 0 20 -5t6 -20v-351h326q14 0 20 -5t6 -20v-117q0 -15 -6 -20t-20 -5h-844q-14 0 -20 5t-6 20v117z" />
    <glyph glyph-name="uni3158" unicode="&#x3158;" horiz-adv-x="1000" 
d="M698 -155q-14 0 -20 5t-6 20v880q0 15 6 20t20 5h140q14 0 20 -5t6 -20v-315h92q14 0 20 -5t6 -20v-116q0 -15 -6 -20t-20 -5h-92v-399q0 -15 -6 -20t-20 -5h-140zM17 -3q0 15 6 20t20 5h183v242q0 15 6 20t20 5h140q14 0 20 -5t6 -20v-242h188q14 0 20 -5t6 -20v-117
q0 -15 -6 -20t-20 -5h-563q-14 0 -20 5t-6 20v117z" />
    <glyph glyph-name="uni3159" unicode="&#x3159;" horiz-adv-x="1000" 
d="M572 -155q-14 0 -20 5t-6 20v880q0 15 6 20t20 5h125q14 0 20 -5t6 -20v-336h44v336q0 15 6 20t20 5h125q14 0 20 -5t6 -20v-880q0 -15 -6 -20t-20 -5h-125q-14 0 -20 5t-6 20v392h-44v-392q0 -15 -6 -20t-20 -5h-125zM56 -3q0 15 6 20t20 5h112v242q0 15 6 20t20 5h140
q14 0 20 -5t6 -20v-242h104q14 0 20 -5t6 -20v-117q0 -15 -6 -20t-20 -5h-408q-14 0 -20 5t-6 20v117z" />
    <glyph glyph-name="uni315A" unicode="&#x315a;" horiz-adv-x="1000" 
d="M769 -155q-14 0 -20 5t-6 20v880q0 15 6 20t20 5h140q14 0 20 -5t6 -20v-880q0 -15 -6 -20t-20 -5h-140zM65 -3q0 15 6 20t20 5h193v242q0 15 6 20t20 5h140q14 0 20 -5t6 -20v-242h201q14 0 20 -5t6 -20v-117q0 -15 -6 -20t-20 -5h-586q-14 0 -20 5t-6 20v117z" />
    <glyph glyph-name="uni315B" unicode="&#x315b;" horiz-adv-x="1000" 
d="M52 198q0 15 6 20t20 5h136v353q0 15 6 20t20 5h140q14 0 20 -5t6 -20v-353h188v353q0 15 6 20t20 5h140q14 0 20 -5t6 -20v-353h136q14 0 20 -5t6 -20v-117q0 -15 -6 -20t-20 -5h-844q-14 0 -20 5t-6 20v117z" />
    <glyph glyph-name="uni315C" unicode="&#x315c;" horiz-adv-x="1000" 
d="M52 577q0 15 6 20t20 5h844q14 0 20 -5t6 -20v-117q0 -15 -6 -20t-20 -5h-326v-349q0 -15 -6 -20t-20 -5h-140q-14 0 -20 5t-6 20v349h-326q-14 0 -20 5t-6 20v117z" />
    <glyph glyph-name="uni315D" unicode="&#x315d;" horiz-adv-x="1000" 
d="M769 -155q-14 0 -20 5t-6 20v39h-165q-14 0 -20 5t-6 20v111q0 15 6 20t20 5h165v680q0 15 6 20t20 5h140q14 0 20 -5t6 -20v-880q0 -15 -6 -20t-20 -5h-140zM65 250q0 15 6 20t20 5h586q14 0 20 -5t6 -20v-112q0 -15 -6 -20t-20 -5h-211v-233q0 -15 -6 -20t-20 -5h-140
q-14 0 -20 5t-6 20v233h-183q-14 0 -20 5t-6 20v112z" />
    <glyph glyph-name="uni315E" unicode="&#x315e;" horiz-adv-x="1000" 
d="M433 45q0 15 6 20t20 5h92v680q0 15 6 20t20 5h125q14 0 20 -5t6 -20v-880q0 -15 -6 -20t-20 -5h-125q-14 0 -20 5t-6 20v39h-92q-14 0 -20 5t-6 20v111zM793 -155q-14 0 -20 5t-6 20v880q0 15 6 20t20 5h125q14 0 20 -5t6 -20v-880q0 -15 -6 -20t-20 -5h-125zM56 250
q0 15 6 20t20 5h418q14 0 20 -5t6 -20v-112q0 -15 -6 -20t-20 -5h-114v-233q0 -15 -6 -20t-20 -5h-140q-14 0 -20 5t-6 20v233h-112q-14 0 -20 3t-6 18v116z" />
    <glyph glyph-name="uni315F" unicode="&#x315f;" horiz-adv-x="1000" 
d="M769 -155q-14 0 -20 5t-6 20v880q0 15 6 20t20 5h140q14 0 20 -5t6 -20v-880q0 -15 -6 -20t-20 -5h-140zM65 210q0 15 6 20t20 5h586q14 0 20 -5t6 -20v-112q0 -15 -6 -20t-20 -5h-201v-193q0 -15 -6 -20t-20 -5h-140q-14 0 -20 5t-6 20v193h-193q-14 0 -20 5t-6 20v112z
" />
    <glyph glyph-name="uni3160" unicode="&#x3160;" horiz-adv-x="1000" 
d="M52 577q0 15 6 20t20 5h844q14 0 20 -5t6 -20v-117q0 -15 -6 -20t-20 -5h-146v-349q0 -15 -6 -20t-20 -5h-140q-14 0 -20 5t-6 20v349h-168v-349q0 -15 -6 -20t-20 -5h-140q-14 0 -20 5t-6 20v349h-146q-14 0 -20 5t-6 20v117z" />
    <glyph glyph-name="uni3161" unicode="&#x3161;" horiz-adv-x="1000" 
d="M52 395q0 15 6 20t20 5h844q14 0 20 -5t6 -20v-117q0 -15 -6 -20t-20 -5h-844q-14 0 -20 5t-6 20v117z" />
    <glyph glyph-name="uni3162" unicode="&#x3162;" horiz-adv-x="1000" 
d="M65 -3q0 15 6 20t20 5h586q14 0 20 -5t6 -20v-117q0 -15 -6 -20t-20 -5h-586q-14 0 -20 5t-6 20v117zM769 -155q-14 0 -20 5t-6 20v880q0 15 6 20t20 5h140q14 0 20 -5t6 -20v-880q0 -15 -6 -20t-20 -5h-140z" />
    <glyph glyph-name="uni3163" unicode="&#x3163;" horiz-adv-x="1000" 
d="M430 -155q-14 0 -20 5t-6 20v880q0 15 6 20t20 5h140q14 0 20 -5t6 -20v-880q0 -15 -6 -20t-20 -5h-140z" />
    <glyph glyph-name="uni3164" unicode="&#x3164;" horiz-adv-x="940" 
 />
    <glyph glyph-name="uni3165" unicode="&#x3165;" horiz-adv-x="940" 
d="M143 67v511h168v-378h138v-133h-306zM488 67v511h168v-378h141v-133h-309z" />
    <glyph glyph-name="uni3166" unicode="&#x3166;" horiz-adv-x="940" 
d="M807 578v-132h-152v-248h157v-132h-324v512h319zM143 67v511h168v-378h138v-133h-306z" />
    <glyph glyph-name="uni3167" unicode="&#x3167;" horiz-adv-x="940" 
d="M749 368q0 -72 40 -122t103 -75l-75 -105q-88 33 -150 110q-32 -37 -66.5 -64t-81.5 -45l-76 105q29 12 55 30.5t45.5 42.5t30.5 54.5t11 68.5v215h164v-215zM430 67v133h-119v378h-168v-511h287z" />
    <glyph glyph-name="uni3168" unicode="&#x3168;" horiz-adv-x="940" 
d="M389 67l233 527l236 -527h-469zM624 292l-42 -116h84zM85 67v511h168v-378h119v-133h-287z" />
    <glyph glyph-name="uni3169" unicode="&#x3169;" horiz-adv-x="940" 
d="M420 67v379h-92v132h259v-379q48 39 66.5 91.5t18.5 112.5v180h163v-180q0 -36 6 -69t20.5 -62.5t39 -55t60.5 -44.5l-78 -107q-46 22 -77.5 53.5t-52.5 60.5q-20 -30 -49.5 -60.5t-79.5 -53.5l-37 51v-49h-167zM33 67v322h112v57h-112v132h271v-323h-111v-56h140v-132
h-300z" />
    <glyph glyph-name="uni316A" unicode="&#x316a;" horiz-adv-x="940" 
d="M113 67v322h168v57h-168v132h334v-323h-167v-56h177v-132h-344zM822 578v-132h-165v-248h176v-132h-343v512h332z" />
    <glyph glyph-name="uni316B" unicode="&#x316b;" horiz-adv-x="940" 
d="M880 67q-46 22 -76 52.5t-51 59.5q-20 -30 -48 -60t-78 -53l-32 44v-44h-271v512h125v-148h21v148h125v-374q44 38 60.5 89t16.5 110v180h163v-180q0 -36 5.5 -68.5t19.5 -62t38 -54.5t60 -44zM33 67v321h114v60h-114v130h270v-322h-113v-59h118v-130h-275zM470 190v115
h-21v-115h21z" />
    <glyph glyph-name="uni316C" unicode="&#x316c;" horiz-adv-x="940" 
d="M95 67v322h154v57h-154v132h321v-323h-153v-56h153v-132h-321zM422 67l231 527l234 -527h-465zM655 292l-42 -116h84z" />
    <glyph glyph-name="uni316D" unicode="&#x316d;" horiz-adv-x="940" 
d="M647 57q-85 0 -131.5 48.5t-46.5 134.5q0 85 46.5 135t131.5 50t131.5 -50t46.5 -135t-46.5 -134t-131.5 -49zM647 302q-18 0 -25 -17.5t-7 -44.5q0 -28 7 -44.5t25 -16.5t25 16.5t7 44.5q0 27 -7 44.5t-25 17.5zM450 446v132h392v-132h-392zM95 67v322h165v57h-165v132
h332v-323h-164v-56h170v-132h-338z" />
    <glyph glyph-name="uni316E" unicode="&#x316e;" horiz-adv-x="940" 
d="M110 67v511h339v-511h-339zM640 446h39v132h150v-511h-339v511h150v-132zM297 453h-35v-261h35v261zM679 319h-39v-127h39v127z" />
    <glyph glyph-name="uni316F" unicode="&#x316f;" horiz-adv-x="940" 
d="M433 67v511h-333v-511h333zM749 368q0 -72 40 -122t103 -75l-75 -105q-88 33 -150 110q-32 -37 -66.5 -64t-81.5 -45l-76 105q29 12 55 30.5t45.5 42.5t30.5 54.5t11 68.5v215h164v-215zM285 190h-37v265h37v-265z" />
    <glyph glyph-name="uni3170" unicode="&#x3170;" horiz-adv-x="940" 
d="M90 67v511h332v-511h-332zM275 455h-38v-265h38v265zM432 67l231 527l234 -527h-465zM665 292l-42 -116h84z" />
    <glyph glyph-name="uni3171" unicode="&#x3171;" horiz-adv-x="940" 
d="M216 317v361h507v-361h-507zM558 546h-177v-98h177v98zM470 -35q-83 0 -130.5 41.5t-47.5 110.5q0 67 47.5 109.5t130.5 42.5t130.5 -42.5t47.5 -109.5q0 -68 -47.5 -110t-130.5 -42zM470 150q-18 0 -28 -9t-10 -24t10 -24.5t28 -9.5t28 9.5t10 24.5t-10 24t-28 9z" />
    <glyph glyph-name="uni3172" unicode="&#x3172;" horiz-adv-x="940" 
d="M261 446h35v132h152v-511h-339v511h152v-132zM660 67v379h-171v132h338v-511h-167zM296 319h-35v-127h35v127z" />
    <glyph glyph-name="uni3173" unicode="&#x3173;" horiz-adv-x="940" 
d="M261 446h35v132h152v-511h-339v511h152v-132zM822 578v-132h-167v-248h172v-132h-339v512h334zM296 319h-35v-127h35v127z" />
    <glyph glyph-name="uni3174" unicode="&#x3174;" horiz-adv-x="940" 
d="M313 578v-408q63 42 86.5 101t23.5 132v180h155v-181q0 -38 6 -72t20.5 -64t39 -56t61.5 -47l-73 -103q-44 22 -74.5 50.5t-59.5 64.5q-23 -33 -53 -62t-75 -53l-57 80v-74h-279v512h128v-146h23v146h128zM739 67v379h-116v132h283v-511h-167zM185 190v115h-23v-115h23z
" />
    <glyph glyph-name="uni3175" unicode="&#x3175;" horiz-adv-x="940" 
d="M306 578v-387q53 40 70.5 92t17.5 120v180h155v-181q0 -33 3.5 -62t12.5 -55t25.5 -49t42.5 -43v385h283v-132h-124v-248h133v-132h-292v50l-35 -49q-40 20 -70 47t-58 63q-21 -30 -49.5 -58.5t-74.5 -51.5l-40 55v-56h-272v512h126v-146h20v146h126zM180 190v115h-20
v-115h20z" />
    <glyph glyph-name="uni3176" unicode="&#x3176;" horiz-adv-x="940" 
d="M244 446h41v132h148v-511h-337v511h148v-132zM853 446h-111v-78q0 -75 34.5 -120.5t96.5 -72.5l-75 -103q-43 17 -76.5 41t-62.5 62q-29 -36 -60 -60t-76 -44l-76 103q61 27 96 73t35 121v78h-111v132h386v-132zM285 319h-41v-127h41v127z" />
    <glyph glyph-name="uni3177" unicode="&#x3177;" horiz-adv-x="940" 
d="M258 446h42v132h148v-511h-338v511h148v-132zM812 258h-159v-60h174v-131h-338v511h333v-131h-169v-57h159v-132zM300 319h-42v-127h42v127z" />
    <glyph glyph-name="uni3178" unicode="&#x3178;" horiz-adv-x="940" 
d="M723 688v-371h-507v371h163v-63h181v63h163zM470 -35q-83 0 -130.5 41.5t-47.5 110.5q0 67 47.5 109.5t130.5 42.5t130.5 -42.5t47.5 -109.5q0 -68 -47.5 -110t-130.5 -42zM560 448v46h-181v-46h181zM470 150q-18 0 -28 -9t-10 -24t10 -24.5t28 -9.5t28 9.5t10 24.5
t-10 24t-28 9z" />
    <glyph glyph-name="uni3179" unicode="&#x3179;" horiz-adv-x="940" 
d="M626 618h33v70h138v-371h-309v371h138v-70zM282 618h33v70h138v-371h-309v371h138v-70zM470 -35q-83 0 -130.5 41.5t-47.5 110.5q0 67 47.5 109.5t130.5 42.5t130.5 -42.5t47.5 -109.5q0 -68 -47.5 -110t-130.5 -42zM470 150q-18 0 -28 -9t-10 -24t10 -24.5t28 -9.5
t28 9.5t10 24.5t-10 24t-28 9zM315 494h-33v-53h33v53zM659 494h-33v-53h33v53z" />
    <glyph glyph-name="uni317A" unicode="&#x317a;" horiz-adv-x="940" 
d="M395 365q0 -72 40 -119.5t121 -82.5l-76 -106q-48 18 -90.5 45t-78.5 71q-33 -38 -73 -67.5t-92 -48.5l-76 105q81 35 121 83t40 120v218h164v-218zM811 67v511h-354v-132h187v-379h167z" />
    <glyph glyph-name="uni317B" unicode="&#x317b;" horiz-adv-x="940" 
d="M863 67v137h-170v374h-166v-511h336zM374 365q0 -21 6.5 -48t22.5 -54t42 -50.5t65 -37.5l-76 -106q-46 18 -77 42t-65 63q-32 -38 -66 -63t-81 -44l-76 105q27 11 52.5 28.5t46 42.5t32.5 56t12 69v215h162v-218z" />
    <glyph glyph-name="uni317C" unicode="&#x317c;" horiz-adv-x="940" 
d="M527 578v-512h331v130h-170v252h165v130h-326zM374 365q0 -21 6.5 -48t22.5 -54t42 -50.5t65 -37.5l-76 -106q-46 18 -77 42t-65 63q-32 -38 -66 -63t-81 -44l-76 105q27 11 52.5 28.5t46 42.5t32.5 56t12 69v215h162v-218z" />
    <glyph glyph-name="uni317D" unicode="&#x317d;" horiz-adv-x="940" 
d="M673 578h-146v-511h332v511h-146v-132h-40v132zM374 365q0 -21 6.5 -48t22.5 -54t42 -50.5t65 -37.5l-76 -106q-46 18 -77 42t-65 63q-32 -38 -66 -63t-81 -44l-76 105q27 11 52.5 28.5t46 42.5t32.5 56t12 69v215h162v-218zM713 192h-40v127h40v-127z" />
    <glyph glyph-name="uni317E" unicode="&#x317e;" horiz-adv-x="940" 
d="M741 365q0 -21 6 -48.5t23.5 -56t49 -54t81.5 -42.5l-76 -106q-30 10 -53 22t-42.5 26.5t-36.5 31t-34 36.5q-33 -39 -72.5 -69t-91.5 -47l-34 46l-33 -46q-30 10 -53 22t-42.5 26.5t-36.5 31t-34 36.5q-33 -39 -72.5 -69t-91.5 -47l-76 105q72 26 116 77.5t44 127.5v215
h162v-218q0 -19 4.5 -43t17.5 -48.5t36 -48.5t59 -43q54 29 86 75.5t32 110.5v78h-112v132h386v-132h-112v-81z" />
    <glyph glyph-name="uni317F" unicode="&#x317f;" horiz-adv-x="940" 
d="M130 66l340 550l335 -550h-675zM470 356l-102 -173h196z" />
    <glyph glyph-name="uni3180" unicode="&#x3180;" horiz-adv-x="940" 
d="M95 320q0 51 14.5 88t39 62t57 37t69.5 12t69.5 -12t57 -37t38.5 -62t14 -88t-14 -88t-38.5 -61.5t-57 -36.5t-69.5 -12t-69.5 12t-57 36.5t-39 61.5t-14.5 88zM313 320q0 34 -9 55.5t-29 21.5t-29 -21.5t-9 -54.5q0 -35 9 -57t29 -22t29 22t9 56zM484 320q0 51 14.5 88
t39 62t57 37t69.5 12t69.5 -12t57 -37t38.5 -62t14 -88t-14 -88t-38.5 -61.5t-57 -36.5t-69.5 -12t-69.5 12t-57 36.5t-39 61.5t-14.5 88zM702 320q0 34 -9 55.5t-29 21.5t-29 -21.5t-9 -54.5q0 -35 9 -57t29 -22t29 22t9 56z" />
    <glyph glyph-name="uni3181" unicode="&#x3181;" horiz-adv-x="940" 
d="M190 302q0 50 15 90.5t41.5 71t63 50.5t79.5 30v79h163v-79q43 -10 79.5 -30t63.5 -50.5t42 -71t15 -90.5q0 -62 -22 -108.5t-60 -78.5t-89.5 -48t-110.5 -16t-110 16.5t-88.5 48t-59.5 78.5t-22 108zM603 302q0 59 -35.5 91t-97.5 32q-59 0 -95 -32t-36 -90
q0 -60 36 -92t95 -32q62 0 97.5 32t35.5 91z" />
    <glyph glyph-name="uni3182" unicode="&#x3182;" horiz-adv-x="940" 
d="M61 302q0 93 31.5 154t97.5 84v83h163v-83q65 -23 97 -83.5t32 -154.5q0 -119 -52.5 -185t-158.5 -66t-158 66.5t-52 184.5zM768 368q0 -74 36.5 -121t95.5 -73l-73 -106q-39 17 -76 42.5t-66 63.5q-29 -37 -60 -60.5t-75 -43.5l-76 104q58 29 94 74.5t36 119.5v215h164
v-215zM334 302q0 57 -13 91t-50 34q-35 0 -48.5 -33.5t-13.5 -90.5q0 -58 13.5 -92t48.5 -34q37 0 50 34t13 91z" />
    <glyph glyph-name="uni3183" unicode="&#x3183;" horiz-adv-x="940" 
d="M41 302q0 93 31.5 154t97.5 84v83h163v-83q65 -23 97 -83.5t32 -154.5q0 -119 -52.5 -185t-158.5 -66t-158 66.5t-52 184.5zM439 67l234 527l235 -527h-469zM314 302q0 57 -13 91t-50 34q-35 0 -48.5 -33.5t-13.5 -90.5q0 -58 13.5 -92t48.5 -34q37 0 50 34t13 91z
M675 291l-46 -116h90z" />
    <glyph glyph-name="uni3184" unicode="&#x3184;" horiz-adv-x="940" 
d="M182 317v132h84l-12 72l165 20l14 -92h81l15 92l165 -20l-12 -72h75v-132h-575zM470 -35q-83 0 -130.5 41.5t-47.5 110.5q0 67 47.5 109.5t130.5 42.5t130.5 -42.5t47.5 -109.5q0 -68 -47.5 -110t-130.5 -42zM202 556v132h535v-132h-535zM470 150q-18 0 -28 -9t-10 -24
t10 -24.5t28 -9.5t28 9.5t10 24.5t-10 24t-28 9z" />
    <glyph glyph-name="uni3185" unicode="&#x3185;" horiz-adv-x="940" 
d="M134 486v126h247v-126h-247zM51 344v126h408v-126h-408zM258 49q-81 0 -129.5 36.5t-48.5 105.5q0 67 48.5 104.5t129.5 37.5t129.5 -37.5t48.5 -104.5q0 -68 -48.5 -105t-129.5 -37zM258 223q-16 0 -26 -7.5t-10 -24.5q0 -15 10 -24.5t26 -9.5t26 9.5t10 24.5
q0 17 -10 24.5t-26 7.5zM559 486v126h247v-126h-247zM480 344v126h408v-126h-408zM683 49q-81 0 -129.5 36.5t-48.5 105.5q0 67 48.5 104.5t129.5 37.5t129.5 -37.5t48.5 -104.5q0 -68 -48.5 -105t-129.5 -37zM683 223q-16 0 -26 -7.5t-10 -24.5q0 -15 10 -24.5t26 -9.5
t26 9.5t10 24.5q0 17 -10 24.5t-26 7.5z" />
    <glyph glyph-name="uni3186" unicode="&#x3186;" horiz-adv-x="940" 
d="M174 446v132h592v-132h-592zM220 235q0 91 65 137.5t185 46.5q121 0 186 -46.5t65 -137.5t-65 -137.5t-186 -46.5q-120 0 -185 46.5t-65 137.5zM567 235q0 31 -23 47.5t-74 16.5q-49 0 -72.5 -16.5t-23.5 -46.5q0 -65 96 -65q51 0 74 16.5t23 47.5z" />
    <glyph glyph-name="uni3187" unicode="&#x3187;" horiz-adv-x="940" 
d="M807 576h127v-138h-127v-152h127v-138h-127v-310h-167v937h167v-199zM615 49q-76 -10 -149 -17t-145.5 -12t-145.5 -8t-149 -4l-21 136q60 0 119 3v276h168v-268l45 3v265h168v-249q21 2 42.5 4.5t44.5 5.5z" />
    <glyph glyph-name="uni3188" unicode="&#x3188;" horiz-adv-x="940" 
d="M682 583h31v192h165v-940h-165v315h-31v-269h-164v874h164v-172zM494 32q-119 -11 -233.5 -16.5t-234.5 -7.5l-22 135q15 0 30.5 0.5t31.5 0.5v279h168v-272q10 1 19.5 1t19.5 1v270h168v-258l33 3zM682 287h31v159h-31v-159z" />
    <glyph glyph-name="uni3189" unicode="&#x3189;" horiz-adv-x="940" 
d="M666 49q-155 -20 -312.5 -29.5t-307.5 -11.5l-21 136q57 0 119 3v275h168v-268q17 2 33 2.5t33 1.5v264h168v-250q25 2 49 5t49 6zM857 -162h-167v937h167v-937z" />
    <glyph glyph-name="uni318A" unicode="&#x318a;" horiz-adv-x="940" 
d="M158 -151v400q-30 -1 -59.5 -1h-58.5l-21 133q155 1 317.5 10.5t314.5 29.5l23 -131q-33 -5 -67 -9l-68 -8v-424h-168v410l-45 -3v-407h-168zM689 87v32h-103v134h103v526h169v-945h-169v119h-103v134h103z" />
    <glyph glyph-name="uni318B" unicode="&#x318b;" horiz-adv-x="940" 
d="M73 -112v364q-14 -1 -27 -1h-26l-21 133q121 1 246 7t252 17l21 -130l-42 -4l-42 -4v-382h-163v372q-9 -1 -18 -1.5t-17 -0.5v-370h-163zM524 88v32h-50v134h50v505h163v-882h-163v77h-50v134h50zM715 -169v948h164v-948h-164z" />
    <glyph glyph-name="uni318C" unicode="&#x318c;" horiz-adv-x="940" 
d="M158 -151v300q-30 -1 -59.5 -1h-58.5l-21 133q155 1 317.5 10.5t314.5 29.5l23 -131q-33 -5 -67 -9l-68 -8v-324h-168v310l-45 -3v-307h-168zM858 -166h-169v945h169v-945z" />
    <glyph glyph-name="uni318D" unicode="&#x318d;" horiz-adv-x="940" 
d="M590 321q0 -25 -9 -46.5t-25.5 -37t-38.5 -24t-47 -8.5q-26 0 -48 8.5t-38.5 24t-25.5 37t-9 46.5t9 46.5t25.5 37.5t38.5 24.5t48 8.5q25 0 47 -8.5t38.5 -24.5t25.5 -37.5t9 -46.5z" />
    <glyph glyph-name="uni318E" unicode="&#x318e;" horiz-adv-x="940" 
d="M445 328q0 -45 -30 -73.5t-75 -28.5t-75 28.5t-30 73.5t30 73t75 28t75 -28t30 -73zM713 -162h-169v937h169v-937z" />
    <glyph glyph-name="uni2170" unicode="&#x2170;" horiz-adv-x="940" 
d="M389 478h162v-528h-162v528zM551 529h-162v153h162v-153z" />
    <glyph glyph-name="uni2171" unicode="&#x2171;" horiz-adv-x="940" 
d="M269 478h162v-528h-162v528zM431 529h-162v153h162v-153zM509 478h162v-528h-162v528zM671 529h-162v153h162v-153z" />
    <glyph glyph-name="uni2172" unicode="&#x2172;" horiz-adv-x="940" 
d="M149 478h162v-528h-162v528zM311 529h-162v153h162v-153zM389 478h162v-528h-162v528zM551 529h-162v153h162v-153zM629 478h162v-528h-162v528zM791 529h-162v153h162v-153z" />
    <glyph glyph-name="uni2173" unicode="&#x2173;" horiz-adv-x="940" 
d="M488 478l99 -290l102 290h160l-195 -528h-138l-193 528h165zM136 478h162v-528h-162v528zM298 529h-162v153h162v-153z" />
    <glyph glyph-name="uni2174" unicode="&#x2174;" horiz-adv-x="940" 
d="M372 478l99 -290l102 290h160l-195 -528h-138l-193 528h165z" />
    <glyph glyph-name="uni2175" unicode="&#x2175;" horiz-adv-x="940" 
d="M257 478l99 -290l102 290h160l-195 -528h-138l-193 528h165zM638 478h162v-528h-162v528zM800 529h-162v153h162v-153z" />
    <glyph glyph-name="uni2176" unicode="&#x2176;" horiz-adv-x="940" 
d="M206 479l85 -291l84 290h155l-170 -528h-138l-174 529h158zM715 478h151v-528h-151v528zM544 478h151v-528h-151v528zM866 529h-151v153h151v-153zM695 529h-151v153h151v-153z" />
    <glyph glyph-name="uni2177" unicode="&#x2177;" horiz-adv-x="940" 
d="M177 478l43 -255l45 255h136l-108 -528h-138l-117 528h139zM573 478h141v-532h-141v532zM730 478h141v-532h-141v532zM415 478h141v-532h-141v532zM556 529h-141v153h141v-153zM871 529h-141v153h141v-153zM714 529h-141v153h141v-153z" />
    <glyph glyph-name="uni2178" unicode="&#x2178;" horiz-adv-x="940" 
d="M490 213l-179 265h173l93 -137l93 137h173l-179 -265l179 -263h-175l-91 134l-90 -134h-175zM136 478h162v-528h-162v528zM298 529h-162v153h162v-153z" />
    <glyph glyph-name="uni2179" unicode="&#x2179;" horiz-adv-x="940" 
d="M386 213l-179 265h173l93 -137l93 137h173l-179 -265l179 -263h-175l-91 134l-90 -134h-175z" />
    <glyph glyph-name="uni2160" unicode="&#x2160;" horiz-adv-x="940" 
d="M551 -49h-165v727h165v-727z" />
    <glyph glyph-name="uni2161" unicode="&#x2161;" horiz-adv-x="940" 
d="M431 -49h-165v727h165v-727zM671 -49h-165v727h165v-727z" />
    <glyph glyph-name="uni2162" unicode="&#x2162;" horiz-adv-x="940" 
d="M311 -49h-165v727h165v-727zM552 -49h-165v727h165v-727zM792 -49h-165v727h165v-727z" />
    <glyph glyph-name="uni2163" unicode="&#x2163;" horiz-adv-x="940" 
d="M576 230l136 447h164l-233 -727h-131l-234 727h164zM268 -49h-165v727h165v-727z" />
    <glyph glyph-name="uni2164" unicode="&#x2164;" horiz-adv-x="940" 
d="M468 229l138 448h164l-237 -727h-131l-234 727h164z" />
    <glyph glyph-name="uni2165" unicode="&#x2165;" horiz-adv-x="940" 
d="M358 230l136 447h164l-233 -727h-131l-234 727h164zM836 -49h-165v727h165v-727z" />
    <glyph glyph-name="uni2166" unicode="&#x2166;" horiz-adv-x="940" 
d="M288 283l85 394h156l-173 -727h-135l-172 727h156zM866 -50h-155v727h155v-727zM696 -50h-155v727h155v-727z" />
    <glyph glyph-name="uni2167" unicode="&#x2167;" horiz-adv-x="940" 
d="M207 325l46 352h139l-110 -731h-145l-111 731h138zM867 -50h-143v727h143v-727zM709 -50h-143v727h143v-727zM551 -50h-143v727h143v-727z" />
    <glyph glyph-name="uni2168" unicode="&#x2168;" horiz-adv-x="940" 
d="M493 314l-209 363h178l120 -208l119 208h178l-207 -363l211 -364h-180l-120 208l-119 -208h-180zM276 -50h-165v727h165v-727z" />
    <glyph glyph-name="uni2169" unicode="&#x2169;" horiz-adv-x="940" 
d="M469 171l-140 -227h-180l231 373l-226 368h179l137 -222l137 222h179l-227 -368l230 -373h-180z" />
    <glyph glyph-name="Alpha" unicode="&#x391;" horiz-adv-x="600" 
d="M399 117h-201l-52 -167h-158l242 727h139l240 -727h-157zM237 242h123l-62 197z" />
    <glyph glyph-name="Beta" unicode="&#x392;" horiz-adv-x="570" 
d="M275 677q58 0 102.5 -10t75.5 -33t47 -59.5t16 -88.5q0 -23 -3 -44t-11 -39.5t-22.5 -34.5t-37.5 -31q55 -26 81 -71t26 -101q0 -59 -16 -100t-47 -66.5t-75 -37t-101 -11.5h-257v727h222zM297 82q47 0 70.5 17.5t23.5 66.5q0 46 -27.5 69.5t-76.5 23.5h-86v-177h96z
M264 391q46 0 70 20.5t24 69.5q0 40 -23.5 52t-61.5 12h-72v-154h63z" />
    <glyph glyph-name="Gamma" unicode="&#x393;" horiz-adv-x="530" 
d="M63 -51v728h445v-134h-278v-594h-167z" />
    <glyph glyph-name="uni0394" unicode="&#x394;" horiz-adv-x="640" 
d="M-4 -50l279 727h106l262 -727h-647zM324 409l-117 -327h225z" />
    <glyph glyph-name="Epsilon" unicode="&#x395;" horiz-adv-x="560" 
d="M215 259v-176h319v-133h-481v727h465v-133h-303v-153h287v-132h-287z" />
    <glyph glyph-name="Zeta" unicode="&#x396;" horiz-adv-x="570" 
d="M343 544h-318v133h525v-89l-337 -505h342v-133h-549v88z" />
    <glyph glyph-name="Eta" unicode="&#x397;" horiz-adv-x="660" 
d="M218 391h223v286h165v-727h-165v309h-223v-309h-165v727h165v-286z" />
    <glyph glyph-name="Theta" unicode="&#x398;" horiz-adv-x="700" 
d="M350 -65q-73 0 -133 24t-103 71.5t-66.5 116.5t-23.5 159q0 93 23 164.5t66 119.5t103 72.5t134 24.5t134 -24.5t103 -72.5t66 -119.5t23 -164.5q0 -90 -23.5 -159t-66.5 -116.5t-103 -71.5t-133 -24zM350 558q-45 0 -77.5 -19t-53.5 -52.5t-30.5 -79.5t-9.5 -101
t10.5 -99.5t32 -76t53.5 -48.5t75 -17t75 17t53.5 48.5t32 76t10.5 99.5t-9.5 101t-30.5 79.5t-53.5 52.5t-77.5 19zM203 239v132h294v-132h-294z" />
    <glyph glyph-name="Iota" unicode="&#x399;" horiz-adv-x="241" 
d="M202 -50h-165v727h165v-727z" />
    <glyph glyph-name="Kappa" unicode="&#x39a;" horiz-adv-x="593" 
d="M339 365l318 -415h-188l-235 307l-18 -20v-287h-163v727h163v-242l236 243h190z" />
    <glyph glyph-name="Lambda" unicode="&#x39b;" horiz-adv-x="600" 
d="M-5 -50l238 727h133l238 -727h-170l-136 447l-133 -447h-170z" />
    <glyph glyph-name="Mu" unicode="&#x39c;" horiz-adv-x="780" 
d="M553 677h173v-727h-143v378l-122 -378h-143l-122 378v-378h-143v727h173l163 -517z" />
    <glyph glyph-name="Nu" unicode="&#x39d;" horiz-adv-x="665" 
d="M615 -50h-172l-235 462v-463h-155v728h172l235 -459v459h155v-727z" />
    <glyph glyph-name="Xi" unicode="&#x39e;" horiz-adv-x="660" 
d="M62 547v132h534v-132h-534zM136 259v131h387v-131h-387zM62 -51v132h534v-132h-534z" />
    <glyph glyph-name="Omicron" unicode="&#x39f;" horiz-adv-x="700" 
d="M350 -69q-72 0 -131.5 25t-103 72.5t-67.5 117.5t-24 160q0 93 23.5 165t66.5 121t103 74t133 25t133 -25t103 -74t66.5 -121t23.5 -165q0 -90 -24 -160t-67.5 -117.5t-103 -72.5t-131.5 -25zM350 562q-44 0 -76 -19.5t-52.5 -54t-30.5 -81t-10 -101.5t10.5 -100
t32 -77.5t53 -50t73.5 -17.5t73.5 17.5t53 50t32 77.5t10.5 100t-10 101.5t-30.5 81t-52.5 54t-76 19.5z" />
    <glyph glyph-name="Pi" unicode="&#x3a0;" horiz-adv-x="660" 
d="M596 -52h-165v599h-203v-599h-165v731h533v-731z" />
    <glyph glyph-name="Rho" unicode="&#x3a1;" horiz-adv-x="557" 
d="M300 677q123 0 181 -54t58 -169q0 -113 -58.5 -173.5t-180.5 -60.5h-88v-270h-159v727h247zM296 353q42 0 63 22t21 77t-21 73.5t-63 18.5h-84v-191h84z" />
    <glyph glyph-name="Sigma" unicode="&#x3a3;" horiz-adv-x="570" 
d="M36 -50v71l287 292l-287 269v95h504v-132h-265l246 -222l-240 -240h260v-133h-505z" />
    <glyph glyph-name="Tau" unicode="&#x3a4;" horiz-adv-x="530" 
d="M-4 544v133h538v-133h-190v-594h-165v594h-183z" />
    <glyph glyph-name="Upsilon" unicode="&#x3a5;" horiz-adv-x="600" 
d="M216 271l-235 406h173l145 -262l147 262h171l-236 -405v-322h-165v321z" />
    <glyph glyph-name="Phi" unicode="&#x3a6;" horiz-adv-x="640" 
d="M395 569q45 -10 83 -32.5t65 -55.5t42 -77t15 -98t-15 -98t-42 -77.5t-65 -55.5t-83 -32v-93h-152v93q-45 10 -82.5 32.5t-64.5 55.5t-42 77t-15 98t15 98t42 77t64.5 55.5t82.5 32.5v109h152v-109zM449 306q0 88 -54 125v-251q54 37 54 126zM190 307q0 -88 53 -125v248
q-53 -37 -53 -123z" />
    <glyph glyph-name="Chi" unicode="&#x3a7;" horiz-adv-x="590" 
d="M206 315l-223 361h177l134 -218l135 219h181l-225 -364l225 -363h-177l-137 220l-135 -220h-180z" />
    <glyph glyph-name="Psi" unicode="&#x3a8;" horiz-adv-x="680" 
d="M422 298q25 17 39 48t14 82v250h159v-237q0 -69 -15.5 -119.5t-43.5 -85t-67 -54.5t-86 -29v-203h-163v203q-47 8 -86.5 28.5t-67.5 55t-43.5 85t-15.5 119.5v237h159v-250q0 -51 14 -82.5t40 -48.5v381h163v-380z" />
    <glyph glyph-name="uni03A9" unicode="&#x3a9;" horiz-adv-x="760" 
d="M380 555q-87 0 -128 -57.5t-41 -154.5q0 -101 37 -176.5t104 -116.5v-101h-315v132h93q-42 54 -61.5 121.5t-19.5 139.5q0 164 83.5 252.5t247.5 88.5t247.5 -88.5t83.5 -252.5q0 -72 -19.5 -139.5t-61.5 -121.5h93v-132h-315v101q67 41 104 116.5t37 176.5
q0 97 -41 154.5t-128 57.5z" />
    <glyph glyph-name="alpha" unicode="&#x3b1;" horiz-adv-x="623" 
d="M628 61q-11 -38 -24 -62t-29 -38.5t-36.5 -20t-45.5 -5.5q-14 0 -29.5 4t-31 13t-28.5 24t-22 37q-20 -25 -39.5 -40t-39 -23.5t-37.5 -11t-33 -2.5q-60 0 -100.5 21t-65 57t-34.5 84.5t-8 103.5q2 59 15.5 111.5t40.5 91.5t70 62t103 23q15 0 33 -2.5t37.5 -11t39.5 -25
t38 -45.5l24 76l141 -44l-102 -288q3 -57 12.5 -75t20.5 -18q2 0 6.5 7.5t10.5 39.5zM323 227q5 62 -13 100.5t-56 38.5q-24 0 -40 -17t-25 -42.5t-13 -55t-5 -53.5q-4 -72 11 -105.5t50 -33.5q23 0 39.5 16t27.5 40.5t16.5 54t7.5 57.5z" />
    <glyph glyph-name="beta" unicode="&#x3b2;" horiz-adv-x="540" 
d="M509 168q0 -48 -12 -90t-38.5 -73t-67.5 -49t-98 -18q-20 0 -41.5 3t-39.5 11v-133h-149v664q0 57 14 95.5t41 61.5t65.5 32.5t86.5 9.5q99 0 155.5 -51.5t56.5 -142.5q0 -40 -12.5 -76t-47.5 -68q48 -35 67.5 -84t19.5 -92zM362 168q0 20 -3.5 40t-11.5 35.5t-21 25.5
t-32 10h-51v118h51q23 0 31.5 20t8.5 70q0 39 -17 56.5t-47 17.5q-12 0 -22.5 -3.5t-18.5 -12.5t-12.5 -25t-4.5 -42v-396q17 -15 33.5 -19.5t37.5 -4.5q43 0 61 29.5t18 80.5z" />
    <glyph glyph-name="gamma" unicode="&#x3b3;" horiz-adv-x="520" 
d="M328 70q15 -22 29.5 -44.5t26.5 -45.5q19 -38 18.5 -74t-18 -64t-50.5 -45t-79 -17q-42 0 -76.5 15.5t-54 42.5t-21.5 63.5t20 77.5q13 24 28.5 49t34.5 51l-185 363l133 59l123 -275l129 271l133 -58zM275 -82q0 5 -6 19.5t-13 26.5q-11 -14 -15.5 -27t-4.5 -20
q0 -24 19 -24q20 0 20 25z" />
    <glyph glyph-name="delta" unicode="&#x3b4;" horiz-adv-x="560" 
d="M29 188q0 39 12.5 74.5t35 66t53.5 56.5t68 46q-38 32 -53 66.5t-15 64.5q0 51 40 85.5t124 34.5q60 0 102.5 -15.5t75.5 -41.5l-70 -112q-24 20 -47 35.5t-57 15.5q-7 0 -12.5 -2t-5.5 -10q0 -25 20.5 -44.5t41.5 -33.5q104 -68 147 -135.5t43 -146.5q0 -58 -17.5 -105
t-50.5 -80.5t-79.5 -51.5t-104.5 -18q-56 0 -102 15t-79 46t-51.5 78.5t-18.5 111.5zM375 185q0 28 -4.5 49t-16 39t-31 35.5t-49.5 38.5q-37 -23 -63 -63.5t-26 -94.5q0 -37 8.5 -61.5t23 -39t32.5 -20.5t36 -6q36 0 63 28.5t27 94.5z" />
    <glyph glyph-name="epsilon" unicode="&#x3b5;" horiz-adv-x="470" 
d="M451 83q-31 -80 -83 -112.5t-131 -32.5q-44 0 -82.5 8t-67.5 26.5t-46 48.5t-17 74q0 18 5 38.5t18 40t35 35.5t56 25q-26 7 -44 20.5t-29.5 30t-16.5 33.5t-5 31q0 42 18 70.5t46.5 45t63.5 23.5t70 7q66 0 115 -25t85 -90l-120 -64q-23 32 -43 45.5t-37 13.5
q-20 0 -33.5 -5t-13.5 -19q0 -16 9.5 -26.5t26 -17t39.5 -9t49 -1.5v-128q-75 -2 -107.5 -19t-32.5 -53q0 -20 16 -28.5t44 -8.5q30 0 49 17t35 59z" />
    <glyph glyph-name="zeta" unicode="&#x3b6;" horiz-adv-x="460" 
d="M440 -89q0 -26 -8 -49.5t-25.5 -41t-45.5 -28t-68 -10.5q-15 0 -27 0.5t-25.5 3t-29.5 8.5t-39 17l42 117q9 -5 26 -11t34 -8q20 -1 22 13q1 12 -7 19.5t-20 12t-26 7.5t-24 6q-42 12 -78 33.5t-62.5 51.5t-41.5 67.5t-16 81.5q-2 83 33 168.5t116 178.5h-107v130h311
v-105q-94 -82 -146 -173.5t-47 -195.5q3 -53 23.5 -80.5t69.5 -38.5q42 -10 73 -23.5t51.5 -33.5t31 -48.5t10.5 -68.5z" />
    <glyph glyph-name="eta" unicode="&#x3b7;" horiz-adv-x="600" 
d="M496 -36q0 -9 4 -15t13 -6q8 0 18 8.5t19 23.5l75 -86q-33 -42 -64 -57.5t-63 -15.5q-71 0 -113.5 33t-42.5 106v347q0 37 -18 50.5t-45 13.5q-21 0 -36.5 -11t-32.5 -37v-375h-158v535h158v-21q10 10 22.5 16.5t25 10.5t23.5 5.5t18 1.5q44 0 80 -12t62 -35.5
t40.5 -58.5t14.5 -82v-339z" />
    <glyph glyph-name="theta" unicode="&#x3b8;" horiz-adv-x="580" 
d="M290 -62q-128 0 -191.5 96t-63.5 272q0 183 62 280.5t193 97.5t193 -97.5t62 -280.5q0 -176 -63.5 -272t-191.5 -96zM290 559q-26 0 -44.5 -14t-31 -39t-19 -59.5t-9.5 -75.5h207q-2 41 -8.5 75.5t-19 59.5t-31 39t-44.5 14zM290 64q49 0 72.5 47.5t29.5 127.5h-205
q6 -80 30 -127.5t73 -47.5z" />
    <glyph glyph-name="iota" unicode="&#x3b9;" horiz-adv-x="280" 
d="M194 480v-400q0 -10 1 -14t7 -4q8 0 14 9t12 20l69 -82q-16 -21 -29.5 -35t-28 -22.5t-29.5 -12t-34 -3.5q-31 0 -56.5 7t-43.5 22.5t-28 40.5t-10 61v413h156z" />
    <glyph glyph-name="kappa" unicode="&#x3ba;" horiz-adv-x="482" 
d="M299 262l213 -312h-175l-129 195v-195h-156v528h156v-119l113 118h183z" />
    <glyph glyph-name="lambda" unicode="&#x3bb;" horiz-adv-x="629" 
d="M275 212l-119 -288l-139 52l189 450l-26 81q-6 20 -15 28t-19 10h-4t-6.5 -0.5t-12.5 -2.5t-22 -5l-32 135q35 10 55.5 11.5t38.5 0.5q56 -4 98.5 -32t64.5 -95l143 -438q6 -18 11.5 -30.5t11.5 -13.5q5 -1 8.5 6t10.5 33l130 -51q-14 -37 -27 -61t-30 -38.5t-39.5 -20
t-55.5 -5.5q-65 0 -106.5 37t-63.5 104z" />
    <glyph glyph-name="uni03BC" unicode="&#x3bc;" horiz-adv-x="540" 
d="M336 478h160v-347q0 -88 -48.5 -140t-147.5 -52q-26 0 -48 5.5t-40 19.5v-213h-160v727h160v-361q17 -28 32 -40.5t40 -12.5q26 0 39 15t13 51v348z" />
    <glyph glyph-name="nu" unicode="&#x3bd;" horiz-adv-x="500" 
d="M330 -50h-107l-138 380q-3 10 -9 18.5t-15.5 15t-24.5 9.5t-37 2v130q10 1 17.5 1h15.5q75 0 119.5 -29.5t65.5 -93.5l57 -173l80 268h158z" />
    <glyph glyph-name="xi" unicode="&#x3be;" horiz-adv-x="460" 
d="M137 470q0 25 6.5 42.5t23.5 34.5h-104v131h308l-2 -110q-37 -20 -58.5 -40t-21.5 -55q0 -25 15 -42t40 -29v-109q-31 -7 -55.5 -22t-41 -35t-24.5 -42t-8 -43q1 -22 17 -40t44 -26q35 -11 65 -24t52.5 -33t35 -48.5t12.5 -68.5q0 -28 -8 -51.5t-25.5 -41t-46 -27
t-68.5 -9.5q-15 0 -27.5 0.5t-26 3.5t-29.5 9t-39 17l43 116q11 -6 27 -12t36 -9q7 -1 12.5 1.5t7.5 8.5q3 10 -4 18t-19 14t-27 10.5t-28 7.5q-32 8 -59.5 23.5t-47.5 38t-31.5 51.5t-11.5 64q0 66 32.5 117t107.5 95q-33 20 -52.5 51t-19.5 63z" />
    <glyph glyph-name="omicron" unicode="&#x3bf;" horiz-adv-x="550" 
d="M275 -69q-55 0 -103 17.5t-83 52.5t-55.5 87.5t-20.5 121.5q0 72 19.5 126t54.5 89.5t83 53t105 17.5t105 -17.5t83 -53t54.5 -89.5t19.5 -126q0 -69 -20.5 -121.5t-55.5 -87.5t-83 -52.5t-103 -17.5zM275 374q-29 0 -49.5 -12.5t-33 -34.5t-18.5 -52t-6 -65
q0 -79 29 -118t78 -39t78 39t29 118q0 35 -6 65t-18.5 52t-33 34.5t-49.5 12.5z" />
    <glyph glyph-name="pi" unicode="&#x3c0;" horiz-adv-x="620" 
d="M489 81q0 -14 0.5 -16.5t2.5 -2.5q4 -1 10 4.5t19 25.5l69 -85q-30 -36 -57.5 -52.5t-63.5 -16.5q-69 0 -104 30t-35 103v276h-49v-172q0 -66 -11 -110.5t-39 -71.5t-74.5 -39t-118.5 -12v124q32 0 49.5 4t25 16t8.5 35t1 62v164h-87v130h542v-130h-88v-266v0z" />
    <glyph glyph-name="rho" unicode="&#x3c1;" horiz-adv-x="570" 
d="M51 194q0 94 22.5 151.5t58 89.5t78 43t82.5 11q57 0 104.5 -17t81 -51.5t52 -87.5t18.5 -126q0 -64 -17 -114t-46.5 -84.5t-70.5 -52.5t-89 -18q-32 0 -63 6.5t-54 22.5v-216h-157v443zM208 173q0 -47 22 -79.5t65 -32.5q27 0 44.5 11t28 31t14.5 47.5t4 59.5
q1 75 -18.5 115.5t-74.5 40.5q-43 0 -64 -35t-21 -112v-46z" />
    <glyph glyph-name="sigma" unicode="&#x3c3;" horiz-adv-x="570" 
d="M569 396q-29 -5 -50 -6t-42 -1q24 -35 37 -79t13 -100q0 -69 -18.5 -120.5t-52 -85t-80 -50t-101.5 -16.5q-56 0 -102 16.5t-79 50t-51.5 85t-18.5 120.5q0 72 18.5 125t51.5 87t79 50.5t102 16.5q32 0 62 1.5t62 4.5t68 8.5t81 13.5zM275 367q-26 0 -44 -11.5t-28.5 -32
t-15 -49.5t-4.5 -64q0 -79 25 -114.5t67 -35.5q43 0 68 35.5t25 114.5q0 35 -5 64t-16 49.5t-28.5 32t-43.5 11.5z" />
    <glyph glyph-name="tau" unicode="&#x3c4;" horiz-adv-x="530" 
d="M338 75q0 -8 1 -10.5t3 -2.5q11 1 29 31l71 -83q-32 -41 -59 -56.5t-62 -15.5q-32 0 -57.5 6.5t-43.5 21.5t-27.5 39.5t-9.5 60.5v282h-175v130h514v-130h-184v-273z" />
    <glyph glyph-name="upsilon" unicode="&#x3c5;" horiz-adv-x="555" 
d="M440 492q35 -76 55.5 -151.5t20.5 -153.5q0 -54 -13 -100t-41.5 -79t-73.5 -52t-109 -19q-50 0 -91.5 13.5t-71.5 41t-46.5 69.5t-16.5 99v318h156v-312q0 -53 18 -73.5t48 -20.5q52 0 68.5 29.5t16.5 82.5q0 36 -6.5 73.5t-16.5 74t-22.5 70t-23.5 60.5z" />
    <glyph glyph-name="phi" unicode="&#x3c6;" horiz-adv-x="550" 
d="M346 481q82 -20 131 -86.5t49 -184.5q0 -56 -13 -101t-37 -78t-57 -54t-73 -31v-114h-141v115q-40 10 -73.5 31t-57.5 54t-37 77.5t-13 100.5q0 118 48.5 185t132.5 86v114h141v-114zM167 210q0 -43 10 -73.5t28 -50.5v255q-20 -22 -29 -56t-9 -75zM383 210q0 40 -9 73.5
t-28 56.5v-256q17 20 27 51t10 75z" />
    <glyph glyph-name="chi" unicode="&#x3c7;" horiz-adv-x="550" 
d="M184 114l-214 370h181l123 -214l125 215h181l-216 -371l216 -372h-180l-126 217l-126 -217h-180z" />
    <glyph glyph-name="psi" unicode="&#x3c8;" horiz-adv-x="680" 
d="M422 98q25 17 39 48t14 82v250h159v-237q0 -69 -15.5 -119.5t-43.5 -85t-67 -54.5t-86 -28v-204h-163v204q-47 8 -86.5 28t-67.5 54.5t-43.5 85t-15.5 119.5v237h159v-250q0 -51 14 -82.5t40 -48.5v381h163v-380z" />
    <glyph glyph-name="omega" unicode="&#x3c9;" horiz-adv-x="720" 
d="M485 -61q-30 0 -62 11.5t-62 37.5q-27 -26 -60 -38t-67 -12q-59 0 -98 18.5t-63 50.5t-34 75.5t-10 94.5q0 49 5 90.5t17.5 78.5t35.5 72t59 71l116 -73q-50 -53 -66 -109t-16 -129q0 -21 1 -39.5t6.5 -32.5t16.5 -22t31 -8q18 0 33.5 10t15.5 29v188h152v-188
q0 -19 13.5 -29t34.5 -10q17 0 27.5 8t17 22t9 33t2.5 40q1 77 -24 137t-65 97l118 77q36 -37 59 -72t36.5 -72t19 -78.5t5.5 -90.5q0 -51 -11 -94.5t-35 -75.5t-63 -50t-95 -18z" />
    <glyph glyph-name="SF100000" unicode="&#x2500;" horiz-adv-x="940" 
d="M0 286v29h940v-29h-940z" />
    <glyph glyph-name="SF110000" unicode="&#x2502;" horiz-adv-x="940" 
d="M455 -200v1000h29v-1000h-29z" />
    <glyph glyph-name="SF010000" unicode="&#x250c;" horiz-adv-x="940" 
d="M484 286v-486h-29v515h485v-29h-456z" />
    <glyph glyph-name="SF030000" unicode="&#x2510;" horiz-adv-x="940" 
d="M455 -200v486h-455v29h484v-515h-29z" />
    <glyph glyph-name="SF040000" unicode="&#x2518;" horiz-adv-x="940" 
d="M0 286v29h455v485h29v-514h-484z" />
    <glyph glyph-name="SF020000" unicode="&#x2514;" horiz-adv-x="940" 
d="M455 286v514h29v-485h426v-29h-455z" />
    <glyph glyph-name="SF080000" unicode="&#x251c;" horiz-adv-x="940" 
d="M484 286v-486h-29v1000h29v-485h436v-29h-436z" />
    <glyph glyph-name="SF060000" unicode="&#x252c;" horiz-adv-x="940" 
d="M484 286v-486h-29v486h-455v29h940v-29h-456z" />
    <glyph glyph-name="SF090000" unicode="&#x2524;" horiz-adv-x="940" 
d="M455 -200v486h-455v29h455v485h29v-1000h-29z" />
    <glyph glyph-name="SF070000" unicode="&#x2534;" horiz-adv-x="940" 
d="M0 286v29h455v485h29v-485h436v-29h-920z" />
    <glyph glyph-name="SF050000" unicode="&#x253c;" horiz-adv-x="940" 
d="M484 285v-485h-29v485h-455v29h455v486h29v-486h436v-29h-436z" />
    <glyph glyph-name="uni2501" unicode="&#x2501;" horiz-adv-x="940" 
d="M0 271v54h920v-54h-920z" />
    <glyph glyph-name="uni2503" unicode="&#x2503;" horiz-adv-x="940" 
d="M442 -200v1000h54v-1000h-54z" />
    <glyph glyph-name="uni250F" unicode="&#x250f;" horiz-adv-x="940" 
d="M496 271v-471h-54v525h498v-54h-444z" />
    <glyph glyph-name="uni2513" unicode="&#x2513;" horiz-adv-x="940" 
d="M442 -200v471h-442v54h496v-525h-54z" />
    <glyph glyph-name="uni251B" unicode="&#x251b;" horiz-adv-x="940" 
d="M0 271v54h442v475h54v-529h-496z" />
    <glyph glyph-name="uni2517" unicode="&#x2517;" horiz-adv-x="940" 
d="M442 271v529h54v-475h444v-54h-498z" />
    <glyph glyph-name="uni2523" unicode="&#x2523;" horiz-adv-x="940" 
d="M496 271v-471h-54v1000h54v-475h444v-54h-444z" />
    <glyph glyph-name="uni2533" unicode="&#x2533;" horiz-adv-x="940" 
d="M496 271v-471h-54v471h-442v54h920v-54h-424z" />
    <glyph glyph-name="uni252B" unicode="&#x252b;" horiz-adv-x="940" 
d="M442 -200v471h-442v54h442v475h54v-1000h-54z" />
    <glyph glyph-name="uni253B" unicode="&#x253b;" horiz-adv-x="940" 
d="M0 271v54h442v475h54v-475h444v-54h-940z" />
    <glyph glyph-name="uni254B" unicode="&#x254b;" horiz-adv-x="940" 
d="M496 271v-471h-54v471h-442v54h442v475h54v-475h444v-54h-444z" />
    <glyph glyph-name="uni2520" unicode="&#x2520;" horiz-adv-x="940" 
d="M507 282v-482h-76v1000h76v-482h433v-36h-433z" />
    <glyph glyph-name="uni252F" unicode="&#x252f;" horiz-adv-x="940" 
d="M488 264v-464h-38v464h-450v72h940v-72h-452z" />
    <glyph glyph-name="uni2528" unicode="&#x2528;" horiz-adv-x="940" 
d="M431 -200v482h-431v36h431v482h76v-1000h-76z" />
    <glyph glyph-name="uni2537" unicode="&#x2537;" horiz-adv-x="940" 
d="M0 264v72h450v464h38v-464h452v-72h-940z" />
    <glyph glyph-name="uni253F" unicode="&#x253f;" horiz-adv-x="940" 
d="M488 264v-464h-38v464h-450v72h450v464h38v-464h452v-72h-452z" />
    <glyph glyph-name="uni251D" unicode="&#x251d;" horiz-adv-x="940" 
d="M488 264v-464h-38v1000h38v-464h452v-72h-452z" />
    <glyph glyph-name="uni2530" unicode="&#x2530;" horiz-adv-x="940" 
d="M507 282v-482h-76v482h-431v36h940v-36h-433z" />
    <glyph glyph-name="uni2525" unicode="&#x2525;" horiz-adv-x="940" 
d="M450 -200v464h-450v72h450v464h38v-1000h-38z" />
    <glyph glyph-name="uni2538" unicode="&#x2538;" horiz-adv-x="940" 
d="M0 282v36h431v482h76v-482h433v-36h-940z" />
    <glyph glyph-name="uni2542" unicode="&#x2542;" horiz-adv-x="940" 
d="M507 282v-482h-76v482h-431v36h431v482h76v-482h433v-36h-433z" />
    <glyph glyph-name="uni2512" unicode="&#x2512;" horiz-adv-x="940" 
d="M431 -200v482h-431v36h507v-518h-76z" />
    <glyph glyph-name="uni2511" unicode="&#x2511;" horiz-adv-x="940" 
d="M450 -200v464h-450v72h488v-536h-38z" />
    <glyph glyph-name="uni251A" unicode="&#x251a;" horiz-adv-x="940" 
d="M0 282v36h431v482h76v-518h-507z" />
    <glyph glyph-name="uni2519" unicode="&#x2519;" horiz-adv-x="940" 
d="M0 264v72h450v464h38v-536h-488z" />
    <glyph glyph-name="uni2516" unicode="&#x2516;" horiz-adv-x="940" 
d="M431 282v518h76v-482h433v-36h-509z" />
    <glyph glyph-name="uni2515" unicode="&#x2515;" horiz-adv-x="940" 
d="M450 264v536h38v-464h452v-72h-490z" />
    <glyph glyph-name="uni250E" unicode="&#x250e;" horiz-adv-x="940" 
d="M507 282v-482h-76v518h509v-36h-433z" />
    <glyph glyph-name="uni250D" unicode="&#x250d;" horiz-adv-x="940" 
d="M488 264v-464h-38v536h490v-72h-452z" />
    <glyph glyph-name="uni251E" unicode="&#x251e;" horiz-adv-x="940" 
d="M487 282v-482h-37v500h-19v500h76v-482h433v-36h-453z" />
    <glyph glyph-name="uni251F" unicode="&#x251f;" horiz-adv-x="940" 
d="M507 282v-482h-76v500h19v500h38v-482h452v-36h-433z" />
    <glyph glyph-name="uni2521" unicode="&#x2521;" horiz-adv-x="940" 
d="M488 264v-464h-38v500h-19v500h76v-464h433v-72h-452z" />
    <glyph glyph-name="uni2522" unicode="&#x2522;" horiz-adv-x="940" 
d="M507 264v-464h-76v500h19v500h38v-464h452v-72h-433z" />
    <glyph glyph-name="uni2526" unicode="&#x2526;" horiz-adv-x="940" 
d="M488 300v-500h-38v482h-450v36h431v482h76v-500h-19z" />
    <glyph glyph-name="uni2527" unicode="&#x2527;" horiz-adv-x="940" 
d="M431 -200v482h-431v36h450v482h38v-500h19v-500h-76z" />
    <glyph glyph-name="uni2529" unicode="&#x2529;" horiz-adv-x="940" 
d="M488 300v-500h-38v464h-450v72h431v464h76v-500h-19z" />
    <glyph glyph-name="uni252A" unicode="&#x252a;" horiz-adv-x="940" 
d="M431 -200v464h-431v72h450v464h38v-500h19v-500h-76z" />
    <glyph glyph-name="uni252D" unicode="&#x252d;" horiz-adv-x="940" 
d="M488 282v-482h-38v464h-450v72h469v-18h471v-36h-452z" />
    <glyph glyph-name="uni252E" unicode="&#x252e;" horiz-adv-x="940" 
d="M488 264v-464h-38v482h-450v36h469v18h471v-72h-452z" />
    <glyph glyph-name="uni2531" unicode="&#x2531;" horiz-adv-x="940" 
d="M507 282v-482h-76v464h-431v72h469v-18h471v-36h-433z" />
    <glyph glyph-name="uni2532" unicode="&#x2532;" horiz-adv-x="940" 
d="M507 264v-464h-76v482h-431v36h469v18h471v-72h-433z" />
    <glyph glyph-name="uni2535" unicode="&#x2535;" horiz-adv-x="940" 
d="M469 282v-18h-469v72h450v464h38v-482h452v-36h-471z" />
    <glyph glyph-name="uni2536" unicode="&#x2536;" horiz-adv-x="940" 
d="M469 264v18h-469v36h450v482h38v-464h452v-72h-471z" />
    <glyph glyph-name="uni2539" unicode="&#x2539;" horiz-adv-x="940" 
d="M469 282v-18h-469v72h431v464h76v-482h433v-36h-471z" />
    <glyph glyph-name="uni253A" unicode="&#x253a;" horiz-adv-x="940" 
d="M469 264v18h-469v36h431v482h76v-464h433v-72h-471z" />
    <glyph glyph-name="uni253D" unicode="&#x253d;" horiz-adv-x="940" 
d="M488 282v-482h-38v464h-450v76h450v460h38v-482h452v-36h-452z" />
    <glyph glyph-name="uni253E" unicode="&#x253e;" horiz-adv-x="940" 
d="M488 264v-464h-38v482h-450v36h450v482h38v-464h452v-72h-452z" />
    <glyph glyph-name="uni2540" unicode="&#x2540;" horiz-adv-x="940" 
d="M488 282v-482h-38v482h-450v36h431v482h76v-482h433v-36h-452z" />
    <glyph glyph-name="uni2541" unicode="&#x2541;" horiz-adv-x="940" 
d="M507 282v-482h-76v482h-431v36h450v482h38v-482h452v-36h-433z" />
    <glyph glyph-name="uni2543" unicode="&#x2543;" horiz-adv-x="940" 
d="M488 282v-482h-38v464h-450v72h431v464h76v-482h433v-36h-452z" />
    <glyph glyph-name="uni2544" unicode="&#x2544;" horiz-adv-x="940" 
d="M488 264v-464h-38v482h-450v36h431v482h76v-464h433v-72h-452z" />
    <glyph glyph-name="uni2545" unicode="&#x2545;" horiz-adv-x="940" 
d="M507 282v-482h-76v464h-431v72h450v464h38v-482h452v-36h-433z" />
    <glyph glyph-name="uni2546" unicode="&#x2546;" horiz-adv-x="940" 
d="M507 264v-464h-76v482h-431v36h450v482h38v-464h452v-72h-433z" />
    <glyph glyph-name="uni2547" unicode="&#x2547;" horiz-adv-x="940" 
d="M488 264v-464h-38v464h-450v72h431v464h76v-464h433v-72h-452z" />
    <glyph glyph-name="uni2548" unicode="&#x2548;" horiz-adv-x="940" 
d="M507 264v-464h-76v464h-431v72h450v464h38v-464h452v-72h-433z" />
    <glyph glyph-name="uni2549" unicode="&#x2549;" horiz-adv-x="940" 
d="M507 282v-482h-76v464h-431v72h431v464h76v-482h433v-36h-433z" />
    <glyph glyph-name="uni254A" unicode="&#x254a;" horiz-adv-x="940" 
d="M507 264v-464h-76v482h-431v36h431v482h76v-464h433v-72h-433z" />
    <glyph glyph-name="uni3395" unicode="&#x3395;" horiz-adv-x="940" 
d="M886 526q0 -51 -15 -107.5t-41.5 -114t-63 -112t-78.5 -100.5q9 -38 30 -38q8 0 18 14.5t27 57.5l104 -54q-17 -43 -33.5 -69t-35 -40.5t-40 -19.5t-48.5 -5q-38 0 -63.5 22t-42.5 56q-23 -17 -45 -30l-63 90q42 26 76 56q-5 35 -6.5 66.5t-1.5 54.5q0 99 11.5 179
t35.5 137t59.5 87.5t83.5 30.5q37 0 62.5 -11t41 -32t22 -51t6.5 -67zM279 156q-8 -26 -4.5 -37.5t11.5 -11.5q12 0 21 9t17 26t16 40t18 52l59 174l132 -43l-75 -238q-7 -22 -6 -28t10 -5l8 1v-113q-14 -1 -27.5 -3t-30.5 -2q-28 0 -47 13t-27 33q-15 -19 -32.5 -27.5
t-34.5 -8.5q-32 0 -59 14l-74 -217l-125 44l186 572l130 -42zM748 559q-9 0 -19.5 -26.5t-19.5 -69t-16.5 -95t-10.5 -104.5q29 51 47.5 112t26.5 138q2 24 -0.5 34.5t-7.5 10.5z" />
    <glyph glyph-name="uni3396" unicode="&#x3396;" horiz-adv-x="940" 
d="M375 314q0 32 -3 41.5t-6 9.5q-6 0 -10 -10t-9 -27v-380h-136v360q0 32 -2.5 44.5t-7.5 12.5q-8 0 -11.5 -13t-5.5 -36v-368h-137v531h115v-17q15 16 32 22t26 6q26 0 45 -17.5t34 -43.5q19 29 45 45t50 16q63 0 90.5 -39t27.5 -119v-384h-137v366zM896 526
q0 -52 -14.5 -110t-41 -115.5t-62.5 -111.5t-79 -99q5 -17 11.5 -26.5t17.5 -9.5q8 0 18 14.5t27 57.5l104 -54q-17 -43 -33.5 -69t-35 -40.5t-40 -19.5t-48.5 -5q-38 0 -63.5 22t-42.5 57q-17 -12 -33 -21l-63 90q35 23 64 46q-5 35 -6.5 66.5t-1.5 54.5q0 99 11.5 179
t35.5 137t59.5 87.5t83.5 30.5q37 0 62.5 -11t41 -32t22 -51t6.5 -67zM758 559q-9 0 -19.5 -27.5t-19.5 -70.5t-16.5 -97t-10.5 -106q29 50 47.5 112.5t26.5 143.5q2 24 -0.5 34.5t-7.5 10.5z" />
    <glyph glyph-name="uni3397" unicode="&#x3397;" horiz-adv-x="940" 
d="M470 712v-764h-131v35q-9 -15 -20 -24.5t-22 -14.5t-21.5 -6.5t-18.5 -1.5q-39 0 -73 16.5t-59.5 51t-40.5 88t-15 128.5q0 128 44 199.5t138 71.5q21 0 40 -10t29 -27v258h150zM866 526q0 -52 -14.5 -110t-41 -115.5t-62.5 -111.5t-79 -99q5 -17 11.5 -26.5t17.5 -9.5
q8 0 18 14.5t27 57.5l104 -54q-17 -43 -33.5 -69t-35 -40.5t-40 -19.5t-48.5 -5q-38 0 -63.5 22t-42.5 57q-17 -12 -33 -21l-63 90q35 23 64 46q-5 35 -6.5 66.5t-1.5 54.5q0 99 11.5 179t35.5 137t59.5 87.5t83.5 30.5q37 0 62.5 -11t41 -32t22 -51t6.5 -67zM328 254
q0 24 -2 44.5t-7.5 36.5t-14.5 25t-24 9q-18 0 -29.5 -11.5t-18 -31.5t-9 -48t-2.5 -61q0 -75 13 -116.5t48 -41.5q30 0 38 30t8 77v88zM728 559q-9 0 -19.5 -27.5t-19.5 -70.5t-16.5 -97t-10.5 -106q29 50 47.5 112.5t26.5 143.5q2 24 -0.5 34.5t-7.5 10.5z" />
    <glyph glyph-name="uni2113" unicode="&#x2113;" horiz-adv-x="430" 
d="M400 526q0 -49 -15.5 -105t-42 -112.5t-63 -111t-78.5 -101.5q5 -20 12.5 -31t18.5 -11q8 0 18 14.5t27 57.5l104 -54q-17 -43 -33.5 -69t-35 -40.5t-40 -19.5t-48.5 -5q-38 0 -63.5 22t-42.5 57q-15 -12 -30 -22t-30 -19l-63 90q24 16 47 32.5t44 36.5q-5 33 -6.5 64
t-1.5 54q0 99 11.5 179t35.5 137t59.5 87.5t83.5 30.5q37 0 62.5 -11t41 -32t22 -51t6.5 -67zM262 559q-9 0 -19 -25.5t-19 -67t-16 -93t-11 -102.5q29 51 47.5 110.5t25.5 132.5q2 24 -0.5 34.5t-7.5 10.5z" />
    <glyph glyph-name="uni3398" unicode="&#x3398;" horiz-adv-x="850" 
d="M805 526q0 -51 -15 -107.5t-41.5 -114t-63 -112t-78.5 -100.5q9 -38 30 -38q8 0 18 14.5t27 57.5l104 -54q-17 -43 -33.5 -69t-35 -40.5t-40 -19.5t-48.5 -5q-38 0 -63.5 22t-42.5 56q-23 -17 -45 -30l-63 90q42 26 76 56q-5 35 -6.5 66.5t-1.5 54.5q0 99 11.5 179
t35.5 137t59.5 87.5t83.5 30.5q37 0 62.5 -11t41 -32t22 -51t6.5 -67zM199 373l88 109h171l-197 -237l197 -297h-160l-99 151v-151h-136v763h136v-338zM667 559q-9 0 -19.5 -26.5t-19.5 -69t-16.5 -95t-10.5 -104.5q29 51 47.5 112t26.5 138q2 24 -0.5 34.5t-7.5 10.5z" />
    <glyph glyph-name="uni33C4" unicode="&#x33c4;" horiz-adv-x="750" 
d="M374 -24q-13 -9 -25 -16t-26 -12.5t-31 -8.5t-40 -3q-97 0 -148.5 67t-51.5 210t53.5 211.5t156.5 68.5q36 0 62 -11.5t50 -31.5l-29 -133q-18 14 -31 23.5t-22 15t-16 7.5t-14 2q-32 0 -45.5 -38t-13.5 -109q0 -78 14 -115.5t47 -37.5q9 0 17.5 1t18.5 5t23 11t33 19z
M702 -22q-26 -17 -52.5 -29.5t-72.5 -12.5q-97 0 -148.5 67t-51.5 210t53.5 211.5t156.5 68.5q40 0 64.5 -11.5t48.5 -31.5l-29 -133q-37 28 -53.5 38t-30.5 10q-32 0 -45.5 -38t-13.5 -109q0 -78 14 -115.5t47 -37.5q9 0 18 1.5t19.5 5.5t24 11.5t33.5 19.5z" />
    <glyph glyph-name="uni33A3" unicode="&#x33a3;" horiz-adv-x="940" 
d="M303 325q0 46 -8 46q-7 0 -13 -36v-387h-115v370q0 30 -2 41.5t-7 11.5q-3 0 -5 -6t-3.5 -14.5t-2.5 -18t-1 -15.5v-369h-116v531h101v-24q8 18 23 26.5t26 8.5q26 0 39.5 -20t20.5 -45q12 29 33 47t46 18q53 0 76.5 -42.5t23.5 -119.5v-380h-116v377zM717 325
q0 46 -8 46q-7 0 -13 -36v-387h-115v370q0 30 -2 41.5t-7 11.5q-3 0 -5 -6t-3.5 -14.5t-2.5 -18t-1 -15.5v-369h-116v531h101v-24q8 18 23 26.5t26 8.5q26 0 39.5 -20t20.5 -45q12 29 33 47t46 18q53 0 76.5 -42.5t23.5 -119.5v-380h-116v377zM847 641q13 0 17 5t4 11
q0 13 -12 13q-9 0 -21.5 -6t-25.5 -16l-29 56q39 30 82 30q39 0 60 -20.5t21 -48.5q0 -12 -4.5 -25t-16.5 -24q29 -18 29 -55q0 -16 -6.5 -31t-19 -27t-30.5 -19t-41 -7q-20 0 -41 6.5t-44 20.5l35 62q10 -8 24.5 -13t24.5 -5q13 0 17 4.5t4 11.5q0 8 -7.5 13.5t-19.5 5.5
h-27v58h27z" />
    <glyph glyph-name="uni33A4" unicode="&#x33a4;" horiz-adv-x="940" 
d="M709 314q0 32 -3 41.5t-6 9.5q-6 0 -10 -10t-9 -27v-380h-136v360q0 32 -2.5 44.5t-7.5 12.5q-8 0 -11.5 -13t-5.5 -36v-368h-137v531h115v-17q15 16 32 22t26 6q26 0 45 -17.5t34 -43.5q19 29 45 45t50 16q63 0 90.5 -39t27.5 -119v-384h-137v366zM367 -24
q-13 -9 -25 -16t-26 -12.5t-31 -8.5t-40 -3q-97 0 -148.5 67t-51.5 210t53.5 211.5t156.5 68.5q36 0 62 -11.5t50 -31.5l-29 -133q-18 14 -31 23.5t-22 15t-16 7.5t-14 2q-32 0 -45.5 -38t-13.5 -109q0 -78 14 -115.5t47 -37.5q9 0 17.5 1t18.5 5t23 11t33 19zM847 641
q13 0 17 5t4 11q0 13 -12 13q-9 0 -21.5 -6t-25.5 -16l-29 56q39 30 82 30q39 0 60 -20.5t21 -48.5q0 -12 -4.5 -25t-16.5 -24q29 -18 29 -55q0 -16 -6.5 -31t-19 -27t-30.5 -19t-41 -7q-20 0 -41 6.5t-44 20.5l35 62q10 -8 24.5 -13t24.5 -5q13 0 17 4.5t4 11.5
q0 8 -7.5 13.5t-19.5 5.5h-27v58h27z" />
    <glyph glyph-name="uni33A5" unicode="&#x33a5;" horiz-adv-x="940" 
d="M594 305q0 32 -4.5 48t-29.5 16q-17 0 -38.5 -15t-38.5 -38v-368h-160v357q0 30 -9 47t-35 17q-17 0 -36.5 -14t-30.5 -39v-368h-160v533h150v-40q20 29 48.5 40t48.5 11q50 0 80.5 -20t54.5 -51q32 36 70 53.5t76 17.5q47 0 80 -13t54 -37.5t30.5 -59t9.5 -76.5v-358
h-160v357zM777 641q13 0 17 5t4 11q0 13 -12 13q-9 0 -21.5 -6t-25.5 -16l-29 56q39 30 82 30q39 0 60 -20.5t21 -48.5q0 -12 -4.5 -25t-16.5 -24q29 -18 29 -55q0 -16 -6.5 -31t-19 -27t-30.5 -19t-41 -7q-20 0 -41 6.5t-44 20.5l35 62q10 -8 24.5 -13t24.5 -5q13 0 17 4.5
t4 11.5q0 8 -7.5 13.5t-19.5 5.5h-27v58h27z" />
    <glyph glyph-name="uni33A6" unicode="&#x33a6;" horiz-adv-x="940" 
d="M702 314q0 32 -3 41.5t-6 9.5q-6 0 -10 -10t-9 -27v-380h-136v360q0 32 -2.5 44.5t-7.5 12.5q-8 0 -11.5 -13t-5.5 -36v-368h-137v531h115v-17q15 16 32 22t26 6q26 0 45 -17.5t34 -43.5q19 29 45 45t50 16q63 0 90.5 -39t27.5 -119v-384h-137v366zM163 404l47 78h156
l-157 -237l155 -297h-147l-54 108v-108h-131v763h131v-307zM837 641q13 0 17 5t4 11q0 13 -12 13q-9 0 -21.5 -6t-25.5 -16l-29 56q39 30 82 30q39 0 60 -20.5t21 -48.5q0 -12 -4.5 -25t-16.5 -24q29 -18 29 -55q0 -16 -6.5 -31t-19 -27t-30.5 -19t-41 -7q-20 0 -41 6.5
t-44 20.5l35 62q10 -8 24.5 -13t24.5 -5q13 0 17 4.5t4 11.5q0 8 -7.5 13.5t-19.5 5.5h-27v58h27z" />
    <glyph glyph-name="uni3399" unicode="&#x3399;" horiz-adv-x="870" 
d="M680 314q0 32 -3 41.5t-6 9.5q-6 0 -10 -10t-9 -27v-380h-136v360q0 32 -2.5 44.5t-7.5 12.5q-8 0 -11.5 -13t-5.5 -36v-368h-137v531h115v-17q15 16 32 22t26 6q26 0 45 -17.5t34 -43.5q19 29 45 45t50 16q63 0 90.5 -39t27.5 -119v-384h-137v366zM279 602
q-23 0 -31.5 -12.5t-8.5 -41.5v-63h91v-124h-91v-413h-154v413h-53v124h53v63q0 80 40 129t131 49h75v-124h-52z" />
    <glyph glyph-name="uni339A" unicode="&#x339a;" horiz-adv-x="940" 
d="M768 314q0 32 -3 41.5t-6 9.5q-6 0 -10 -10t-9 -27v-380h-136v360q0 32 -2.5 44.5t-7.5 12.5q-8 0 -11.5 -13t-5.5 -36v-368h-137v531h115v-17q15 16 32 22t26 6q26 0 45 -17.5t34 -43.5q19 29 45 45t50 16q63 0 90.5 -39t27.5 -119v-384h-137v366zM256 295q0 37 -1 55.5
t-12 18.5q-14 0 -23.5 -18.5t-18.5 -45.5v-357h-150v533h136v-38q14 26 37 37.5t44 11.5q41 0 67.5 -14t42 -39.5t21.5 -61.5t6 -81v-348h-149v347z" />
    <glyph glyph-name="uni339B" unicode="&#x339b;" horiz-adv-x="940" 
d="M795 325q0 46 -8 46q-7 0 -13 -36v-387h-115v370q0 30 -2 41.5t-7 11.5q-3 0 -5 -6t-3.5 -14.5t-2.5 -18t-1 -15.5v-369h-116v531h101v-24q8 18 23 26.5t26 8.5q26 0 39.5 -20t20.5 -45q12 29 33 47t46 18q53 0 76.5 -42.5t23.5 -119.5v-380h-116v377zM239 156
q-8 -26 -4.5 -37.5t11.5 -11.5q12 0 21 9t17 26t16 40t18 52l59 174l132 -43l-75 -238q-7 -22 -6 -28t10 -5l8 1v-113q-14 -1 -27.5 -3t-30.5 -2q-28 0 -47 13t-27 33q-15 -19 -32.5 -27.5t-34.5 -8.5q-32 0 -59 14l-74 -217l-125 44l186 572l130 -42z" />
    <glyph glyph-name="uni339C" unicode="&#x339c;" 
d="M321 325q0 46 -8 46q-7 0 -13 -36v-387h-115v370q0 30 -2 41.5t-7 11.5q-3 0 -5 -6t-3.5 -14.5t-2.5 -18t-1 -15.5v-369h-116v531h101v-24q8 18 23 26.5t26 8.5q26 0 39.5 -20t20.5 -45q12 29 33 47t46 18q53 0 76.5 -42.5t23.5 -119.5v-380h-116v377zM747 325
q0 46 -8 46q-7 0 -13 -36v-387h-115v370q0 30 -2 41.5t-7 11.5q-3 0 -5 -6t-3.5 -14.5t-2.5 -18t-1 -15.5v-369h-116v531h101v-24q8 18 23 26.5t26 8.5q26 0 39.5 -20t20.5 -45q12 29 33 47t46 18q53 0 76.5 -42.5t23.5 -119.5v-380h-116v377z" />
    <glyph glyph-name="uni339D" unicode="&#x339d;" horiz-adv-x="900" 
d="M709 314q0 32 -3 41.5t-6 9.5q-6 0 -10 -10t-9 -27v-380h-136v360q0 32 -2.5 44.5t-7.5 12.5q-8 0 -11.5 -13t-5.5 -36v-368h-137v531h115v-17q15 16 32 22t26 6q26 0 45 -17.5t34 -43.5q19 29 45 45t50 16q63 0 90.5 -39t27.5 -119v-384h-137v366zM367 -24
q-13 -9 -25 -16t-26 -12.5t-31 -8.5t-40 -3q-97 0 -148.5 67t-51.5 210t53.5 211.5t156.5 68.5q36 0 62 -11.5t50 -31.5l-29 -133q-18 14 -31 23.5t-22 15t-16 7.5t-14 2q-32 0 -45.5 -38t-13.5 -109q0 -78 14 -115.5t47 -37.5q9 0 17.5 1t18.5 5t23 11t33 19z" />
    <glyph glyph-name="uni339E" unicode="&#x339e;" horiz-adv-x="940" 
d="M734 314q0 32 -3 41.5t-6 9.5q-6 0 -10 -10t-9 -27v-380h-136v360q0 32 -2.5 44.5t-7.5 12.5q-8 0 -11.5 -13t-5.5 -36v-368h-137v531h115v-17q15 16 32 22t26 6q26 0 45 -17.5t34 -43.5q19 29 45 45t50 16q63 0 90.5 -39t27.5 -119v-384h-137v366zM195 404l47 78h156
l-157 -237l155 -297h-147l-54 108v-108h-131v763h131v-307z" />
    </font>
</defs>
</svg>
